<?xml version="1.0" encoding="utf-8"?>
<!-- Generator: Adobe Illustrator 23.0.1, SVG Export Plug-In . SVG Version: 6.00 Build 0)  -->
<svg version="1.1" id="Layer_1" xmlns="http://www.w3.org/2000/svg" xmlns:xlink="http://www.w3.org/1999/xlink" x="0px" y="0px"
	 viewBox="0 0 1366 768" style="enable-background:new 0 0 1366 768;" xml:space="preserve">
<style type="text/css">
	.st0{fill:#F5F5F5;}
	.st1{fill:#407BFF;}
	.st2{opacity:0.6;fill:#FFFFFF;enable-background:new    ;}
	.st3{fill:#263238;}
	.st4{opacity:0.5;fill:#FFFFFF;enable-background:new    ;}
	.st5{fill:#FFFFFF;}
	.st6{opacity:0.2;enable-background:new    ;}
	.st7{opacity:0.2;fill:#FFFFFF;enable-background:new    ;}
	.st8{opacity:0.3;fill:#FFFFFF;enable-background:new    ;}
	.st9{fill:#EBB376;}
	.st10{opacity:0.4;fill:#FFFFFF;enable-background:new    ;}
	.st11{fill:#D58745;}
	.st12{fill:none;stroke:#263238;stroke-width:1.0198;stroke-linecap:round;stroke-linejoin:round;}
</style>
<g id="freepik--Shadow--inject-2">
	<ellipse id="freepik--path--inject-2" class="st0" cx="775.9" cy="739.2" rx="289" ry="16.8"/>
</g>
<g id="freepik--Screens--inject-2">
	<path class="st1" d="M850,179.1H642.9c-2.5,0-4.5,1.9-4.5,4.5v169c0,2.5,1.9,4.5,4.5,4.5H850c2.5,0,4.5-1.9,4.5-4.5v-169
		C854.4,181.2,852.3,179.1,850,179.1z"/>
	<path class="st2" d="M638.2,183.5v169c0,2.5,1.9,4.5,4.5,4.5l0,0H850c2.5,0,4.5-1.9,4.5-4.5l0,0v-169c0-2.5-1.9-4.5-4.5-4.5H642.7
		C640.1,179.2,638.2,181.2,638.2,183.5z"/>
	<rect x="642.9" y="197.3" class="st3" width="206.9" height="154.6"/>
	<path class="st4" d="M832.9,216.5c-0.2,0.2-0.6,0.2-1,0.2c-0.4,0-1-0.2-1.2-0.6c-0.4-0.6-0.4-1.6,0.2-1.9l0,0l4.3-3.1l-4.3-3.1
		c-0.6-0.4-0.8-1.4-0.4-2.1c0.4-0.6,1.4-0.8,2.1-0.4l5.8,4.3c0.6,0.6,0.8,1.4,0.2,2.1c0,0.2-0.2,0.2-0.2,0.2L832.9,216.5z"/>
	<path class="st4" d="M813.4,211l4.3,3.1c0.6,0.4,0.8,1.4,0.4,1.9c-0.2,0.4-0.8,0.6-1.2,0.6s-0.6-0.2-1-0.2l-5.8-4.3
		c-0.6-0.4-0.8-1.4-0.4-1.9c0-0.2,0.2-0.2,0.4-0.4l5.8-4.3c0.6-0.6,1.6-0.4,2.1,0.2c0.6,0.6,0.4,1.6-0.2,2.1l-0.2,0.2L813.4,211z"/>
	<path class="st4" d="M826.4,216.6c-0.2,0-0.4,0-0.6,0c-0.6,0-1.2-0.4-1.4-1l-3.1-8.7c-0.2-0.8,0.2-1.6,1-1.9c0.8-0.2,1.6,0.2,1.9,1
		l0,0l3.1,8.7C827.7,215.5,827.3,216.3,826.4,216.6C826.5,216.6,826.5,216.6,826.4,216.6z"/>
	<path class="st4" d="M802.1,217.2h-7.8c-1.2,0-1.9-0.8-1.9-1.9s0.8-1.9,1.9-1.9h7.8c1.2,0,1.9,0.8,1.9,1.9S803.3,217.2,802.1,217.2
		z"/>
	<path class="st4" d="M678.1,326.9h119.9c1.2,0,1.9,0.8,1.9,1.9s-0.8,1.9-1.9,1.9H678.1c-1.2,0-1.9-0.8-1.9-1.9
		S677,326.9,678.1,326.9z"/>
	<path class="st5" d="M651.8,326.9h14.7c1.2,0,1.9,0.8,1.9,1.9s-0.8,1.9-1.9,1.9h-14.7c-1.2,0-1.9-0.8-1.9-1.9
		S650.6,326.9,651.8,326.9z"/>
	<path class="st5" d="M761.8,318.6h-48.2c-1.2,0-1.9-0.8-1.9-1.9s0.8-1.9,1.9-1.9h48.2c1.2,0,1.9,0.8,1.9,1.9S763,318.6,761.8,318.6
		z"/>
	<path class="st4" d="M678.1,318.6c-1.2,0-1.9-0.8-1.9-1.9s0.8-1.9,1.9-1.9h27.3c1.2,0,1.9,0.8,1.9,1.9s-0.8,1.9-1.9,1.9H678.1z"/>
	<path class="st4" d="M651.8,314.7h14.5c1.2,0,1.9,0.8,1.9,1.9s-0.8,1.9-1.9,1.9h-14.5c-1.2,0-1.9-0.8-1.9-1.9
		S650.6,314.7,651.8,314.7z"/>
	<path class="st5" d="M677.9,302.3h64.7c1.2,0,1.9,0.8,1.9,1.9c0,1.2-0.8,1.9-1.9,1.9h-64.5c-1.2,0-1.9-0.8-1.9-1.9
		C676.2,303.1,677,302.3,677.9,302.3L677.9,302.3z"/>
	<path class="st5" d="M651.8,302.3h14.7c1.2,0,1.9,0.8,1.9,1.9c0,1.2-0.8,1.9-1.9,1.9h-14.7c-1.2,0-1.9-0.8-1.9-1.9
		C649.8,303.1,650.6,302.3,651.8,302.3z"/>
	<path class="st4" d="M713.4,292c0-1.2,0.8-1.9,1.9-1.9h65.9c1.2,0,1.9,0.8,1.9,1.9s-0.8,1.9-1.9,1.9h-65.9
		C714.4,294,713.4,293.2,713.4,292z"/>
	<path class="st4" d="M703.5,290.1c1.2,0,1.9,0.8,1.9,1.9s-0.8,1.9-1.9,1.9h-25.6c-1.2,0-1.9-0.8-1.9-1.9s0.8-1.9,1.9-1.9H703.5z"/>
	<path class="st5" d="M651.8,290.1h14.5c1.2,0,1.9,0.8,1.9,1.9s-0.8,1.9-1.9,1.9h-14.5c-1.2,0-1.9-0.8-1.9-1.9
		S650.6,290.1,651.8,290.1z"/>
	<path class="st5" d="M699.8,281.7h-12.6c-1.2,0-1.9-0.8-1.9-1.9s0.8-1.9,1.9-1.9h12.6c1.2,0,1.9,0.8,1.9,1.9S701,281.7,699.8,281.7
		z"/>
	<path class="st4" d="M678.1,281.7h-26.4c-1.2,0-1.9-0.8-1.9-1.9s0.8-1.9,1.9-1.9h26.4c1.2,0,1.9,0.8,1.9,1.9
		S679.3,281.7,678.1,281.7z"/>
	<path class="st5" d="M770.9,267.4c0-1.2,0.8-1.9,1.9-1.9h66.7c1.2,0,1.9,0.8,1.9,1.9s-0.8,1.9-1.9,1.9h-66.5
		C771.9,269.5,770.9,268.6,770.9,267.4C770.9,267.6,770.9,267.6,770.9,267.4z"/>
	<path class="st4" d="M762.4,269.3h-19.6c-1.2,0-1.9-0.8-1.9-1.9s0.8-1.9,1.9-1.9h19.6c1.2,0,1.9,0.8,1.9,1.9
		S763.4,269.3,762.4,269.3z"/>
	<path class="st4" d="M839.3,257.1h-25.2c-1.2,0-1.9-0.8-1.9-1.9s0.8-1.9,1.9-1.9h25.2c1.2,0,1.9,0.8,1.9,1.9
		S840.5,257.1,839.3,257.1z"/>
	<path class="st5" d="M721.5,255.2c0-1.2,0.8-1.9,1.9-1.9h78.3c1.2,0,1.9,0.8,1.9,1.9s-0.8,1.9-1.9,1.9h-78.3
		C722.3,257.1,721.5,256.4,721.5,255.2z"/>
	<path class="st5" d="M839.3,244.9h-45.5c-1.2,0-1.9-0.8-1.9-1.9s0.8-1.9,1.9-1.9h45.5c1.2,0,1.9,0.8,1.9,1.9
		S840.5,244.9,839.3,244.9z"/>
	<path class="st4" d="M785.1,243c0,1.2-0.8,1.9-1.9,1.9h-11.2c-1.2,0-1.9-0.8-1.9-1.9s0.8-1.9,1.9-1.9h11.2
		C784.3,241.1,785.1,241.8,785.1,243z"/>
	<path class="st4" d="M839.3,232.5h-53.9c-1.2,0-1.9-0.8-1.9-1.9s0.8-1.9,1.9-1.9h53.9c1.2,0,1.9,0.8,1.9,1.9
		S840.5,232.5,839.3,232.5z"/>
	<path class="st5" d="M745.4,232.5h-41.3c-1.2,0-1.9-0.8-1.9-1.9s0.8-1.9,1.9-1.9h41.3c1.2,0,1.9,0.8,1.9,1.9
		S746.5,232.5,745.4,232.5z"/>
	<path class="st6" d="M730.6,179.1v48.2c0,5.4,4.3,9.7,9.7,9.7h114.1v-53.5c0-2.5-1.9-4.5-4.5-4.5H730.6z"/>
	<path class="st1" d="M979.6,44H745.4c-2.5,0-4.5,1.9-4.5,4.5v169c0,2.5,1.9,4.5,4.5,4.5h234.3c2.5,0,4.5-1.9,4.5-4.5v-169
		C984.1,45.9,982.1,44,979.6,44z"/>
	<path class="st2" d="M740.9,48.5v169c0,2.5,1.9,4.5,4.5,4.5l0,0h234.3c2.5,0,4.5-1.9,4.5-4.5l0,0v-169c0-2.5-1.9-4.5-4.5-4.5l0,0
		H745.2C742.8,44,740.9,45.9,740.9,48.5z"/>
	<rect x="745.4" y="62" class="st3" width="234.1" height="154.6"/>
	<path class="st5" d="M962.6,81.2c-0.2,0.2-0.6,0.2-1,0.2c-0.8,0-1.4-0.6-1.4-1.6c0-0.4,0.2-1,0.6-1.2l4.3-3.1l-4.3-3.1
		c-0.6-0.4-0.8-1.4-0.4-2.1c0.4-0.6,1.4-0.8,2.1-0.4l0,0l5.8,4.3c0.6,0.6,0.8,1.4,0.2,2.1c0,0.2-0.2,0.2-0.2,0.2L962.6,81.2z"/>
	<path class="st5" d="M943,75.8l4.3,3.1c0.6,0.4,0.8,1.4,0.4,1.9c-0.2,0.4-0.8,0.6-1.2,0.6c-0.4,0-0.6-0.2-1-0.4l-5.8-4.3
		c-0.4-0.2-0.6-0.8-0.6-1.2c0-0.4,0.2-1,0.6-1.2l5.8-4.3c0.6-0.6,1.6-0.4,2.1,0.2c0.6,0.6,0.4,1.6-0.2,2.1l-0.2,0.2L943,75.8z"/>
	<path class="st5" d="M956.2,81.4c-0.2,0-0.4,0-0.6,0c-0.6,0-1.2-0.4-1.4-1l-3.1-8.7c-0.2-0.8,0-1.6,0.8-1.7l0,0
		c0.8-0.4,1.6,0,1.9,0.8l0,0l3.1,8.7C957.3,80.2,957,81.2,956.2,81.4L956.2,81.4z"/>
	<path class="st4" d="M932,82h-7.8c-1.2,0-1.9-0.8-1.9-1.9c0-1.2,0.8-1.9,1.9-1.9h7.8c1.2,0,1.9,0.8,1.9,1.9
		C933.9,81.2,932.9,82,932,82z"/>
	<path class="st4" d="M832.4,97.5h-10.3c-1.2,0-1.9-0.8-1.9-1.9c0-1.2,0.8-1.9,1.9-1.9h10.3c1.2,0,1.9,0.8,1.9,1.9
		C834.3,96.7,833.5,97.5,832.4,97.5z"/>
	<path class="st5" d="M944.6,95.5c0,1.2-0.8,1.9-1.9,1.9h-96.9c-1.2,0-1.9-0.8-1.9-1.9c0-1.2,0.8-1.9,1.9-1.9h96.9
		C943.8,93.6,944.6,94.4,944.6,95.5z"/>
	<path class="st4" d="M969,97.5h-14.7c-1.2,0-1.9-0.8-1.9-1.9c0-1.2,0.8-1.9,1.9-1.9H969c1.2,0,1.9,0.8,1.9,1.9
		C970.9,96.7,970.1,97.5,969,97.5z"/>
	<path class="st5" d="M868.6,109.7c-1.2,0-1.9-0.8-1.9-1.9c0-1.2,0.8-1.9,1.9-1.9h38.6c1.2,0,1.9,0.8,1.9,1.9c0,1.2-0.8,1.9-1.9,1.9
		H868.6z"/>
	<path class="st5" d="M942.6,109.7h-27.3c-1.2,0-1.9-0.8-1.9-1.9c0-1.2,0.8-1.9,1.9-1.9h27.3c1.2,0,1.9,0.8,1.9,1.9
		C944.6,108.9,943.8,109.7,942.6,109.7z"/>
	<path class="st4" d="M969,109.7h-14.5c-1.2,0-1.9-0.8-1.9-1.9c0-1.2,0.8-1.9,1.9-1.9H969c1.2,0,1.9,0.8,1.9,1.9
		C970.9,108.9,970.1,109.7,969,109.7z"/>
	<path class="st5" d="M886,120c0-1.2,0.8-1.9,1.9-1.9h54.8c1.2,0,1.9,0.8,1.9,1.9c0,1.2-0.8,1.9-1.9,1.9H888
		C887,121.9,886,121.1,886,120z"/>
	<path class="st4" d="M969,121.9h-14.7c-1.2,0-1.9-0.8-1.9-1.9c0-1.2,0.8-1.9,1.9-1.9H969c1.2,0,1.9,0.8,1.9,1.9
		C970.9,121.1,970.1,121.9,969,121.9z"/>
	<path class="st5" d="M905.2,134.3H849c-1.2,0-1.9-0.8-1.9-1.9s0.8-1.9,1.9-1.9h56.2c1.2,0,1.9,0.8,1.9,1.9S906.4,134.3,905.2,134.3
		z"/>
	<path class="st5" d="M942.8,130.4c1.2,0,1.9,0.8,1.9,1.9s-0.8,1.9-1.9,1.9h-25.6c-1.2,0-1.9-0.8-1.9-1.9s0.8-1.9,1.9-1.9H942.8z"/>
	<path class="st4" d="M969,134.3h-14.5c-1.2,0-1.9-0.8-1.9-1.9s0.8-1.9,1.9-1.9H969c1.2,0,1.9,0.8,1.9,1.9S970.1,134.3,969,134.3z"
		/>
	<path class="st5" d="M920.9,142.6h12.6c1.2,0,1.9,0.8,1.9,1.9s-0.8,1.9-1.9,1.9h-12.6c-1.2,0-1.9-0.8-1.9-1.9
		S919.9,142.6,920.9,142.6z"/>
	<path class="st5" d="M942.6,142.6H969c1.2,0,1.9,0.8,1.9,1.9s-0.8,1.9-1.9,1.9h-26.4c-1.2,0-1.9-0.8-1.9-1.9
		S941.5,142.6,942.6,142.6L942.6,142.6z"/>
	<path class="st5" d="M859.5,156.8c0,1.2-0.8,1.9-1.9,1.9H754.3c-1.2,0-1.9-0.8-1.9-1.9s0.8-1.9,1.9-1.9h103.3
		C858.7,154.8,859.5,155.8,859.5,156.8z"/>
	<path class="st4" d="M887.6,154.8c1.2,0,1.9,0.8,1.9,1.9s-0.8,1.9-1.9,1.9H868c-1.2,0-1.9-0.8-1.9-1.9s0.8-1.9,1.9-1.9H887.6z"/>
	<path class="st4" d="M754.3,167h25.2c1.2,0,1.9,0.8,1.9,1.9s-0.8,1.9-1.9,1.9h-25.2c-1.2,0-1.9-0.8-1.9-1.9S753.3,167,754.3,167z"
		/>
	<path class="st5" d="M789.9,169c0-1.2,0.8-1.9,1.9-1.9h105.4c1.2,0,1.9,0.8,1.9,1.9s-0.8,1.9-1.9,1.9H791.9
		C790.9,170.9,789.9,170.1,789.9,169L789.9,169z"/>
	<path class="st5" d="M754.3,179.4H800c1.2,0,1.9,0.8,1.9,1.9s-0.8,1.9-1.9,1.9h-45.5c-1.2,0-1.9-0.8-1.9-1.9
		S753.3,179.4,754.3,179.4L754.3,179.4z"/>
	<path class="st4" d="M821.7,179.4c1.2,0,1.9,0.8,1.9,1.9s-0.8,1.9-1.9,1.9h-11.4c-1.2,0-1.9-0.8-1.9-1.9s0.8-1.9,1.9-1.9H821.7z"/>
	<path class="st5" d="M754.3,191.6H845c1.2,0,1.9,0.8,1.9,1.9s-0.8,1.9-1.9,1.9h-90.7c-1.2,0-1.9-0.8-1.9-1.9
		S753.3,191.6,754.3,191.6L754.3,191.6z"/>
	<path class="st5" d="M885.1,191.6h31.6c1.2,0,1.9,0.8,1.9,1.9s-0.8,1.9-1.9,1.9h-31.6c-1.2,0-1.9-0.8-1.9-1.9
		S883.9,191.6,885.1,191.6L885.1,191.6z"/>
	<path class="st6" d="M854.4,120.3v101.3h125.2c2.5,0,4.5-1.9,4.5-4.5l0,0V111.8H863C858.3,111.8,854.4,115.7,854.4,120.3
		L854.4,120.3z"/>
	<path class="st1" d="M1146.1,119.4H875c-2.5,0-4.5,1.9-4.5,4.5v169c0,2.5,1.9,4.5,4.5,4.5h271.1c2.5,0,4.5-1.9,4.5-4.5v-169
		C1150.5,121.3,1148.4,119.4,1146.1,119.4z"/>
	<path class="st2" d="M1146.1,119.4H875c-2.5,0-4.5,1.9-4.5,4.5v169c0,2.5,1.9,4.5,4.5,4.5h271.1c2.5,0,4.5-1.9,4.5-4.5v-169
		C1150.5,121.3,1148.4,119.4,1146.1,119.4z"/>
	<rect x="875" y="137.4" class="st3" width="270.9" height="154.6"/>
	<path class="st5" d="M1092,169.8h43.4c1.2,0,1.9,0.8,1.9,1.9s-0.8,1.9-1.9,1.9H1092c-1.2,0-1.9-0.8-1.9-1.9S1091,169.8,1092,169.8z
		"/>
	<path class="st5" d="M1092,182h37.6c1.2,0,1.9,0.8,1.9,1.9s-0.8,1.9-1.9,1.9H1092c-1.2,0-1.9-0.8-1.9-1.9S1091,182,1092,182z"/>
	<path class="st4" d="M1092,194h43.4c1.2,0,1.9,0.8,1.9,1.9c0,1.2-0.8,1.9-1.9,1.9H1092c-1.2,0-1.9-0.8-1.9-1.9
		C1090.1,194.7,1091,194,1092,194z"/>
	<path class="st5" d="M1092,206.2h26c1.2,0,1.9,0.8,1.9,1.9c0,1.2-0.8,1.9-1.9,1.9h-26c-1.2,0-1.9-0.8-1.9-1.9
		C1090.1,207,1091,206.2,1092,206.2z"/>
	<path class="st5" d="M1092,218.2h43.4c1.2,0,1.9,0.8,1.9,1.9s-0.8,1.9-1.9,1.9H1092c-1.2,0-1.9-0.8-1.9-1.9S1091,218.2,1092,218.2z
		"/>
	<path class="st5" d="M1092,230.2h35.7c1.2,0,1.9,0.8,1.9,1.9c0,1.2-0.8,1.9-1.9,1.9H1092c-1.2,0-1.9-0.8-1.9-1.9
		C1090.1,231,1091,230.2,1092,230.2z"/>
	<path class="st5" d="M1092,242.4h35.7c1.2,0,1.9,0.8,1.9,1.9c0,1.2-0.8,1.9-1.9,1.9H1092c-1.2,0-1.9-0.8-1.9-1.9
		C1090.1,243.2,1091,242.4,1092,242.4z"/>
	<path class="st5" d="M1092,254.4h39.5c1.2,0,1.9,0.8,1.9,1.9s-0.8,1.9-1.9,1.9H1092c-1.2,0-1.9-0.8-1.9-1.9S1091,254.4,1092,254.4z
		"/>
	<path class="st4" d="M1092,266.6h26c1.2,0,1.9,0.8,1.9,1.9s-0.8,1.9-1.9,1.9h-26c-1.2,0-1.9-0.8-1.9-1.9S1091,266.6,1092,266.6z"/>
	<path class="st4" d="M1092,157.7h31.8c1.2,0,1.9,0.8,1.9,1.9c0,1.2-0.8,1.9-1.9,1.9H1092c-1.2,0-1.9-0.8-1.9-1.9
		C1090.1,158.5,1091,157.7,1092,157.7z"/>
	<path class="st5" d="M1092,145.7h43.4c1.2,0,1.9,0.8,1.9,1.9s-0.8,1.9-1.9,1.9H1092c-1.2,0-1.9-0.8-1.9-1.9S1091,145.7,1092,145.7z
		"/>
	<path class="st5" d="M1092,278.6h43.4c1.2,0,1.9,0.8,1.9,1.9s-0.8,1.9-1.9,1.9H1092c-1.2,0-1.9-0.8-1.9-1.9S1091,278.6,1092,278.6z
		"/>
	<rect x="1068.8" y="169.4" class="st4" width="8.5" height="4.8"/>
	<rect x="1068.8" y="181.4" class="st4" width="8.5" height="4.8"/>
	<rect x="1068.8" y="193.6" class="st4" width="8.5" height="4.8"/>
	<rect x="1068.8" y="205.6" class="st4" width="8.5" height="4.8"/>
	<rect x="1068.8" y="217.8" class="st4" width="8.5" height="4.8"/>
	<rect x="1068.8" y="229.8" class="st4" width="8.5" height="4.8"/>
	<rect x="1068.8" y="241.8" class="st4" width="8.5" height="4.8"/>
	<rect x="1068.8" y="254" class="st4" width="8.5" height="4.8"/>
	<rect x="1068.8" y="266.1" class="st4" width="8.5" height="4.8"/>
	<rect x="1068.8" y="157.4" class="st4" width="8.5" height="4.8"/>
	<rect x="1068.8" y="145.1" class="st4" width="8.5" height="4.8"/>
	<rect x="1068.8" y="278.3" class="st4" width="8.5" height="4.8"/>
	<path class="st5" d="M1025,171.7c0,1.2-0.8,1.9-1.9,1.9H882.7c-1.2,0-1.9-0.8-1.9-1.9s0.8-1.9,1.9-1.9H1023
		C1024,169.8,1025,170.7,1025,171.7z"/>
	<path class="st5" d="M882.7,182h76.7c1.2,0,1.9,0.8,1.9,1.9s-0.8,1.9-1.9,1.9h-76.7c-1.2,0-1.9-0.8-1.9-1.9S881.6,182,882.7,182
		L882.7,182z"/>
	<path class="st4" d="M977.7,182h24c1.2,0,1.9,0.8,1.9,1.9s-0.8,1.9-1.9,1.9h-23.8c-1.2,0-1.9-0.8-1.9-1.9S976.7,182,977.7,182z"/>
	<path class="st5" d="M929.2,194h106.6c1.2,0,1.9,0.8,1.9,1.9c0,1.2-0.8,1.9-1.9,1.9H929.2c-1.2,0-1.9-0.8-1.9-1.9
		C927.3,194.7,928.3,194,929.2,194z"/>
	<path class="st4" d="M1057.9,197.8h-7.6c-1.2,0-1.9-0.8-1.9-1.9c0-1.2,0.8-1.9,1.9-1.9h7.6c1.2,0,1.9,0.8,1.9,1.9
		C1059.8,197.1,1058.9,197.8,1057.9,197.8z"/>
	<path class="st5" d="M915.7,208.1c0-1.2,0.8-1.9,1.9-1.9h98.8c1.2,0,1.9,0.8,1.9,1.9c0,1.2-0.8,1.9-1.9,1.9h-98.8
		C916.6,210.1,915.7,209.1,915.7,208.1z"/>
	<path class="st5" d="M1057.9,210.1H1030c-1.2,0-1.9-0.8-1.9-1.9c0-1.2,0.8-1.9,1.9-1.9h27.9c1.2,0,1.9,0.8,1.9,1.9
		C1059.8,209.3,1058.9,210.1,1057.9,210.1z"/>
	<path class="st5" d="M1057.9,222.1H952.5c-1.2,0-1.9-0.8-1.9-1.9s0.8-1.9,1.9-1.9h105.4c1.2,0,1.9,0.8,1.9,1.9
		S1058.9,222.1,1057.9,222.1z"/>
	<path class="st5" d="M989.7,230.2c1.2,0,1.9,0.8,1.9,1.9c0,1.2-0.8,1.9-1.9,1.9h-54.6c-1.2,0-1.9-0.8-1.9-1.9
		c0-1.2,0.8-1.9,1.9-1.9H989.7z"/>
	<path class="st5" d="M1057.9,234.1h-47.3c-1.2,0-1.9-0.8-1.9-1.9c0-1.2,0.8-1.9,1.9-1.9h47.3c1.2,0,1.9,0.8,1.9,1.9
		C1059.8,233.3,1058.9,234.1,1057.9,234.1z"/>
	<path class="st5" d="M882.7,242.4h128.7c1.2,0,1.9,0.8,1.9,1.9c0,1.2-0.8,1.9-1.9,1.9H882.7c-1.2,0-1.9-0.8-1.9-1.9
		C880.8,243.2,881.8,242.4,882.7,242.4z"/>
	<path class="st5" d="M882.7,254.4H994c1.2,0,1.9,0.8,1.9,1.9s-0.8,1.9-1.9,1.9H882.7c-1.2,0-1.9-0.8-1.9-1.9
		S881.8,254.4,882.7,254.4z"/>
	<path class="st4" d="M882.7,266.6h22.9c1.2,0,1.9,0.8,1.9,1.9s-0.8,1.9-1.9,1.9h-22.9c-1.2,0-1.9-0.8-1.9-1.9
		S881.8,266.6,882.7,266.6z"/>
	<path class="st5" d="M921.7,266.6h83.9c1.2,0,1.9,0.8,1.9,1.9s-0.8,1.9-1.9,1.9h-83.9c-1.2,0-1.9-0.8-1.9-1.9
		S920.5,266.6,921.7,266.6z"/>
	<path class="st5" d="M1057.9,161.6H968c-1.2,0-1.9-0.8-1.9-1.9c0-1.2,0.8-1.9,1.9-1.9h89.9c1.2,0,1.9,0.8,1.9,1.9
		C1059.8,160.8,1058.9,161.6,1057.9,161.6z"/>
	<path class="st5" d="M1057.9,149.6H917.6c-1.2,0-1.9-0.8-1.9-1.9s0.8-1.9,1.9-1.9h140.3c1.2,0,1.9,0.8,1.9,1.9
		S1058.9,149.6,1057.9,149.6z"/>
	<path class="st5" d="M927.3,278.6h59.5c1.2,0,1.9,0.8,1.9,1.9s-0.8,1.9-1.9,1.9h-59.5c-1.2,0-1.9-0.8-1.9-1.9
		S926.3,278.6,927.3,278.6z"/>
	<path class="st4" d="M1003.6,278.6h54.3c1.2,0,1.9,0.8,1.9,1.9s-0.8,1.9-1.9,1.9h-54.3c-1.2,0-1.9-0.8-1.9-1.9
		S1002.7,278.6,1003.6,278.6z"/>
	<path class="st4" d="M948,161.6c-1.2,0-1.9-0.8-1.9-1.9c0-1.2,0.8-1.9,1.9-1.9h7c1.2,0,1.9,0.8,1.9,1.9c0,1.2-0.8,1.9-1.9,1.9H948z
		"/>
	<path class="st4" d="M1032.9,171.7c0-1.2,0.8-1.9,1.9-1.9h9.5c1.2,0,1.9,0.8,1.9,1.9s-0.8,1.9-1.9,1.9h-9.3
		C1033.9,173.6,1032.9,172.9,1032.9,171.7z"/>
	<path class="st4" d="M926.1,220.1c0-1.2,0.8-1.9,1.9-1.9h10.3c1.2,0,1.9,0.8,1.9,1.9s-0.8,1.9-1.9,1.9h-10.3
		C927.1,222.1,926.1,221.3,926.1,220.1z"/>
	<path class="st4" d="M892.6,210.1c-1.2,0-1.9-0.8-1.9-1.9c0-1.2,0.8-1.9,1.9-1.9h8.3c1.2,0,1.9,0.8,1.9,1.9c0,1.2-0.8,1.9-1.9,1.9
		H892.6z"/>
	<path class="st4" d="M1026.9,242.4c1.2,0,1.9,0.8,1.9,1.9c0,1.2-0.8,1.9-1.9,1.9h-8.3c-1.2,0-1.9-0.8-1.9-1.9
		c0-1.2,0.8-1.9,1.9-1.9H1026.9z"/>
</g>
<g id="freepik--speech-bubble--inject-2">
	<path class="st1" d="M1247.4,259.7h-64.1c-3.7,0-6.6,2.9-6.6,6.6v34.7c0,3.7,2.9,6.6,6.6,6.6h64.1c3.7,0,6.6-2.9,6.6-6.6v-34.7
		C1254,262.8,1251.1,259.7,1247.4,259.7z"/>
	<path class="st1" d="M1203.6,305.2c0,0-2.9,13.4-20,18.6c0,0,8.9-7.9,7-18.6H1203.6z"/>
	<path class="st5" d="M1243.9,267.2v7.9h0.8V268h1.9v-0.8H1243.9z"/>
	<path class="st5" d="M1242,271.3c0-2.5-1.4-4.1-3.3-4.1s-3.1,1.6-3.1,4.1c0,2.5,1.4,4.1,3.1,4.1
		C1240.6,275.4,1242,273.8,1242,271.3z M1236.4,271.3c0-2.1,1-3.3,2.3-3.3s2.3,1.2,2.3,3.3c0,2.1-1,3.3-2.3,3.3
		S1236.4,273.4,1236.4,271.3z"/>
	<path class="st5" d="M1234.4,271.3c0-2.5-1.4-4.1-3.1-4.1c-1.9,0-3.3,1.6-3.3,4.1c0,2.5,1.4,4.1,3.3,4.1S1234.4,273.8,1234.4,271.3
		z M1228.8,271.3c0-2.1,1-3.3,2.3-3.3c1.4,0,2.3,1.2,2.3,3.3c0,2.1-1,3.3-2.3,3.3C1229.8,274.6,1228.8,273.4,1228.8,271.3z"/>
	<path class="st5" d="M1224.5,267.2v7.9h0.8V268h1.9v-0.8H1224.5z"/>
	<path class="st5" d="M1220.5,267.2v7.9h0.8V268h1.9v-0.8H1220.5z"/>
	<path class="st5" d="M1218.5,271.3c0-2.5-1.4-4.1-3.3-4.1c-1.9,0-3.3,1.6-3.3,4.1c0,2.5,1.4,4.1,3.3,4.1
		C1217.2,275.4,1218.5,273.8,1218.5,271.3z M1212.9,271.3c0-2.1,1-3.3,2.3-3.3c1.4,0,2.3,1.2,2.3,3.3c0,2.1-1,3.3-2.3,3.3
		C1213.9,274.6,1212.9,273.4,1212.9,271.3z"/>
	<path class="st5" d="M1208.7,267.2v7.9h0.8V268h1.9v-0.8H1208.7z"/>
	<path class="st5" d="M1206.9,271.3c0-2.5-1.4-4.1-3.1-4.1c-1.7,0-3.3,1.6-3.3,4.1c0,2.5,1.4,4.1,3.3,4.1
		C1205.7,275.4,1206.9,273.8,1206.9,271.3z M1201.3,271.3c0-2.1,1-3.3,2.3-3.3s2.3,1.2,2.3,3.3c0,2.1-1,3.3-2.3,3.3
		S1201.3,273.4,1201.3,271.3z"/>
	<path class="st5" d="M1199.2,271.3c0-2.5-1.4-4.1-3.1-4.1s-3.3,1.6-3.3,4.1c0,2.5,1.4,4.1,3.3,4.1
		C1198,275.4,1199.2,273.8,1199.2,271.3z M1193.7,271.3c0-2.1,1-3.3,2.3-3.3c1.4,0,2.3,1.2,2.3,3.3c0,2.1-1,3.3-2.3,3.3
		C1194.7,274.6,1193.7,273.4,1193.7,271.3z"/>
	<path class="st5" d="M1189.5,267.2v7.9h0.8V268h1.9v-0.8H1189.5z"/>
	<path class="st5" d="M1185.4,267.2v7.9h0.8V268h1.9v-0.8H1185.4z"/>
	<path class="st5" d="M1246,282.9c0-2.5-1.4-4.1-3.3-4.1s-3.3,1.6-3.3,4.1c0,2.5,1.4,4.1,3.3,4.1S1246,285.4,1246,282.9z
		 M1240.6,282.9c0-2.1,1-3.3,2.3-3.3s2.3,1.2,2.3,3.3c0,2.1-1,3.3-2.3,3.3S1240.6,285,1240.6,282.9z"/>
	<path class="st5" d="M1238.5,282.9c0-2.5-1.4-4.1-3.3-4.1c-1.9,0-3.1,1.6-3.1,4.1c0,2.5,1.4,4.1,3.1,4.1
		C1237.1,287,1238.5,285.4,1238.5,282.9z M1232.9,282.9c0-2.1,1-3.3,2.3-3.3c1.4,0,2.3,1.2,2.3,3.3c0,2.1-1,3.3-2.3,3.3
		C1233.8,286.2,1232.9,285,1232.9,282.9L1232.9,282.9z"/>
	<path class="st5" d="M1228.8,278.8v7.9h0.8v-7.2h1.9v-0.8H1228.8z"/>
	<path class="st5" d="M1224.5,278.8v7.9h0.8v-7.2h1.9v-0.8H1224.5z"/>
	<path class="st5" d="M1222.6,282.9c0-2.5-1.4-4.1-3.3-4.1s-3.3,1.6-3.3,4.1c0,2.5,1.4,4.1,3.3,4.1S1222.6,285.4,1222.6,282.9z
		 M1217.2,282.9c0-2.1,1-3.3,2.3-3.3c1.4,0,2.3,1.2,2.3,3.3c0,2.1-1,3.3-2.3,3.3C1218.1,286.2,1217.2,285,1217.2,282.9z"/>
	<path class="st5" d="M1212.9,278.8v7.9h0.8v-7.2h1.9v-0.8H1212.9z"/>
	<path class="st5" d="M1211,282.9c0-2.5-1.4-4.1-3.3-4.1s-3.3,1.6-3.3,4.1c0,2.5,1.4,4.1,3.3,4.1S1211,285.4,1211,282.9z
		 M1205.4,282.9c0-2.1,1-3.3,2.3-3.3s2.3,1.2,2.3,3.3c0,2.1-1,3.3-2.3,3.3S1205.4,285,1205.4,282.9z"/>
	<path class="st5" d="M1203.4,282.9c0-2.5-1.4-4.1-3.3-4.1c-1.9,0-3.1,1.6-3.1,4.1c0,2.5,1.4,4.1,3.1,4.1S1203.4,285.4,1203.4,282.9
		z M1197.8,282.9c0-2.1,1-3.3,2.3-3.3s2.3,1.2,2.3,3.3c0,2.1-1,3.3-2.3,3.3S1197.8,285,1197.8,282.9L1197.8,282.9z"/>
	<path class="st5" d="M1193.5,278.8v7.9h0.8v-7.2h1.9v-0.8H1193.5z"/>
	<path class="st5" d="M1189.5,278.8v7.9h0.8v-7.2h1.9v-0.8H1189.5z"/>
	<path class="st5" d="M1185.4,278.8v7.9h0.8v-7.2h1.9v-0.8H1185.4z"/>
	<path class="st5" d="M1243.9,290.5v7.9h0.8v-7.2h1.9v-0.8H1243.9z"/>
	<path class="st5" d="M1239.8,290.5v7.9h0.8v-7.2h1.9v-0.8H1239.8z"/>
	<path class="st5" d="M1237.9,294.5c0-2.5-1.4-4.1-3.1-4.1c-1.9,0-3.3,1.6-3.3,4.1c0,2.5,1.4,4.1,3.3,4.1S1237.9,297.1,1237.9,294.5
		z M1232.3,294.5c0-2.1,1-3.3,2.3-3.3c1.4,0,2.3,1.2,2.3,3.3c0,2.1-1,3.3-2.3,3.3C1233.3,297.8,1232.3,296.7,1232.3,294.5z"/>
	<path class="st5" d="M1230.2,294.5c0-2.5-1.4-4.1-3.1-4.1c-1.9,0-3.3,1.6-3.3,4.1c0,2.5,1.4,4.1,3.3,4.1S1230.2,297.1,1230.2,294.5
		z M1224.7,294.5c0-2.1,1-3.3,2.3-3.3s2.3,1.2,2.3,3.3c0,2.1-1,3.3-2.3,3.3S1224.7,296.7,1224.7,294.5z"/>
	<path class="st5" d="M1220.5,290.5v7.9h0.8v-7.2h1.9v-0.8H1220.5z"/>
	<path class="st5" d="M1216.4,290.5v7.9h0.8v-7.2h1.9v-0.8H1216.4z"/>
	<path class="st5" d="M1214.5,294.5c0-2.5-1.4-4.1-3.3-4.1s-3.3,1.6-3.3,4.1c0,2.5,1.4,4.1,3.3,4.1S1214.5,297.1,1214.5,294.5z
		 M1208.8,294.5c0-2.1,1-3.3,2.3-3.3c1.4,0,2.3,1.2,2.3,3.3c0,2.1-1,3.3-2.3,3.3C1209.8,297.8,1208.8,296.7,1208.8,294.5z"/>
	<path class="st5" d="M1206.9,294.5c0-2.5-1.4-4.1-3.3-4.1s-3.1,1.6-3.1,4.1c0,2.5,1.4,4.1,3.1,4.1S1206.9,297.1,1206.9,294.5z
		 M1201.3,294.5c0-2.1,1-3.3,2.3-3.3s2.3,1.2,2.3,3.3c0,2.1-1,3.3-2.3,3.3S1201.3,296.7,1201.3,294.5z"/>
	<path class="st5" d="M1197,290.5v7.9h0.8v-7.2h1.9v-0.8H1197z"/>
	<path class="st5" d="M1195.1,294.5c0-2.5-1.4-4.1-3.1-4.1s-3.3,1.6-3.3,4.1c0,2.5,1.4,4.1,3.3,4.1S1195.1,297.1,1195.1,294.5z
		 M1189.5,294.5c0-2.1,1-3.3,2.3-3.3c1.4,0,2.3,1.2,2.3,3.3c0,2.1-1,3.3-2.3,3.3C1190.4,297.8,1189.5,296.7,1189.5,294.5z"/>
	<path class="st5" d="M1185.4,290.5v7.9h0.8v-7.2h1.9v-0.8H1185.4z"/>
</g>
<g id="freepik--Character--inject-2">
	<path class="st3" d="M1288.1,705.7l-53.3-5.2v-74.8h-21.1v74.8l-53.5,5.2c-5.2,0.6-9.3,5-9.3,10.3v7.9h146.5V716
		C1297.4,710.6,1293.3,706.1,1288.1,705.7z"/>
	<path class="st7" d="M1288.1,705.7l-53.3-5.2v-74.8h-21.1v74.8l-53.5,5.2c-5.2,0.6-9.3,5-9.3,10.3v7.9h146.5V716
		C1297.4,710.6,1293.3,706.1,1288.1,705.7z"/>
	<circle class="st3" cx="1156.3" cy="734" r="13.8"/>
	<circle class="st3" cx="1291.8" cy="734" r="13.8"/>
	<path class="st3" d="M1218,641.6h12.4c4.5,0,7.9-3.5,7.9-7.9l0,0v-58.7l0,0h-28.5l0,0v58.7C1210,638.1,1213.5,641.6,1218,641.6
		L1218,641.6z"/>
	<path class="st8" d="M1218,641.6h12.4c4.5,0,7.9-3.5,7.9-7.9l0,0v-58.7l0,0h-28.5l0,0v58.7C1210,638.1,1213.5,641.6,1218,641.6
		L1218,641.6z"/>
	<path class="st3" d="M1274.7,457.9c0,0,4.1,99.8-23.8,117h31.8c0,0,24.6-34.1,17.6-117H1274.7z"/>
	<path class="st8" d="M1274.7,457.9c0,0,4.1,99.8-23.8,117h31.8c0,0,24.6-34.1,17.6-117H1274.7z"/>
	<path class="st3" d="M1283.8,561H1161c-5.4,0-9.7,4.3-9.7,9.7v12l0,0h142.2l0,0v-12C1293.5,565.2,1289.1,561,1283.8,561z"/>
	<path class="st3" d="M1295.5,571.8h-146.3c-2.1,0-3.9,1.7-3.9,3.9v3.1c0,2.1,1.7,3.9,3.9,3.9h146.3c2.1,0,3.9-1.7,3.9-3.9v-3.1
		C1299.3,573.6,1297.6,571.8,1295.5,571.8z"/>
	<path class="st2" d="M1295.5,571.8h-146.3c-2.1,0-3.9,1.7-3.9,3.9v3.1c0,2.1,1.7,3.9,3.9,3.9h146.3c2.1,0,3.9-1.7,3.9-3.9v-3.1
		C1299.3,573.6,1297.6,571.8,1295.5,571.8z"/>
	<path class="st3" d="M1258.4,478h48.4c15.7,0,28.3-12.6,28.3-28.3v-17.4c0-15.7-12.6-28.3-28.3-28.3h-48.2
		c-15.7,0-28.3,12.6-28.3,28.3v17.4C1230.2,465.4,1242.9,478,1258.4,478z"/>
	<g id="freepik--group--inject-2">
		<polygon class="st9" points="1168.2,733.8 1152.7,731.7 1150.5,694.9 1165.8,697 		"/>
		<polygon class="st6" points="1165.8,697 1150.5,694.9 1151.7,716 1167.2,717.3 		"/>
		<path class="st1" d="M1167.6,517.9l3.7-23.6l86.6-5.2c0,0,9.3,49,2.1,62.2c-12.6,23.3-80.6,11.6-100.6,14
			c11.8,48.6,10.7,143.8,10.7,143.8l-28.5,2.1c0,0-21.9-102.5-26.4-151.1C1112.4,527.2,1139.7,528,1167.6,517.9z"/>
		<polygon class="st1" points="1173.4,710.4 1139.3,712.7 1136.4,698 1174,696.2 		"/>
		<polygon class="st9" points="1132.5,720 1117,721.2 1107.1,685.7 1122.8,684.6 		"/>
		<path class="st1" d="M1114.9,721.8L1114.9,721.8L1114.9,721.8c-1.4,0.8-2.7,1.4-4.1,1.7c-1,0.4-2.1,0.4-3.1,0
			c-0.6-0.4-1-1.2-1-1.9c0-0.4,0.2-1,0.6-1.2c1.4-0.6,2.9-0.6,4.5-0.2c-1.2-0.8-1.9-1.9-2.3-3.1c0-0.6,0.4-1.2,1-1.4s1.2-0.2,1.6,0
			c1.9,1,2.7,5.4,2.7,5.6l0,0h0.2C1114.9,721.6,1114.9,721.8,1114.9,721.8z M1113.7,721l0.4,0.2c-0.4-1.4-1.2-3.9-2.3-4.5
			c-0.2-0.2-0.6-0.2-0.8-0.2h-0.2c-0.6,0.2-0.6,0.6-0.6,0.8C1110.2,718.5,1112.2,720.2,1113.7,721z M1113.7,721.8
			c-2.1-0.6-4.8-1.2-5.8-0.6c-0.2,0.2-0.2,0.4-0.2,0.6c0,0.4,0.2,1,0.6,1.2C1109.1,723.5,1111,723.1,1113.7,721.8L1113.7,721.8z"/>
		<polygon class="st6" points="1122.8,684.6 1107.1,685.7 1112.7,705.9 1128,704.2 		"/>
		<path class="st1" d="M1101.9,703.6l27.3-7.9c0,0-16.3-92.2-32.9-124.2c1.2-0.4,2.9-1,4.8-1.6c3.7-1.2,8.5-2.5,14.3-4.1
			c39.7-11,120.3-31.8,120.3-31.8l-36.8-34.3c0,0-146.7,22.3-149.8,61C1048,579.2,1101.9,703.6,1101.9,703.6z"/>
		<polygon class="st1" points="1132.9,696 1099.9,705.3 1093.9,691.6 1130.4,682.1 		"/>
		<path class="st6" d="M1101.3,569.7c3.7-1.2,8.5-2.5,14.3-4.1c-1.2-9.3-1.2-20.2,3.3-25.6c8.9-10.9,32-17.4,45.1-19.6
			c11-1.9,47.9-5.8,47.9-5.8s-47.9-4.7-96.9,9.7C1090.8,531.3,1095.7,555,1101.3,569.7z"/>
		<polygon class="st7" points="1173.4,710.4 1139.3,712.7 1136.4,698 1174,696.2 		"/>
		<polygon class="st7" points="1132.9,696 1099.9,705.3 1093.9,691.6 1130.4,682.1 		"/>
		<path class="st3" d="M1115.5,719.7l16.9-4.7c0.6-0.2,1.2,0.2,1.4,0.8l0,0l4.5,13.2c0.4,1.6-0.4,2.9-1.9,3.3l0,0
			c-5.8,1.6-8.7,1.9-16.3,4.1c-6.6,2.1-13.2,3.7-20,4.8c-6.6,0.8-7-5.6-4.5-6.6c6.4-2.1,14-8.7,17.2-13.2
			C1113.7,720.4,1114.5,719.9,1115.5,719.7z"/>
		<path class="st1" d="M1151.1,731.7h-0.4l-0.4,0.2l0,0h-0.2c-1.4,0.4-2.7,0.6-4.1,0.8c-1,0.2-2.1,0-2.9-0.6
			c-0.6-0.6-0.8-1.2-0.6-1.9c0-0.4,0.4-1,0.8-1.2c1.6-0.2,3.1,0,4.3,0.8c-1-1-1.6-2.1-1.6-3.5c0.2-0.6,0.6-1.2,1.4-1.2
			c0.6-0.2,1.2,0,1.7,0.4C1150.9,727,1151.3,731.3,1151.1,731.7L1151.1,731.7L1151.1,731.7z M1149.4,730.7l0.4,0.2
			c0-1.7-0.4-3.3-1.4-4.8c-0.2-0.2-0.6-0.4-0.8-0.2h-0.2c-0.6,0-0.6,0.4-0.6,0.6C1147.2,728.2,1148,729.7,1149.4,730.7z
			 M1149.2,731.5c-1.9-1-4.5-2.1-5.6-1.7c-0.2,0-0.4,0.4-0.4,0.6c-0.2,0.4,0,1,0.4,1.4C1144.5,732.3,1146.5,732.3,1149.2,731.5
			L1149.2,731.5z"/>
		<path class="st3" d="M1151.5,729.7l17.4-1.2c0.6,0,1.2,0.4,1.2,1l0,0l1.7,13.8c0.2,1.6-1,2.9-2.5,2.9c-6,0.2-8.9,0-16.7,0.6
			c-6.8,0.8-13.6,1-20.5,0.6c-6.6-0.6-5.6-7-2.9-7.4c6.6-0.8,15.5-5.6,19.6-9.3C1149.6,730.1,1150.5,729.7,1151.5,729.7z"/>
		<path class="st3" d="M1132.1,430c0,0-4.8,26.5-13.8,31.6c-8.9,5-69.6-31.2-69.6-31.2l5-10.3c0,0,51,13.8,51.3,13.8
			c0.4,0,1.9-11.6,1.9-11.6L1132.1,430z"/>
		<path class="st1" d="M1113.1,388.3c-4.1,5-9.7,41.7-9.7,41.7l29.8,7l6.4-18.6L1113.1,388.3z"/>
		<path class="st10" d="M1113.1,388.3c-4.1,5-9.7,41.7-9.7,41.7l29.8,7l6.4-18.6L1113.1,388.3z"/>
		<path class="st1" d="M1266.4,519.7L1166.2,503c0,0-6.2-59.5-52.9-114.7c0,0,16.3-35.3,73.8-30.4
			C1244.7,362.7,1266.4,519.7,1266.4,519.7z"/>
		<path class="st2" d="M1266.4,519.7L1166.2,503c0,0-6.2-59.5-52.9-114.7c0,0,16.3-35.3,73.8-30.4
			C1244.7,362.7,1266.4,519.7,1266.4,519.7z"/>
		<path class="st9" d="M1188.3,408.5c0,0,1,27.5-2.1,29.1c-3.1,1.6-61-19.6-70.1-21.1c-9.1-1.6-30.2,6.6-30.2,6.6l-1.9,12.6
			c0,0,18.8-0.4,29.3-5.4c0,0,67.6,40.5,82.2,38.2c14.5-2.3,19.8-57,19.8-57L1188.3,408.5z"/>
		<path class="st3" d="M1188.3,418.4c0,0-0.2,16.3-3.5,17.4c-3.3,1.2-53.5-16.5-53.5-16.5l-7.9,18.4c0,0,63.4,40.9,75.6,30.8
			s15.3-46.1,15.3-46.1L1188.3,418.4z"/>
		<path class="st1" d="M1197.4,364.1c-18-1.9-11.4,61.8-11.4,61.8l30.2,4.3C1216.2,430.2,1229.2,367.4,1197.4,364.1z"/>
		<path class="st10" d="M1197.4,364.1c-18-1.9-11.4,61.8-11.4,61.8l30.2,4.3C1216.2,430.2,1229.2,367.4,1197.4,364.1z"/>
		<path class="st3" d="M1168.7,359.4c0,0,0.6,28.1-16.7,30.8c-17.2,2.7-19-20-19-20S1144.9,357.9,1168.7,359.4z"/>
		<path class="st9" d="M1125.7,375c2.9-1,6.2-1,9.3,0c1.4,6,6.8,10.3,12.8,10.3c1.6,0,2.9,0,4.5-0.2c14.9-2.1,13.4-24.4,13.4-24.4
			c-5.4,0.4-10.9-1-15.7-3.7l0,0c-4.1-2.3-7.6-5.4-10.3-9.1L1125.7,375z"/>
		<path class="st6" d="M1125.7,375c2.9-1,6.2-1,9.3,0c1.4,6,6.8,10.3,12.8,10.3c3.9-9.5,3.3-20.5,2.1-28.3l0,0
			c-4.1-2.3-7.6-5.4-10.3-9.1L1125.7,375z"/>
		<path class="st3" d="M1114.1,331.5c6.6,4.5,3.7,12.2-11.4,24.2c-6.2-7.9-7.2-23.4-2.3-27.3
			C1105.2,324.6,1108.3,327.7,1114.1,331.5z"/>
		<path class="st9" d="M1142.8,344.1c-0.8,16.3-0.4,26-8.3,34.5c-12.2,12.8-32.4,5.6-36.6-10.5c-3.7-14.5-1.9-38.8,14-45.5
			c11.2-4.8,24.4,0.4,29.3,11.6C1142.4,337.2,1143,340.7,1142.8,344.1z"/>
		<path class="st3" d="M1118.6,349c0,1.4-0.8,2.3-1.6,2.5c-0.8,0.2-1.6-1-1.6-2.3s0.6-2.5,1.6-2.5
			C1118,346.7,1118.4,347.6,1118.6,349z"/>
		<path class="st3" d="M1103.4,349.2c0,1.4-0.6,2.5-1.6,2.5c-1,0-1.6-1-1.6-2.3c0-1.4,0.8-2.3,1.6-2.5
			C1102.7,346.7,1103.4,347.8,1103.4,349.2z"/>
		<path class="st11" d="M1108.3,349.8c-1.6,4.1-3.5,7.9-6.2,11.4c1.9,1.4,4.3,1.7,6.4,1.2L1108.3,349.8z"/>
		<path class="st3" d="M1096.7,340.5c0.2,0.2,0.4,0.4,0.8,0.4c1.9-0.2,3.9,0.6,5.2,2.1c0.2,0.4,0.8,0.4,1.2,0.2
			c0.4-0.2,0.4-0.8,0.2-1l0,0c-1.6-1.9-4.1-2.9-6.6-2.7c-0.4,0-0.8,0.4-0.8,0.8l0,0l0,0C1096.7,340.3,1096.7,340.5,1096.7,340.5z"/>
		<path class="st3" d="M1112.2,343.4c0.2,0,0.6,0,0.8-0.2c1.4-1.6,3.3-2.1,5.2-1.9c0.4,0,0.8-0.2,1-0.6c0-0.4-0.2-0.8-0.6-1
			c-2.5-0.4-5,0.6-6.8,2.3c-0.2,0.4-0.2,0.8,0,1.2l0,0L1112.2,343.4z"/>
		<path class="st3" d="M1136,329.8c-7.6,2.7-6.6,10.9,5.2,26.4c7.9-6.2,12.6-20.9,8.9-26S1142.6,327.3,1136,329.8z"/>
		<path class="st9" d="M1150.7,356.9c-1,4.1-3.7,7.4-7.2,9.5c-4.7,2.7-8.3-1.2-8.1-6.4c0.2-4.7,2.9-11.6,8.1-12.2
			C1148.8,347.2,1152.1,352.1,1150.7,356.9z"/>
		<path class="st12" d="M1120.9,365.1c0,0-2.9,5.4-10.7,5"/>
		<path class="st3" d="M1134.2,335.4c0,0-6.4,0.4-9.5,4.5c-1.6-2.1-2.1-4.8-1.6-7.6c0,0-7.8,1-11.2,6.4c-1-1.9-1.4-4.1-1.2-6.4
			c-1.6,1.7-2.3,4.1-2.3,6.4c0,0-6-3.7-5.2-7.4c-1.6,1.7-2.5,3.9-3.1,6.2c0,0-3.9-1.4-3.1-8.3c-1.4,1.4-2.3,3.1-2.7,5
			c0,0-5-14.3,14.1-22.5c19.2-8.1,41.3,1.6,40.9,17.4C1149,345.1,1134.2,335.4,1134.2,335.4z"/>
		<path class="st3" d="M978.7,430v5c0,1.6,2.7,2.7,4.1,2.7h119.7c1.6,0,4.1-1.2,4.1-2.7v-5H978.7z"/>
		<path class="st2" d="M978.7,430v5c0,1.6,2.7,2.7,4.1,2.7h119.7c1.6,0,4.1-1.2,4.1-2.7v-5H978.7z"/>
		<path class="st6" d="M978.7,430v5c0,1.6,2.7,2.7,4.1,2.7h79.1c1.6,0,4.1-1.2,4.1-2.7v-5H978.7z"/>
		<path class="st3" d="M959.5,367l14.3,64.9c0.6,2.1,2.3,3.7,4.7,3.9h77.9c1.9-0.2,3.3-1.7,3.1-3.7c0-0.2,0-0.4-0.2-0.6l-14.3-64.1
			c-0.6-1.9-2.5-3.3-4.7-3.1h-77.9C960.2,364.1,959.1,364.9,959.5,367z"/>
		<path class="st2" d="M959.5,367l14.3,64.9c0.6,2.1,2.3,3.7,4.7,3.9h77.9c1.9-0.2,3.3-1.7,3.1-3.7c0-0.2,0-0.4-0.2-0.6l-14.3-64.1
			c-0.6-1.9-2.5-3.3-4.7-3.1h-77.9C960.2,364.1,959.1,364.9,959.5,367z"/>
		<path class="st10" d="M959.5,367l14.3,64.9c0.6,2.1,2.3,3.7,4.7,3.9h75.2c1.9-0.2,3.3-1.7,3.1-3.7c0-0.2,0-0.4-0.2-0.6l-14.3-64.1
			c-0.6-1.9-2.5-3.3-4.7-3.1h-75.2C960.2,364.1,959.1,364.9,959.5,367z"/>
		<path class="st6" d="M1005.2,408.5c-3.7,0-7.4-3.9-8.3-8.7s1.2-8.7,4.8-8.7c0.6,0,1.4,0.2,1.9,0.4c0.8,3.5,2.9,6.4,6.2,7.9
			c0,0.2,0,0.2,0.2,0.4C1011.2,404.6,1008.9,408.5,1005.2,408.5z"/>
	</g>
	<polygon class="st3" points="910.1,384.4 891.8,402.5 885.6,437.7 923,437.7 921.5,433.9 901,430 899.2,408.5 912.8,405.4 	"/>
	<polygon class="st2" points="885.6,437.7 923,437.7 921.5,433.9 901,430 899.2,408.5 901,408.1 912.8,405.4 910.1,384.4 
		891.8,402.5 	"/>
	<polygon class="st6" points="894.4,399.9 901,408.1 912.8,405.4 910.1,384.4 	"/>
	<path class="st3" d="M912,414.9h20.9c0.8,0,1.4-0.6,1.4-1.4v-0.2l-12-89.3c-0.2-1-1-1.7-1.9-1.7h-20.9c-0.8,0-1.4,0.6-1.4,1.4
		c0,0.2,0,0.2,0,0.4l12.2,89.5C910.4,414.1,911.2,414.9,912,414.9z"/>
	<path class="st2" d="M912,414.9h20.9c0.8,0,1.4-0.6,1.4-1.4v-0.2l-12-89.3c-0.2-1-1-1.7-1.9-1.7h-20.9c-0.8,0-1.4,0.6-1.4,1.4
		c0,0.2,0,0.2,0,0.4l12.2,89.5C910.4,414.1,911.2,414.9,912,414.9z"/>
	<path class="st10" d="M917.8,414.9h15.1c0.8,0,1.4-0.6,1.4-1.4v-0.2l-12-89.3c-0.2-1-1-1.7-1.9-1.7h-15.1c-0.8,0-1.4,0.6-1.4,1.4
		c0,0.2,0,0.2,0,0.4l12.2,89.5C916.3,414.1,917,414.9,917.8,414.9z"/>
	<polygon class="st1" points="917,412 932.9,412 921.3,325.2 905.2,325.2 	"/>
	<polygon class="st3" points="1055,747.8 1066.8,747.8 1088.1,450.7 1072.4,450.7 	"/>
	<polygon class="st10" points="1055,747.8 1066.8,747.8 1087.2,465.4 1088.1,451.3 1072.4,451.3 1071.7,465.4 	"/>
	<polygon class="st6" points="1071.7,464.9 1087.2,464.9 1088.1,451.3 1072.4,451.3 	"/>
	<polygon class="st3" points="967.8,747.8 979.8,747.8 981.8,450.7 965.9,450.7 	"/>
	<polygon class="st4" points="965.9,451.3 966.3,499.2 967.8,747.8 979.8,747.8 981.4,499.2 981.8,451.3 	"/>
	<polygon class="st6" points="965.9,451.3 966.3,499.7 981.4,499.7 981.8,451.3 	"/>
	<polygon class="st3" points="841.9,747.8 853.7,747.8 875,450.7 859.3,450.7 	"/>
	<polygon class="st4" points="841.9,747.8 853.7,747.8 874,465.4 875,451.3 859.3,451.3 858.5,465.4 	"/>
	<polygon class="st6" points="858.5,464.9 874,464.9 875,451.3 859.3,451.3 	"/>
	<polygon class="st3" points="1190.8,747.8 1202.6,747.8 1185.2,450.7 1169.5,450.7 	"/>
	<polygon class="st4" points="1169.5,451.3 1170.5,465.4 1190.8,747.8 1202.6,747.8 1186,465.4 1185.2,451.3 	"/>
	<polygon class="st6" points="1185.2,451.3 1169.5,451.3 1170.5,464.9 1186,464.9 	"/>
	<path class="st1" d="M1197.8,443.3H846.9l0,0V454c0,2.3,1.9,4.3,4.3,4.3l0,0h342.4c2.3,0,4.3-1.9,4.3-4.3l0,0V443.3L1197.8,443.3z"
		/>
	<rect x="846.9" y="443.3" class="st6" width="350.9" height="7.4"/>
	<path class="st1" d="M839.5,445.3H1205c2.3,0,4.3-1.9,4.3-4.3l0,0c0-2.3-1.9-4.3-4.3-4.3l0,0H839.3c-2.3,0-4.3,1.9-4.3,4.3l0,0
		C835.3,443.3,837.2,445.3,839.5,445.3L839.5,445.3z"/>
</g>
<g id="freepik--Screens--inject-2_1_">
	<path class="st1" d="M515,443.1H307.9c-2.5,0-4.5,1.9-4.5,4.5v169c0,2.5,1.9,4.5,4.5,4.5H515c2.5,0,4.5-1.9,4.5-4.5v-169
		C519.4,445.2,517.3,443.1,515,443.1z"/>
	<path class="st2" d="M303.2,447.5v169c0,2.5,1.9,4.5,4.5,4.5l0,0H515c2.5,0,4.5-1.9,4.5-4.5l0,0v-169c0-2.5-1.9-4.5-4.5-4.5H307.7
		C305.1,443.2,303.2,445.2,303.2,447.5z"/>
	<rect x="307.9" y="461.3" class="st3" width="206.9" height="154.6"/>
	<path class="st4" d="M497.9,480.5c-0.2,0.2-0.6,0.2-1,0.2s-1-0.2-1.2-0.6c-0.4-0.6-0.4-1.6,0.2-1.9l0,0l4.3-3.1l-4.3-3.1
		c-0.6-0.4-0.8-1.4-0.4-2.1c0.4-0.6,1.4-0.8,2.1-0.4l5.8,4.3c0.6,0.6,0.8,1.4,0.2,2.1c0,0.2-0.2,0.2-0.2,0.2L497.9,480.5z"/>
	<path class="st4" d="M478.4,475l4.3,3.1c0.6,0.4,0.8,1.4,0.4,1.9c-0.2,0.4-0.8,0.6-1.2,0.6s-0.6-0.2-1-0.2l-5.8-4.3
		c-0.6-0.4-0.8-1.4-0.4-1.9c0-0.2,0.2-0.2,0.4-0.4l5.8-4.3c0.6-0.6,1.6-0.4,2.1,0.2c0.6,0.6,0.4,1.6-0.2,2.1l-0.2,0.2L478.4,475z"/>
	<path class="st4" d="M491.4,480.6c-0.2,0-0.4,0-0.6,0c-0.6,0-1.2-0.4-1.4-1l-3.1-8.7c-0.2-0.8,0.2-1.6,1-1.9c0.8-0.2,1.6,0.2,1.9,1
		l0,0l3.1,8.7C492.7,479.5,492.3,480.3,491.4,480.6C491.5,480.6,491.5,480.6,491.4,480.6z"/>
	<path class="st4" d="M467.1,481.2h-7.8c-1.2,0-1.9-0.8-1.9-1.9c0-1.2,0.8-1.9,1.9-1.9h7.8c1.2,0,1.9,0.8,1.9,1.9
		C469.1,480.5,468.3,481.2,467.1,481.2z"/>
	<path class="st4" d="M343.1,590.9h119.9c1.2,0,1.9,0.8,1.9,1.9s-0.8,1.9-1.9,1.9H343.1c-1.2,0-1.9-0.8-1.9-1.9
		S342,590.9,343.1,590.9z"/>
	<path class="st5" d="M316.8,590.9h14.7c1.2,0,1.9,0.8,1.9,1.9s-0.8,1.9-1.9,1.9h-14.7c-1.2,0-1.9-0.8-1.9-1.9
		S315.6,590.9,316.8,590.9z"/>
	<path class="st5" d="M426.8,582.6h-48.2c-1.2,0-1.9-0.8-1.9-1.9s0.8-1.9,1.9-1.9h48.2c1.2,0,1.9,0.8,1.9,1.9S428,582.6,426.8,582.6
		z"/>
	<path class="st4" d="M343.1,582.6c-1.2,0-1.9-0.8-1.9-1.9s0.8-1.9,1.9-1.9h27.3c1.2,0,1.9,0.8,1.9,1.9s-0.8,1.9-1.9,1.9H343.1z"/>
	<path class="st4" d="M316.8,578.7h14.5c1.2,0,1.9,0.8,1.9,1.9s-0.8,1.9-1.9,1.9h-14.5c-1.2,0-1.9-0.8-1.9-1.9
		S315.6,578.7,316.8,578.7z"/>
	<path class="st5" d="M342.9,566.3h64.7c1.2,0,1.9,0.8,1.9,1.9s-0.8,1.9-1.9,1.9h-64.5c-1.2,0-1.9-0.8-1.9-1.9
		S342,566.3,342.9,566.3L342.9,566.3z"/>
	<path class="st5" d="M316.8,566.3h14.7c1.2,0,1.9,0.8,1.9,1.9s-0.8,1.9-1.9,1.9h-14.7c-1.2,0-1.9-0.8-1.9-1.9
		S315.6,566.3,316.8,566.3z"/>
	<path class="st4" d="M378.4,556c0-1.2,0.8-1.9,1.9-1.9h65.9c1.2,0,1.9,0.8,1.9,1.9s-0.8,1.9-1.9,1.9h-65.9
		C379.4,558,378.4,557.2,378.4,556z"/>
	<path class="st4" d="M368.5,554.1c1.2,0,1.9,0.8,1.9,1.9s-0.8,1.9-1.9,1.9h-25.6c-1.2,0-1.9-0.8-1.9-1.9s0.8-1.9,1.9-1.9H368.5z"/>
	<path class="st5" d="M316.8,554.1h14.5c1.2,0,1.9,0.8,1.9,1.9s-0.8,1.9-1.9,1.9h-14.5c-1.2,0-1.9-0.8-1.9-1.9
		S315.6,554.1,316.8,554.1z"/>
	<path class="st5" d="M364.8,545.7h-12.6c-1.2,0-1.9-0.8-1.9-1.9s0.8-1.9,1.9-1.9h12.6c1.2,0,1.9,0.8,1.9,1.9S366,545.7,364.8,545.7
		z"/>
	<path class="st4" d="M343.1,545.7h-26.4c-1.2,0-1.9-0.8-1.9-1.9s0.8-1.9,1.9-1.9h26.4c1.2,0,1.9,0.8,1.9,1.9
		S344.3,545.7,343.1,545.7z"/>
	<path class="st5" d="M435.9,531.4c0-1.2,0.8-1.9,1.9-1.9h66.7c1.2,0,1.9,0.8,1.9,1.9s-0.8,1.9-1.9,1.9h-66.5
		C436.9,533.5,435.9,532.6,435.9,531.4C435.9,531.6,435.9,531.6,435.9,531.4z"/>
	<path class="st4" d="M427.4,533.3h-19.6c-1.2,0-1.9-0.8-1.9-1.9s0.8-1.9,1.9-1.9h19.6c1.2,0,1.9,0.8,1.9,1.9
		S428.4,533.3,427.4,533.3z"/>
	<path class="st4" d="M504.3,521.1h-25.2c-1.2,0-1.9-0.8-1.9-1.9c0-1.2,0.8-1.9,1.9-1.9h25.2c1.2,0,1.9,0.8,1.9,1.9
		C506.3,520.4,505.5,521.1,504.3,521.1z"/>
	<path class="st5" d="M386.5,519.2c0-1.2,0.8-1.9,1.9-1.9h78.3c1.2,0,1.9,0.8,1.9,1.9c0,1.2-0.8,1.9-1.9,1.9h-78.3
		C387.3,521.1,386.5,520.4,386.5,519.2z"/>
	<path class="st5" d="M504.3,508.9h-45.5c-1.2,0-1.9-0.8-1.9-1.9s0.8-1.9,1.9-1.9h45.5c1.2,0,1.9,0.8,1.9,1.9
		S505.5,508.9,504.3,508.9z"/>
	<path class="st4" d="M450.1,507c0,1.2-0.8,1.9-1.9,1.9h-11.2c-1.2,0-1.9-0.8-1.9-1.9s0.8-1.9,1.9-1.9h11.2
		C449.3,505.1,450.1,505.8,450.1,507z"/>
	<path class="st4" d="M504.3,496.5h-53.9c-1.2,0-1.9-0.8-1.9-1.9s0.8-1.9,1.9-1.9h53.9c1.2,0,1.9,0.8,1.9,1.9
		S505.5,496.5,504.3,496.5z"/>
	<path class="st5" d="M410.4,496.5h-41.3c-1.2,0-1.9-0.8-1.9-1.9s0.8-1.9,1.9-1.9h41.3c1.2,0,1.9,0.8,1.9,1.9
		S411.5,496.5,410.4,496.5z"/>
	<path class="st6" d="M395.6,443.1v48.2c0,5.4,4.3,9.7,9.7,9.7h114.1v-53.5c0-2.5-1.9-4.5-4.5-4.5H395.6z"/>
	<path class="st1" d="M644.6,308H410.4c-2.5,0-4.5,1.9-4.5,4.5v169c0,2.5,1.9,4.5,4.5,4.5h234.3c2.5,0,4.5-1.9,4.5-4.5v-169
		C649.1,309.9,647.1,308,644.6,308z"/>
	<path class="st2" d="M405.9,312.5v169c0,2.5,1.9,4.5,4.5,4.5l0,0h234.3c2.5,0,4.5-1.9,4.5-4.5l0,0v-169c0-2.5-1.9-4.5-4.5-4.5l0,0
		H410.2C407.8,308,405.9,309.9,405.9,312.5z"/>
	<rect x="410.4" y="326" class="st3" width="234.1" height="154.6"/>
	<path class="st5" d="M627.6,345.2c-0.2,0.2-0.6,0.2-1,0.2c-0.8,0-1.4-0.6-1.4-1.6c0-0.4,0.2-1,0.6-1.2l4.3-3.1l-4.3-3.1
		c-0.6-0.4-0.8-1.4-0.4-2.1c0.4-0.6,1.4-0.8,2.1-0.4l0,0l5.8,4.3c0.6,0.6,0.8,1.4,0.2,2.1c0,0.2-0.2,0.2-0.2,0.2L627.6,345.2z"/>
	<path class="st5" d="M608,339.8l4.3,3.1c0.6,0.4,0.8,1.4,0.4,1.9c-0.2,0.4-0.8,0.6-1.2,0.6c-0.4,0-0.6-0.2-1-0.4l-5.8-4.3
		c-0.4-0.2-0.6-0.8-0.6-1.2c0-0.4,0.2-1,0.6-1.2l5.8-4.3c0.6-0.6,1.6-0.4,2.1,0.2c0.6,0.6,0.4,1.6-0.2,2.1l-0.2,0.2L608,339.8z"/>
	<path class="st5" d="M621.2,345.4c-0.2,0-0.4,0-0.6,0c-0.6,0-1.2-0.4-1.4-1l-3.1-8.7c-0.2-0.8,0-1.6,0.8-1.7l0,0
		c0.8-0.4,1.6,0,1.9,0.8l0,0l3.1,8.7C622.3,344.2,622,345.2,621.2,345.4L621.2,345.4z"/>
	<path class="st4" d="M597,346h-7.8c-1.2,0-1.9-0.8-1.9-1.9c0-1.2,0.8-1.9,1.9-1.9h7.8c1.2,0,1.9,0.8,1.9,1.9
		C598.9,345.2,597.9,346,597,346z"/>
	<path class="st4" d="M497.4,361.5h-10.3c-1.2,0-1.9-0.8-1.9-1.9s0.8-1.9,1.9-1.9h10.3c1.2,0,1.9,0.8,1.9,1.9
		S498.5,361.5,497.4,361.5z"/>
	<path class="st5" d="M609.6,359.5c0,1.2-0.8,1.9-1.9,1.9h-96.9c-1.2,0-1.9-0.8-1.9-1.9s0.8-1.9,1.9-1.9h96.9
		C608.8,357.6,609.6,358.4,609.6,359.5z"/>
	<path class="st4" d="M634,361.5h-14.7c-1.2,0-1.9-0.8-1.9-1.9s0.8-1.9,1.9-1.9H634c1.2,0,1.9,0.8,1.9,1.9S635.1,361.5,634,361.5z"
		/>
	<path class="st5" d="M533.6,373.7c-1.2,0-1.9-0.8-1.9-1.9c0-1.2,0.8-1.9,1.9-1.9h38.6c1.2,0,1.9,0.8,1.9,1.9c0,1.2-0.8,1.9-1.9,1.9
		H533.6z"/>
	<path class="st5" d="M607.6,373.7h-27.3c-1.2,0-1.9-0.8-1.9-1.9c0-1.2,0.8-1.9,1.9-1.9h27.3c1.2,0,1.9,0.8,1.9,1.9
		C609.6,372.9,608.8,373.7,607.6,373.7z"/>
	<path class="st4" d="M634,373.7h-14.5c-1.2,0-1.9-0.8-1.9-1.9c0-1.2,0.8-1.9,1.9-1.9H634c1.2,0,1.9,0.8,1.9,1.9
		C635.9,372.9,635.1,373.7,634,373.7z"/>
	<path class="st5" d="M551,384c0-1.2,0.8-1.9,1.9-1.9h54.8c1.2,0,1.9,0.8,1.9,1.9c0,1.2-0.8,1.9-1.9,1.9H553
		C552,385.9,551,385.1,551,384z"/>
	<path class="st4" d="M634,385.9h-14.7c-1.2,0-1.9-0.8-1.9-1.9c0-1.2,0.8-1.9,1.9-1.9H634c1.2,0,1.9,0.8,1.9,1.9
		C635.9,385.1,635.1,385.9,634,385.9z"/>
	<path class="st5" d="M570.2,398.3H514c-1.2,0-1.9-0.8-1.9-1.9c0-1.2,0.8-1.9,1.9-1.9h56.2c1.2,0,1.9,0.8,1.9,1.9
		C572.2,397.5,571.4,398.3,570.2,398.3z"/>
	<path class="st5" d="M607.8,394.4c1.2,0,1.9,0.8,1.9,1.9c0,1.2-0.8,1.9-1.9,1.9h-25.6c-1.2,0-1.9-0.8-1.9-1.9
		c0-1.2,0.8-1.9,1.9-1.9H607.8z"/>
	<path class="st4" d="M634,398.3h-14.5c-1.2,0-1.9-0.8-1.9-1.9c0-1.2,0.8-1.9,1.9-1.9H634c1.2,0,1.9,0.8,1.9,1.9
		C635.9,397.5,635.1,398.3,634,398.3z"/>
	<path class="st5" d="M585.9,406.6h12.6c1.2,0,1.9,0.8,1.9,1.9c0,1.2-0.8,1.9-1.9,1.9h-12.6c-1.2,0-1.9-0.8-1.9-1.9
		C584,407.4,584.9,406.6,585.9,406.6z"/>
	<path class="st5" d="M607.6,406.6H634c1.2,0,1.9,0.8,1.9,1.9c0,1.2-0.8,1.9-1.9,1.9h-26.4c-1.2,0-1.9-0.8-1.9-1.9
		C605.7,407.4,606.5,406.6,607.6,406.6L607.6,406.6z"/>
	<path class="st5" d="M524.5,420.8c0,1.2-0.8,1.9-1.9,1.9H419.3c-1.2,0-1.9-0.8-1.9-1.9s0.8-1.9,1.9-1.9h103.3
		C523.7,418.8,524.5,419.8,524.5,420.8z"/>
	<path class="st4" d="M552.6,418.8c1.2,0,1.9,0.8,1.9,1.9s-0.8,1.9-1.9,1.9H533c-1.2,0-1.9-0.8-1.9-1.9s0.8-1.9,1.9-1.9H552.6z"/>
	<path class="st4" d="M419.3,431h25.2c1.2,0,1.9,0.8,1.9,1.9s-0.8,1.9-1.9,1.9h-25.2c-1.2,0-1.9-0.8-1.9-1.9S418.3,431,419.3,431z"
		/>
	<path class="st5" d="M454.9,433c0-1.2,0.8-1.9,1.9-1.9h105.4c1.2,0,1.9,0.8,1.9,1.9s-0.8,1.9-1.9,1.9H456.9
		C455.9,434.9,454.9,434.1,454.9,433L454.9,433z"/>
	<path class="st5" d="M419.3,443.4H465c1.2,0,1.9,0.8,1.9,1.9c0,1.2-0.8,1.9-1.9,1.9h-45.5c-1.2,0-1.9-0.8-1.9-1.9
		C417.5,444.2,418.3,443.4,419.3,443.4L419.3,443.4z"/>
	<path class="st4" d="M486.7,443.4c1.2,0,1.9,0.8,1.9,1.9c0,1.2-0.8,1.9-1.9,1.9h-11.4c-1.2,0-1.9-0.8-1.9-1.9
		c0-1.2,0.8-1.9,1.9-1.9H486.7z"/>
	<path class="st5" d="M419.3,455.6H510c1.2,0,1.9,0.8,1.9,1.9s-0.8,1.9-1.9,1.9h-90.7c-1.2,0-1.9-0.8-1.9-1.9
		S418.3,455.6,419.3,455.6L419.3,455.6z"/>
	<path class="st5" d="M550.1,455.6h31.6c1.2,0,1.9,0.8,1.9,1.9s-0.8,1.9-1.9,1.9h-31.6c-1.2,0-1.9-0.8-1.9-1.9
		S548.9,455.6,550.1,455.6L550.1,455.6z"/>
	<path class="st6" d="M519.4,384.3v101.3h125.2c2.5,0,4.5-1.9,4.5-4.5l0,0V375.8H528C523.3,375.8,519.4,379.7,519.4,384.3
		L519.4,384.3z"/>
	<path class="st1" d="M811.1,383.4H540c-2.5,0-4.5,1.9-4.5,4.5v169c0,2.5,1.9,4.5,4.5,4.5h271.1c2.5,0,4.5-1.9,4.5-4.5v-169
		C815.5,385.3,813.4,383.4,811.1,383.4z"/>
	<path class="st2" d="M811.1,383.4H540c-2.5,0-4.5,1.9-4.5,4.5v169c0,2.5,1.9,4.5,4.5,4.5h271.1c2.5,0,4.5-1.9,4.5-4.5v-169
		C815.5,385.3,813.4,383.4,811.1,383.4z"/>
	<rect x="540" y="401.4" class="st3" width="270.9" height="154.6"/>
	<path class="st5" d="M757,433.8h43.4c1.2,0,1.9,0.8,1.9,1.9s-0.8,1.9-1.9,1.9H757c-1.2,0-1.9-0.8-1.9-1.9S756,433.8,757,433.8z"/>
	<path class="st5" d="M757,446h37.6c1.2,0,1.9,0.8,1.9,1.9c0,1.2-0.8,1.9-1.9,1.9H757c-1.2,0-1.9-0.8-1.9-1.9
		C755.1,446.7,756,446,757,446z"/>
	<path class="st4" d="M757,458h43.4c1.2,0,1.9,0.8,1.9,1.9s-0.8,1.9-1.9,1.9H757c-1.2,0-1.9-0.8-1.9-1.9S756,458,757,458z"/>
	<path class="st5" d="M757,470.2h26c1.2,0,1.9,0.8,1.9,1.9s-0.8,1.9-1.9,1.9h-26c-1.2,0-1.9-0.8-1.9-1.9S756,470.2,757,470.2z"/>
	<path class="st5" d="M757,482.2h43.4c1.2,0,1.9,0.8,1.9,1.9c0,1.2-0.8,1.9-1.9,1.9H757c-1.2,0-1.9-0.8-1.9-1.9
		C755.1,483,756,482.2,757,482.2z"/>
	<path class="st5" d="M757,494.2h35.7c1.2,0,1.9,0.8,1.9,1.9s-0.8,1.9-1.9,1.9H757c-1.2,0-1.9-0.8-1.9-1.9S756,494.2,757,494.2z"/>
	<path class="st5" d="M757,506.4h35.7c1.2,0,1.9,0.8,1.9,1.9s-0.8,1.9-1.9,1.9H757c-1.2,0-1.9-0.8-1.9-1.9S756,506.4,757,506.4z"/>
	<path class="st5" d="M757,518.4h39.5c1.2,0,1.9,0.8,1.9,1.9c0,1.2-0.8,1.9-1.9,1.9H757c-1.2,0-1.9-0.8-1.9-1.9
		C755.1,519.2,756,518.4,757,518.4z"/>
	<path class="st4" d="M757,530.6h26c1.2,0,1.9,0.8,1.9,1.9s-0.8,1.9-1.9,1.9h-26c-1.2,0-1.9-0.8-1.9-1.9S756,530.6,757,530.6z"/>
	<path class="st4" d="M757,421.7h31.8c1.2,0,1.9,0.8,1.9,1.9c0,1.2-0.8,1.9-1.9,1.9H757c-1.2,0-1.9-0.8-1.9-1.9
		C755.1,422.5,756,421.7,757,421.7z"/>
	<path class="st5" d="M757,409.7h43.4c1.2,0,1.9,0.8,1.9,1.9s-0.8,1.9-1.9,1.9H757c-1.2,0-1.9-0.8-1.9-1.9S756,409.7,757,409.7z"/>
	<path class="st5" d="M757,542.6h43.4c1.2,0,1.9,0.8,1.9,1.9s-0.8,1.9-1.9,1.9H757c-1.2,0-1.9-0.8-1.9-1.9S756,542.6,757,542.6z"/>
	<rect x="733.8" y="433.4" class="st4" width="8.5" height="4.8"/>
	<rect x="733.8" y="445.4" class="st4" width="8.5" height="4.8"/>
	<rect x="733.8" y="457.6" class="st4" width="8.5" height="4.8"/>
	<rect x="733.8" y="469.6" class="st4" width="8.5" height="4.8"/>
	<rect x="733.8" y="481.8" class="st4" width="8.5" height="4.8"/>
	<rect x="733.8" y="493.8" class="st4" width="8.5" height="4.8"/>
	<rect x="733.8" y="505.8" class="st4" width="8.5" height="4.8"/>
	<rect x="733.8" y="518" class="st4" width="8.5" height="4.8"/>
	<rect x="733.8" y="530.1" class="st4" width="8.5" height="4.8"/>
	<rect x="733.8" y="421.4" class="st4" width="8.5" height="4.8"/>
	<rect x="733.8" y="409.1" class="st4" width="8.5" height="4.8"/>
	<rect x="733.8" y="542.3" class="st4" width="8.5" height="4.8"/>
	<path class="st5" d="M690,435.7c0,1.2-0.8,1.9-1.9,1.9H547.7c-1.2,0-1.9-0.8-1.9-1.9s0.8-1.9,1.9-1.9H688
		C689,433.8,690,434.7,690,435.7z"/>
	<path class="st5" d="M547.7,446h76.7c1.2,0,1.9,0.8,1.9,1.9c0,1.2-0.8,1.9-1.9,1.9h-76.7c-1.2,0-1.9-0.8-1.9-1.9
		C545.8,446.7,546.6,446,547.7,446L547.7,446z"/>
	<path class="st4" d="M642.7,446h24c1.2,0,1.9,0.8,1.9,1.9c0,1.2-0.8,1.9-1.9,1.9h-23.8c-1.2,0-1.9-0.8-1.9-1.9
		C640.9,446.7,641.7,446,642.7,446z"/>
	<path class="st5" d="M594.2,458h106.6c1.2,0,1.9,0.8,1.9,1.9s-0.8,1.9-1.9,1.9H594.2c-1.2,0-1.9-0.8-1.9-1.9S593.3,458,594.2,458z"
		/>
	<path class="st4" d="M722.9,461.8h-7.6c-1.2,0-1.9-0.8-1.9-1.9s0.8-1.9,1.9-1.9h7.6c1.2,0,1.9,0.8,1.9,1.9S723.9,461.8,722.9,461.8
		z"/>
	<path class="st5" d="M580.7,472.1c0-1.2,0.8-1.9,1.9-1.9h98.8c1.2,0,1.9,0.8,1.9,1.9s-0.8,1.9-1.9,1.9h-98.8
		C581.6,474.1,580.7,473.1,580.7,472.1z"/>
	<path class="st5" d="M722.9,474.1H695c-1.2,0-1.9-0.8-1.9-1.9s0.8-1.9,1.9-1.9h27.9c1.2,0,1.9,0.8,1.9,1.9S723.9,474.1,722.9,474.1
		z"/>
	<path class="st5" d="M722.9,486.1H617.5c-1.2,0-1.9-0.8-1.9-1.9c0-1.2,0.8-1.9,1.9-1.9h105.4c1.2,0,1.9,0.8,1.9,1.9
		C724.8,485.3,723.9,486.1,722.9,486.1z"/>
	<path class="st5" d="M654.7,494.2c1.2,0,1.9,0.8,1.9,1.9s-0.8,1.9-1.9,1.9h-54.6c-1.2,0-1.9-0.8-1.9-1.9s0.8-1.9,1.9-1.9H654.7z"/>
	<path class="st5" d="M722.9,498.1h-47.3c-1.2,0-1.9-0.8-1.9-1.9s0.8-1.9,1.9-1.9h47.3c1.2,0,1.9,0.8,1.9,1.9
		S723.9,498.1,722.9,498.1z"/>
	<path class="st5" d="M547.7,506.4h128.7c1.2,0,1.9,0.8,1.9,1.9s-0.8,1.9-1.9,1.9H547.7c-1.2,0-1.9-0.8-1.9-1.9
		S546.8,506.4,547.7,506.4z"/>
	<path class="st5" d="M547.7,518.4H659c1.2,0,1.9,0.8,1.9,1.9c0,1.2-0.8,1.9-1.9,1.9H547.7c-1.2,0-1.9-0.8-1.9-1.9
		C545.8,519.2,546.8,518.4,547.7,518.4z"/>
	<path class="st4" d="M547.7,530.6h22.9c1.2,0,1.9,0.8,1.9,1.9s-0.8,1.9-1.9,1.9h-22.9c-1.2,0-1.9-0.8-1.9-1.9
		S546.8,530.6,547.7,530.6z"/>
	<path class="st5" d="M586.7,530.6h83.9c1.2,0,1.9,0.8,1.9,1.9s-0.8,1.9-1.9,1.9h-83.9c-1.2,0-1.9-0.8-1.9-1.9
		S585.5,530.6,586.7,530.6z"/>
	<path class="st5" d="M722.9,425.6H633c-1.2,0-1.9-0.8-1.9-1.9c0-1.2,0.8-1.9,1.9-1.9h89.9c1.2,0,1.9,0.8,1.9,1.9
		C724.8,424.8,723.9,425.6,722.9,425.6z"/>
	<path class="st5" d="M722.9,413.6H582.6c-1.2,0-1.9-0.8-1.9-1.9s0.8-1.9,1.9-1.9h140.3c1.2,0,1.9,0.8,1.9,1.9
		S723.9,413.6,722.9,413.6z"/>
	<path class="st5" d="M592.3,542.6h59.5c1.2,0,1.9,0.8,1.9,1.9s-0.8,1.9-1.9,1.9h-59.5c-1.2,0-1.9-0.8-1.9-1.9
		S591.3,542.6,592.3,542.6z"/>
	<path class="st4" d="M668.6,542.6h54.3c1.2,0,1.9,0.8,1.9,1.9s-0.8,1.9-1.9,1.9h-54.3c-1.2,0-1.9-0.8-1.9-1.9
		S667.7,542.6,668.6,542.6z"/>
	<path class="st4" d="M613,425.6c-1.2,0-1.9-0.8-1.9-1.9c0-1.2,0.8-1.9,1.9-1.9h7c1.2,0,1.9,0.8,1.9,1.9c0,1.2-0.8,1.9-1.9,1.9H613z
		"/>
	<path class="st4" d="M697.9,435.7c0-1.2,0.8-1.9,1.9-1.9h9.5c1.2,0,1.9,0.8,1.9,1.9s-0.8,1.9-1.9,1.9H700
		C698.9,437.6,697.9,436.9,697.9,435.7z"/>
	<path class="st4" d="M591.1,484.1c0-1.2,0.8-1.9,1.9-1.9h10.3c1.2,0,1.9,0.8,1.9,1.9c0,1.2-0.8,1.9-1.9,1.9h-10.3
		C592.1,486.1,591.1,485.3,591.1,484.1z"/>
	<path class="st4" d="M557.6,474.1c-1.2,0-1.9-0.8-1.9-1.9s0.8-1.9,1.9-1.9h8.3c1.2,0,1.9,0.8,1.9,1.9s-0.8,1.9-1.9,1.9H557.6z"/>
	<path class="st4" d="M691.9,506.4c1.2,0,1.9,0.8,1.9,1.9s-0.8,1.9-1.9,1.9h-8.3c-1.2,0-1.9-0.8-1.9-1.9s0.8-1.9,1.9-1.9H691.9z"/>
</g>
</svg>
