<svg width="463" height="463" viewBox="0 0 463 463" fill="none" xmlns="http://www.w3.org/2000/svg">
<path d="M463 358.753C446.158 363.035 435.741 358.941 426.394 344.906L359.925 252.943L350.317 240.21L272.693 345.21C263.823 357.841 254.52 363.339 237.968 358.868L337.368 225.438L244.826 104.913C260.741 101.817 271.738 103.394 281.504 117.645L350.448 210.752L419.898 118.152C428.796 105.521 438.36 100.717 454.333 105.376L418.451 152.949L369.836 216.25C364.048 223.484 364.844 228.433 370.168 235.421L463 358.753ZM0.11575 223.209L8.24719 183.218C30.3844 104.074 121.103 71.1862 183.666 120.091C220.229 148.854 229.315 189.541 227.507 235.117H21.4138C18.3174 317.155 77.3644 366.667 152.645 341.405C179.051 332.535 194.605 311.859 202.389 285.989C206.339 273.025 212.879 271 225.061 274.704C218.84 307.056 204.805 334.083 175.144 350.997C130.826 376.318 67.5691 368.128 34.2909 332.94C14.4687 312.525 6.27944 286.655 2.60438 258.991C2.02563 254.418 0.868125 250.063 0 245.679C0.0771667 238.194 0.11575 230.709 0.11575 223.224V223.209ZM21.7899 217.711H208.032C206.816 158.389 169.878 116.256 119.396 115.895C63.9808 115.461 24.1918 156.595 21.7899 217.711V217.711Z" fill="black"/>
</svg>
