<?xml version="1.0" encoding="utf-8"?>
<!-- Generator: Adobe Illustrator 23.0.1, SVG Export Plug-In . SVG Version: 6.00 Build 0)  -->
<svg version="1.1" id="Layer_1" xmlns="http://www.w3.org/2000/svg" xmlns:xlink="http://www.w3.org/1999/xlink" x="0px" y="0px"
	 viewBox="0 0 500 500" style="enable-background:new 0 0 500 500;" xml:space="preserve">
<style type="text/css">
	.st0{fill:#F5F5F5;}
	.st1{fill:none;stroke:#407BFF;stroke-miterlimit:10;}
	.st2{fill:#407BFF;}
	.st3{opacity:0.5;fill:#FFFFFF;enable-background:new    ;}
	.st4{fill:#263238;}
	.st5{opacity:0.2;fill:#FFFFFF;enable-background:new    ;}
	.st6{opacity:0.4;fill:#FFFFFF;enable-background:new    ;}
	.st7{opacity:0.6;fill:#FFFFFF;enable-background:new    ;}
	.st8{fill:#FFFFFF;}
	.st9{opacity:0.2;enable-background:new    ;}
	.st10{opacity:0.3;fill:#FFFFFF;enable-background:new    ;}
	.st11{fill:#EBB376;}
	.st12{fill:#D58745;}
	.st13{fill:none;stroke:#263238;stroke-width:0.5263;stroke-linecap:round;stroke-linejoin:round;}
</style>
<g id="freepik--Shadow--inject-2">
	<ellipse id="freepik--path--inject-2" class="st0" cx="250" cy="416.2" rx="193.9" ry="11.3"/>
</g>
<g id="freepik--Plant--inject-2">
	<path class="st1" d="M395.2,348.3c0,0,6.4-5.3,11.8,0s6.5,38.1,6.5,38.1"/>
	<path class="st1" d="M413.9,392.7c0,0-3.7-38.5,10.3-54.6"/>
	<path class="st1" d="M412.6,388.7c0,0,2.9-43.8-7.7-53.5"/>
	<path class="st1" d="M413.9,388.7c0,0,0.2-28.9,8.1-33.4s11.9,10.2,11.9,10.2"/>
	<path class="st1" d="M410.8,388.7c0,0,1.3-22.2-4.8-30.2s-12.5,3.4-12.5,3.4"/>
	<path class="st1" d="M412.9,391.7c0,0-3.9-52,2.6-60.8"/>
	<path class="st2" d="M428.7,359.5c0,0-3.9,1.4-2.8,4.9s13.5,9,13.5,9s5.2-4.8,0.4-12.5S428.8,357,428.7,359.5z"/>
	<path class="st3" d="M428.7,359.5c0,0-3.9,1.4-2.8,4.9s13.5,9,13.5,9s5.2-4.8,0.4-12.5S428.8,357,428.7,359.5z"/>
	<path class="st2" d="M411.7,353c0,0,4.2-0.2,4.4,3.4s-9,13.5-9,13.5s-6.6-2.4-5.2-11.4S410.7,350.8,411.7,353z"/>
	<path class="st3" d="M411.7,353c0,0,4.2-0.2,4.4,3.4s-9,13.5-9,13.5s-6.6-2.4-5.2-11.4S410.7,350.8,411.7,353z"/>
	<path class="st2" d="M408.2,335.8c0,0,2.8-0.3,2.5-2s-10.8-6-17,1c0,0,4,6.9,9.8,7S408.2,335.8,408.2,335.8z"/>
	<path class="st3" d="M408.2,335.8c0,0,2.8-0.3,2.5-2s-10.8-6-17,1c0,0,4,6.9,9.8,7S408.2,335.8,408.2,335.8z"/>
	<path class="st2" d="M413.4,331.7c0,0-2.5,1.2-3.2-0.3s6-10.9,15-8.2c0,0,0.2,7.9-4.6,11.1S413.4,331.7,413.4,331.7z"/>
	<path class="st3" d="M413.4,331.7c0,0-2.5,1.2-3.2-0.3s6-10.9,15-8.2c0,0,0.2,7.9-4.6,11.1S413.4,331.7,413.4,331.7z"/>
	<path class="st2" d="M400.2,358.1c0,0,1.9-1.5-0.1-2.3s-12.2-0.5-12.3,9.5c0,0,11.8,2,13.3-1.9S400.2,358.1,400.2,358.1z"/>
	<path class="st3" d="M400.2,358.1c0,0,1.9-1.5-0.1-2.3s-12.2-0.5-12.3,9.5c0,0,11.8,2,13.3-1.9S400.2,358.1,400.2,358.1z"/>
	<path class="st2" d="M424.3,335.5c0,0-1.9-1.5,0.2-2.3s12.2-0.5,12.3,9.5c0,0-11.8,2-13.3-1.9S424.3,335.5,424.3,335.5z"/>
	<path class="st3" d="M424.3,335.5c0,0-1.9-1.5,0.2-2.3s12.2-0.5,12.3,9.5c0,0-11.8,2-13.3-1.9S424.3,335.5,424.3,335.5z"/>
	<path class="st2" d="M418.1,343.6c0,0-0.2-1.9,1.4-1.1s6.8,6.5,1.3,11.9c0,0-7.4-5.5-6.1-8.3S418.1,343.6,418.1,343.6z"/>
	<path class="st3" d="M418.1,343.6c0,0-0.2-1.9,1.4-1.1s6.8,6.5,1.3,11.9c0,0-7.4-5.5-6.1-8.3S418.1,343.6,418.1,343.6z"/>
	<path class="st2" d="M398.5,346.3c0,0,1.1-1.5-0.5-1.7s-9.2,1.8-7.5,9.3c0,0,9.2-0.7,9.6-3.8S398.5,346.3,398.5,346.3z"/>
	<path class="st3" d="M398.5,346.3c0,0,1.1-1.5-0.5-1.7s-9.2,1.8-7.5,9.3c0,0,9.2-0.7,9.6-3.8S398.5,346.3,398.5,346.3z"/>
	<polygon class="st4" points="429.5,416.6 398,416.6 394.6,382.1 432.9,382.1 	"/>
	<polygon class="st5" points="429.5,416.6 398,416.6 394.6,382.1 432.9,382.1 	"/>
	<rect x="392.9" y="378.3" class="st4" width="41.6" height="7.6"/>
	<rect x="392.9" y="378.3" class="st6" width="41.6" height="7.6"/>
</g>
<g id="freepik--Screens--inject-2">
	<path class="st2" d="M302.3,123.1h106.9c1.3,0,2.3,1,2.3,2.3v87.2c0,1.3-1,2.3-2.3,2.3H302.3c-1.3,0-2.3-1-2.3-2.3v-87.2
		C300,124.2,301.1,123.1,302.3,123.1z"/>
	<path class="st7" d="M411.6,125.4v87.2c0,1.3-1,2.3-2.3,2.3l0,0H302.3c-1.3,0-2.3-1-2.3-2.3l0,0v-87.2c0-1.3,1-2.3,2.3-2.3h107
		C410.6,123.2,411.6,124.2,411.6,125.4z"/>
	<rect x="302.4" y="132.5" class="st4" width="106.8" height="79.8"/>
	<path class="st3" d="M311.1,142.4c0.1,0.1,0.3,0.1,0.5,0.1c0.2,0,0.5-0.1,0.6-0.3c0.2-0.3,0.2-0.8-0.1-1c0,0,0,0,0,0l-2.2-1.6
		l2.2-1.6c0.3-0.2,0.4-0.7,0.2-1.1c-0.2-0.3-0.7-0.4-1.1-0.2l-3,2.2c-0.3,0.3-0.4,0.7-0.1,1.1c0,0.1,0.1,0.1,0.1,0.1L311.1,142.4z"
		/>
	<path class="st3" d="M321.2,139.6l-2.2,1.6c-0.3,0.2-0.4,0.7-0.2,1c0.1,0.2,0.4,0.3,0.6,0.3c0.2,0,0.3-0.1,0.5-0.1l3-2.2
		c0.3-0.2,0.4-0.7,0.2-1c0-0.1-0.1-0.1-0.2-0.2l-3-2.2c-0.3-0.3-0.8-0.2-1.1,0.1c-0.3,0.3-0.2,0.8,0.1,1.1c0,0,0.1,0.1,0.1,0.1
		L321.2,139.6z"/>
	<path class="st3" d="M314.5,142.5c0.1,0,0.2,0,0.3,0c0.3,0,0.6-0.2,0.7-0.5l1.6-4.5c0.1-0.4-0.1-0.8-0.5-1c-0.4-0.1-0.8,0.1-1,0.5
		l0,0l-1.6,4.5C313.8,141.9,314,142.3,314.5,142.5C314.4,142.5,314.4,142.5,314.5,142.5z"/>
	<path class="st3" d="M327,142.8h4c0.6,0,1-0.4,1-1s-0.4-1-1-1h-4c-0.6,0-1,0.4-1,1S326.4,142.8,327,142.8z"/>
	<path class="st3" d="M391,199.4h-61.9c-0.6,0-1,0.4-1,1s0.4,1,1,1H391c0.6,0,1-0.4,1-1S391.6,199.4,391,199.4z"/>
	<path class="st8" d="M404.6,199.4H397c-0.6,0-1,0.4-1,1s0.4,1,1,1h7.6c0.6,0,1-0.4,1-1S405.2,199.4,404.6,199.4z"/>
	<path class="st8" d="M347.8,195.1h24.9c0.6,0,1-0.4,1-1s-0.4-1-1-1h-24.9c-0.6,0-1,0.4-1,1S347.2,195.1,347.8,195.1z"/>
	<path class="st3" d="M391,195.1c0.6,0,1-0.4,1-1s-0.4-1-1-1h-14.1c-0.6,0-1,0.4-1,1s0.4,1,1,1H391z"/>
	<path class="st3" d="M404.6,193.1h-7.5c-0.6,0-1,0.4-1,1s0.4,1,1,1h7.5c0.6,0,1-0.4,1-1S405.2,193.1,404.6,193.1z"/>
	<path class="st8" d="M391.1,186.7h-33.4c-0.6,0-1,0.4-1,1s0.4,1,1,1h33.3c0.6,0,1-0.4,1-1S391.6,186.7,391.1,186.7L391.1,186.7z"/>
	<path class="st8" d="M404.6,186.7H397c-0.6,0-1,0.4-1,1s0.4,1,1,1h7.6c0.6,0,1-0.4,1-1S405.2,186.7,404.6,186.7z"/>
	<path class="st3" d="M372.8,181.4c0-0.6-0.4-1-1-1h-34c-0.6,0-1,0.4-1,1s0.4,1,1,1h34C372.3,182.4,372.8,182,372.8,181.4z"/>
	<path class="st3" d="M377.9,180.4c-0.6,0-1,0.4-1,1s0.4,1,1,1h13.2c0.6,0,1-0.4,1-1s-0.4-1-1-1H377.9z"/>
	<path class="st8" d="M404.6,180.4h-7.5c-0.6,0-1,0.4-1,1s0.4,1,1,1h7.5c0.6,0,1-0.4,1-1S405.2,180.4,404.6,180.4z"/>
	<path class="st8" d="M379.8,176.1h6.5c0.6,0,1-0.4,1-1s-0.4-1-1-1h-6.5c-0.6,0-1,0.4-1,1S379.2,176.1,379.8,176.1z"/>
	<path class="st3" d="M391,176.1h13.6c0.6,0,1-0.4,1-1s-0.4-1-1-1H391c-0.6,0-1,0.4-1,1S390.4,176.1,391,176.1z"/>
	<path class="st8" d="M343.1,168.7c0-0.6-0.4-1-1-1h-34.4c-0.6,0-1,0.4-1,1s0.4,1,1,1h34.3C342.6,169.8,343.1,169.3,343.1,168.7
		C343.1,168.8,343.1,168.8,343.1,168.7z"/>
	<path class="st3" d="M347.5,169.7h10.1c0.6,0,1-0.4,1-1s-0.4-1-1-1h-10.1c-0.6,0-1,0.4-1,1S347,169.7,347.5,169.7z"/>
	<path class="st3" d="M307.8,163.4h13c0.6,0,1-0.4,1-1s-0.4-1-1-1h-13c-0.6,0-1,0.4-1,1S307.2,163.4,307.8,163.4z"/>
	<path class="st8" d="M368.6,162.4c0-0.6-0.4-1-1-1h-40.4c-0.6,0-1,0.4-1,1s0.4,1,1,1h40.4C368.2,163.4,368.6,163,368.6,162.4z"/>
	<path class="st8" d="M307.8,157.1h23.5c0.6,0,1-0.4,1-1s-0.4-1-1-1h-23.5c-0.6,0-1,0.4-1,1S307.2,157.1,307.8,157.1z"/>
	<path class="st3" d="M335.8,156.1c0,0.6,0.4,1,1,1h5.8c0.6,0,1-0.4,1-1s-0.4-1-1-1h-5.8C336.2,155.1,335.8,155.5,335.8,156.1z"/>
	<path class="st3" d="M307.8,150.7h27.8c0.6,0,1-0.4,1-1s-0.4-1-1-1h-27.8c-0.6,0-1,0.4-1,1S307.2,150.7,307.8,150.7z"/>
	<path class="st8" d="M356.3,150.7h21.3c0.6,0,1-0.4,1-1s-0.4-1-1-1h-21.3c-0.6,0-1,0.4-1,1S355.7,150.7,356.3,150.7z"/>
	<path class="st9" d="M363.9,123.1V148c0,2.8-2.2,5-5,5H300v-27.6c0-1.3,1-2.3,2.3-2.3L363.9,123.1z"/>
	<path class="st2" d="M235.4,53.4h120.9c1.3,0,2.3,1,2.3,2.3v87.2c0,1.3-1,2.3-2.3,2.3H235.4c-1.3,0-2.3-1-2.3-2.3V55.7
		C233.1,54.4,234.1,53.4,235.4,53.4z"/>
	<path class="st7" d="M358.6,55.7v87.2c0,1.3-1,2.3-2.3,2.3l0,0H235.4c-1.3,0-2.3-1-2.3-2.3c0,0,0,0,0,0V55.7c0-1.3,1-2.3,2.3-2.3
		l0,0h121C357.6,53.4,358.6,54.4,358.6,55.7z"/>
	<rect x="235.5" y="62.7" class="st4" width="120.8" height="79.8"/>
	<path class="st8" d="M244.2,72.6c0.1,0.1,0.3,0.1,0.5,0.1c0.4,0,0.7-0.3,0.7-0.8c0-0.2-0.1-0.5-0.3-0.6l-2.2-1.6l2.2-1.6
		c0.3-0.2,0.4-0.7,0.2-1.1c-0.2-0.3-0.7-0.4-1.1-0.2l0,0l-3,2.2c-0.3,0.3-0.4,0.7-0.1,1.1c0,0.1,0.1,0.1,0.1,0.1L244.2,72.6z"/>
	<path class="st8" d="M254.3,69.8l-2.2,1.6c-0.3,0.2-0.4,0.7-0.2,1c0.1,0.2,0.4,0.3,0.6,0.3c0.2,0,0.3-0.1,0.5-0.2l3-2.2
		c0.2-0.1,0.3-0.4,0.3-0.6c0-0.2-0.1-0.5-0.3-0.6l-3-2.2c-0.3-0.3-0.8-0.2-1.1,0.1c-0.3,0.3-0.2,0.8,0.1,1.1c0,0,0.1,0.1,0.1,0.1
		L254.3,69.8z"/>
	<path class="st8" d="M247.5,72.7c0.1,0,0.2,0,0.3,0c0.3,0,0.6-0.2,0.7-0.5l1.6-4.5c0.1-0.4,0-0.8-0.4-0.9c0,0,0,0,0,0
		c-0.4-0.2-0.8,0-1,0.4c0,0,0,0,0,0l-1.6,4.5C246.9,72.1,247.1,72.6,247.5,72.7C247.5,72.7,247.5,72.7,247.5,72.7z"/>
	<path class="st3" d="M260,73h4c0.6,0,1-0.4,1-1s-0.4-1-1-1h-4c-0.6,0-1,0.4-1,1S259.5,73,260,73z"/>
	<path class="st3" d="M311.4,81h5.3c0.6,0,1-0.4,1-1s-0.4-1-1-1h-5.3c-0.6,0-1,0.4-1,1S310.8,81,311.4,81z"/>
	<path class="st8" d="M253.5,80c0,0.6,0.4,1,1,1h50c0.6,0,1-0.4,1-1s-0.4-1-1-1h-50C253.9,79,253.5,79.4,253.5,80z"/>
	<path class="st3" d="M240.9,81h7.6c0.6,0,1-0.4,1-1s-0.4-1-1-1h-7.6c-0.6,0-1,0.4-1,1S240.3,81,240.9,81z"/>
	<path class="st8" d="M292.7,87.3c0.6,0,1-0.4,1-1s-0.4-1-1-1h-19.9c-0.6,0-1,0.4-1,1s0.4,1,1,1H292.7z"/>
	<path class="st8" d="M254.5,87.3h14.1c0.6,0,1-0.4,1-1s-0.4-1-1-1h-14.1c-0.6,0-1,0.4-1,1S253.9,87.3,254.5,87.3z"/>
	<path class="st3" d="M240.9,87.3h7.5c0.6,0,1-0.4,1-1s-0.4-1-1-1h-7.5c-0.6,0-1,0.4-1,1S240.3,87.3,240.9,87.3z"/>
	<path class="st8" d="M283.7,92.6c0-0.6-0.4-1-1-1h-28.3c-0.6,0-1,0.4-1,1s0.4,1,1,1h28.3C283.2,93.6,283.7,93.2,283.7,92.6z"/>
	<path class="st3" d="M240.9,93.6h7.6c0.6,0,1-0.4,1-1s-0.4-1-1-1h-7.6c-0.6,0-1,0.4-1,1S240.3,93.6,240.9,93.6z"/>
	<path class="st8" d="M273.8,100h29c0.6,0,1-0.4,1-1s-0.4-1-1-1h-29c-0.6,0-1,0.4-1,1S273.2,100,273.8,100z"/>
	<path class="st8" d="M254.4,98c-0.6,0-1,0.4-1,1s0.4,1,1,1h13.2c0.6,0,1-0.4,1-1s-0.4-1-1-1H254.4z"/>
	<path class="st3" d="M240.9,100h7.5c0.6,0,1-0.4,1-1s-0.4-1-1-1h-7.5c-0.6,0-1,0.4-1,1S240.3,100,240.9,100z"/>
	<path class="st8" d="M265.7,104.3h-6.5c-0.6,0-1,0.4-1,1s0.4,1,1,1h6.5c0.6,0,1-0.4,1-1S266.2,104.3,265.7,104.3z"/>
	<path class="st8" d="M254.5,104.3h-13.6c-0.6,0-1,0.4-1,1s0.4,1,1,1h13.6c0.6,0,1-0.4,1-1S255.1,104.3,254.5,104.3L254.5,104.3z"/>
	<path class="st8" d="M297.4,111.6c0,0.6,0.4,1,1,1h53.3c0.6,0,1-0.4,1-1s-0.4-1-1-1h-53.3C297.8,110.6,297.4,111.1,297.4,111.6z"/>
	<path class="st3" d="M282.9,110.6c-0.6,0-1,0.4-1,1s0.4,1,1,1H293c0.6,0,1-0.4,1-1s-0.4-1-1-1H282.9z"/>
	<path class="st3" d="M351.7,116.9h-13c-0.6,0-1,0.4-1,1s0.4,1,1,1h13c0.6,0,1-0.4,1-1S352.2,116.9,351.7,116.9z"/>
	<path class="st8" d="M333.3,117.9c0-0.6-0.4-1-1-1h-54.4c-0.6,0-1,0.4-1,1s0.4,1,1,1h54.4C332.8,118.9,333.3,118.5,333.3,117.9
		C333.3,117.9,333.3,117.9,333.3,117.9z"/>
	<path class="st8" d="M351.7,123.3h-23.6c-0.6,0-1,0.4-1,1s0.4,1,1,1h23.5c0.6,0,1-0.4,1-1S352.2,123.3,351.7,123.3L351.7,123.3z"/>
	<path class="st3" d="M316.9,123.3c-0.6,0-1,0.4-1,1s0.4,1,1,1h5.9c0.6,0,1-0.4,1-1s-0.4-1-1-1H316.9z"/>
	<path class="st8" d="M351.7,129.6h-46.8c-0.6,0-1,0.4-1,1s0.4,1,1,1h46.8c0.6,0,1-0.4,1-1S352.2,129.6,351.7,129.6L351.7,129.6z"/>
	<path class="st8" d="M284.2,129.6h-16.3c-0.6,0-1,0.4-1,1s0.4,1,1,1h16.3c0.6,0,1-0.4,1-1S284.8,129.6,284.2,129.6L284.2,129.6z"/>
	<path class="st9" d="M300,92.8v52.3h-64.6c-1.3,0-2.3-1-2.3-2.3c0,0,0,0,0,0V88.4h62.5C298,88.4,300,90.4,300,92.8L300,92.8z"/>
	<path class="st2" d="M149.5,92.3h139.9c1.3,0,2.3,1,2.3,2.3v87.2c0,1.3-1,2.3-2.3,2.3H149.5c-1.3,0-2.3-1-2.3-2.3V94.6
		C147.2,93.3,148.3,92.3,149.5,92.3z"/>
	<path class="st7" d="M149.5,92.3h139.9c1.3,0,2.3,1,2.3,2.3v87.2c0,1.3-1,2.3-2.3,2.3H149.5c-1.3,0-2.3-1-2.3-2.3V94.6
		C147.2,93.3,148.3,92.3,149.5,92.3z"/>
	<rect x="149.6" y="101.6" class="st4" width="139.8" height="79.8"/>
	<path class="st8" d="M177.4,118.3H155c-0.6,0-1,0.4-1,1s0.4,1,1,1h22.4c0.6,0,1-0.4,1-1S177.9,118.3,177.4,118.3z"/>
	<path class="st8" d="M177.4,124.6H158c-0.6,0-1,0.4-1,1s0.4,1,1,1h19.4c0.6,0,1-0.4,1-1S177.9,124.6,177.4,124.6z"/>
	<path class="st3" d="M177.4,130.8H155c-0.6,0-1,0.4-1,1s0.4,1,1,1h22.4c0.6,0,1-0.4,1-1S177.9,130.8,177.4,130.8z"/>
	<path class="st8" d="M177.4,137.1H164c-0.6,0-1,0.4-1,1s0.4,1,1,1h13.4c0.6,0,1-0.4,1-1S177.9,137.1,177.4,137.1z"/>
	<path class="st8" d="M177.4,143.3H155c-0.6,0-1,0.4-1,1s0.4,1,1,1h22.4c0.6,0,1-0.4,1-1S177.9,143.3,177.4,143.3z"/>
	<path class="st8" d="M177.4,149.5H159c-0.6,0-1,0.4-1,1s0.4,1,1,1h18.4c0.6,0,1-0.4,1-1S177.9,149.5,177.4,149.5z"/>
	<path class="st8" d="M177.4,155.8H159c-0.6,0-1,0.4-1,1s0.4,1,1,1h18.4c0.6,0,1-0.4,1-1S177.9,155.8,177.4,155.8z"/>
	<path class="st8" d="M177.4,162H157c-0.6,0-1,0.4-1,1s0.4,1,1,1h20.4c0.6,0,1-0.4,1-1S177.9,162,177.4,162z"/>
	<path class="st3" d="M177.4,168.3H164c-0.6,0-1,0.4-1,1s0.4,1,1,1h13.4c0.6,0,1-0.4,1-1S177.9,168.3,177.4,168.3z"/>
	<path class="st3" d="M177.4,112.1H161c-0.6,0-1,0.4-1,1s0.4,1,1,1h16.4c0.6,0,1-0.4,1-1S177.9,112.1,177.4,112.1z"/>
	<path class="st8" d="M177.4,105.9H155c-0.6,0-1,0.4-1,1s0.4,1,1,1h22.4c0.6,0,1-0.4,1-1S177.9,105.9,177.4,105.9z"/>
	<path class="st8" d="M177.4,174.5H155c-0.6,0-1,0.4-1,1s0.4,1,1,1h22.4c0.6,0,1-0.4,1-1S177.9,174.5,177.4,174.5z"/>
	<rect x="185" y="118.1" class="st3" width="4.4" height="2.5"/>
	<rect x="185" y="124.3" class="st3" width="4.4" height="2.5"/>
	<rect x="185" y="130.6" class="st3" width="4.4" height="2.5"/>
	<rect x="185" y="136.8" class="st3" width="4.4" height="2.5"/>
	<rect x="185" y="143.1" class="st3" width="4.4" height="2.5"/>
	<rect x="185" y="149.3" class="st3" width="4.4" height="2.5"/>
	<rect x="185" y="155.5" class="st3" width="4.4" height="2.5"/>
	<rect x="185" y="161.8" class="st3" width="4.4" height="2.5"/>
	<rect x="185" y="168" class="st3" width="4.4" height="2.5"/>
	<rect x="185" y="111.9" class="st3" width="4.4" height="2.5"/>
	<rect x="185" y="105.6" class="st3" width="4.4" height="2.5"/>
	<rect x="185" y="174.3" class="st3" width="4.4" height="2.5"/>
	<path class="st8" d="M212,119.3c0,0.6,0.4,1,1,1h72.4c0.6,0,1-0.4,1-1s-0.4-1-1-1H213C212.5,118.3,212,118.8,212,119.3z"/>
	<path class="st8" d="M285.4,124.6h-39.6c-0.6,0-1,0.4-1,1s0.4,1,1,1h39.6c0.6,0,1-0.4,1-1S286,124.6,285.4,124.6L285.4,124.6z"/>
	<path class="st3" d="M236.4,124.6H224c-0.6,0-1,0.4-1,1s0.4,1,1,1h12.3c0.6,0,1-0.4,1-1S236.9,124.6,236.4,124.6z"/>
	<path class="st8" d="M261.4,130.8h-55c-0.6,0-1,0.4-1,1s0.4,1,1,1h55c0.6,0,1-0.4,1-1S261.9,130.8,261.4,130.8z"/>
	<path class="st3" d="M195,132.8h3.9c0.6,0,1-0.4,1-1s-0.4-1-1-1H195c-0.6,0-1,0.4-1,1S194.5,132.8,195,132.8z"/>
	<path class="st8" d="M268.4,138.1c0-0.6-0.4-1-1-1h-51c-0.6,0-1,0.4-1,1s0.4,1,1,1h51C267.9,139.1,268.4,138.6,268.4,138.1z"/>
	<path class="st8" d="M195,139.1h14.4c0.6,0,1-0.4,1-1s-0.4-1-1-1H195c-0.6,0-1,0.4-1,1S194.5,139.1,195,139.1z"/>
	<path class="st8" d="M195,145.3h54.4c0.6,0,1-0.4,1-1s-0.4-1-1-1H195c-0.6,0-1,0.4-1,1S194.5,145.3,195,145.3z"/>
	<path class="st8" d="M230.2,149.5c-0.6,0-1,0.4-1,1s0.4,1,1,1h28.2c0.6,0,1-0.4,1-1s-0.4-1-1-1H230.2z"/>
	<path class="st8" d="M195,151.5h24.4c0.6,0,1-0.4,1-1s-0.4-1-1-1H195c-0.6,0-1,0.4-1,1S194.5,151.5,195,151.5z"/>
	<path class="st8" d="M285.4,155.8H219c-0.6,0-1,0.4-1,1s0.4,1,1,1h66.4c0.6,0,1-0.4,1-1S285.9,155.8,285.4,155.8z"/>
	<path class="st8" d="M285.4,162H228c-0.6,0-1,0.4-1,1s0.4,1,1,1h57.4c0.6,0,1-0.4,1-1S285.9,162,285.4,162z"/>
	<path class="st3" d="M285.4,168.3h-11.8c-0.6,0-1,0.4-1,1s0.4,1,1,1h11.8c0.6,0,1-0.4,1-1S285.9,168.3,285.4,168.3z"/>
	<path class="st8" d="M265.3,168.3H222c-0.6,0-1,0.4-1,1s0.4,1,1,1h43.3c0.6,0,1-0.4,1-1S265.9,168.3,265.3,168.3z"/>
	<path class="st8" d="M195,114.1h46.4c0.6,0,1-0.4,1-1s-0.4-1-1-1H195c-0.6,0-1,0.4-1,1S194.5,114.1,195,114.1z"/>
	<path class="st8" d="M195,107.9h72.4c0.6,0,1-0.4,1-1s-0.4-1-1-1H195c-0.6,0-1,0.4-1,1S194.5,107.9,195,107.9z"/>
	<path class="st8" d="M262.4,174.5h-30.7c-0.6,0-1,0.4-1,1s0.4,1,1,1h30.7c0.6,0,1-0.4,1-1S262.9,174.5,262.4,174.5z"/>
	<path class="st3" d="M223,174.5H195c-0.6,0-1,0.4-1,1s0.4,1,1,1H223c0.6,0,1-0.4,1-1S223.5,174.5,223,174.5z"/>
	<path class="st3" d="M251.7,114.1c0.6,0,1-0.4,1-1s-0.4-1-1-1h-3.6c-0.6,0-1,0.4-1,1s0.4,1,1,1H251.7z"/>
	<path class="st3" d="M207.9,119.3c0-0.6-0.4-1-1-1H202c-0.6,0-1,0.4-1,1s0.4,1,1,1h4.8C207.4,120.3,207.9,119.9,207.9,119.3z"/>
	<path class="st3" d="M263,144.3c0-0.6-0.4-1-1-1h-5.3c-0.6,0-1,0.4-1,1s0.4,1,1,1h5.3C262.5,145.3,263,144.9,263,144.3z"/>
	<path class="st3" d="M280.3,139.1c0.6,0,1-0.4,1-1s-0.4-1-1-1H276c-0.6,0-1,0.4-1,1s0.4,1,1,1H280.3z"/>
	<path class="st3" d="M211,155.8c-0.6,0-1,0.4-1,1s0.4,1,1,1h4.3c0.6,0,1-0.4,1-1s-0.4-1-1-1H211z"/>
</g>
<g id="freepik--speech-bubble--inject-2">
	<path class="st2" d="M97.2,164.7h33.1c1.9,0,3.4,1.5,3.4,3.4V186c0,1.9-1.5,3.4-3.4,3.4H97.2c-1.9,0-3.4-1.5-3.4-3.4v-17.9
		C93.8,166.3,95.3,164.7,97.2,164.7z"/>
	<path class="st2" d="M119.8,188.2c0,0,1.5,6.9,10.3,9.6c0,0-4.6-4.1-3.6-9.6H119.8z"/>
	<path class="st8" d="M99,168.6v4.1h-0.4V169h-1v-0.4L99,168.6z"/>
	<path class="st8" d="M100,170.7c0-1.3,0.7-2.1,1.7-2.1s1.6,0.8,1.6,2.1s-0.7,2.1-1.6,2.1C100.7,172.8,100,172,100,170.7z
		 M102.9,170.7c0-1.1-0.5-1.7-1.2-1.7s-1.2,0.6-1.2,1.7s0.5,1.7,1.2,1.7C102.4,172.4,102.9,171.8,102.9,170.7z"/>
	<path class="st8" d="M103.9,170.7c0-1.3,0.7-2.1,1.6-2.1c1,0,1.7,0.8,1.7,2.1s-0.7,2.1-1.7,2.1S103.9,172,103.9,170.7z
		 M106.8,170.7c0-1.1-0.5-1.7-1.2-1.7c-0.7,0-1.2,0.6-1.2,1.7s0.5,1.7,1.2,1.7S106.8,171.8,106.8,170.7z"/>
	<path class="st8" d="M109,168.6v4.1h-0.4V169h-1v-0.4L109,168.6z"/>
	<path class="st8" d="M111.1,168.6v4.1h-0.4V169h-1v-0.4L111.1,168.6z"/>
	<path class="st8" d="M112.1,170.7c0-1.3,0.7-2.1,1.7-2.1c1,0,1.7,0.8,1.7,2.1s-0.7,2.1-1.7,2.1S112.1,172,112.1,170.7z M115,170.7
		c0-1.1-0.5-1.7-1.2-1.7s-1.2,0.6-1.2,1.7s0.5,1.7,1.2,1.7S115,171.8,115,170.7z"/>
	<path class="st8" d="M117.2,168.6v4.1h-0.4V169h-1v-0.4L117.2,168.6z"/>
	<path class="st8" d="M118.1,170.7c0-1.3,0.7-2.1,1.6-2.1s1.7,0.8,1.7,2.1s-0.7,2.1-1.7,2.1S118.1,172,118.1,170.7z M121,170.7
		c0-1.1-0.5-1.7-1.2-1.7s-1.2,0.6-1.2,1.7s0.5,1.7,1.2,1.7S121,171.8,121,170.7z"/>
	<path class="st8" d="M122.1,170.7c0-1.3,0.7-2.1,1.6-2.1s1.7,0.8,1.7,2.1s-0.7,2.1-1.7,2.1S122.1,172,122.1,170.7z M124.9,170.7
		c0-1.1-0.5-1.7-1.2-1.7s-1.2,0.6-1.2,1.7s0.5,1.7,1.2,1.7S124.9,171.8,124.9,170.7z"/>
	<path class="st8" d="M127.1,168.6v4.1h-0.4V169h-1v-0.4L127.1,168.6z"/>
	<path class="st8" d="M129.2,168.6v4.1h-0.4V169h-1v-0.4L129.2,168.6z"/>
	<path class="st8" d="M97.9,176.7c0-1.3,0.7-2.1,1.7-2.1c1,0,1.7,0.8,1.7,2.1s-0.7,2.1-1.7,2.1S97.9,178,97.9,176.7z M100.7,176.7
		c0-1.1-0.5-1.7-1.2-1.7s-1.2,0.6-1.2,1.7s0.5,1.7,1.2,1.7S100.7,177.8,100.7,176.7z"/>
	<path class="st8" d="M101.8,176.7c0-1.3,0.7-2.1,1.7-2.1c1,0,1.6,0.8,1.6,2.1s-0.7,2.1-1.6,2.1C102.5,178.8,101.8,178,101.8,176.7z
		 M104.7,176.7c0-1.1-0.5-1.7-1.2-1.7s-1.2,0.6-1.2,1.7s0.5,1.7,1.2,1.7S104.7,177.8,104.7,176.7L104.7,176.7z"/>
	<path class="st8" d="M106.8,174.6v4.1h-0.4V175h-1v-0.4L106.8,174.6z"/>
	<path class="st8" d="M109,174.6v4.1h-0.4V175h-1v-0.4L109,174.6z"/>
	<path class="st8" d="M110,176.7c0-1.3,0.7-2.1,1.7-2.1s1.7,0.8,1.7,2.1s-0.7,2.1-1.7,2.1C110.7,178.8,110,178,110,176.7z
		 M112.8,176.7c0-1.1-0.5-1.7-1.2-1.7s-1.2,0.6-1.2,1.7s0.5,1.7,1.2,1.7C112.3,178.4,112.8,177.8,112.8,176.7z"/>
	<path class="st8" d="M115,174.6v4.1h-0.4V175h-1v-0.4L115,174.6z"/>
	<path class="st8" d="M116,176.7c0-1.3,0.7-2.1,1.7-2.1c1,0,1.7,0.8,1.7,2.1s-0.7,2.1-1.7,2.1S116,178,116,176.7z M118.9,176.7
		c0-1.1-0.5-1.7-1.2-1.7s-1.2,0.6-1.2,1.7s0.5,1.7,1.2,1.7S118.9,177.8,118.9,176.7z"/>
	<path class="st8" d="M119.9,176.7c0-1.3,0.7-2.1,1.7-2.1s1.6,0.8,1.6,2.1s-0.7,2.1-1.6,2.1S119.9,178,119.9,176.7z M122.8,176.7
		c0-1.1-0.5-1.7-1.2-1.7s-1.2,0.6-1.2,1.7s0.5,1.7,1.2,1.7S122.8,177.8,122.8,176.7L122.8,176.7z"/>
	<path class="st8" d="M125,174.6v4.1h-0.4V175h-1v-0.4L125,174.6z"/>
	<path class="st8" d="M127.1,174.6v4.1h-0.4V175h-1v-0.4L127.1,174.6z"/>
	<path class="st8" d="M129.2,174.6v4.1h-0.4V175h-1v-0.4L129.2,174.6z"/>
	<path class="st8" d="M99,180.6v4.1h-0.4V181h-1v-0.4L99,180.6z"/>
	<path class="st8" d="M101.1,180.6v4.1h-0.4V181h-1v-0.4L101.1,180.6z"/>
	<path class="st8" d="M102.1,182.7c0-1.3,0.7-2.1,1.6-2.1c1,0,1.7,0.8,1.7,2.1s-0.7,2.1-1.7,2.1S102.1,184,102.1,182.7z M105,182.7
		c0-1.1-0.5-1.7-1.2-1.7c-0.7,0-1.2,0.6-1.2,1.7s0.5,1.7,1.2,1.7S105,183.8,105,182.7z"/>
	<path class="st8" d="M106.1,182.7c0-1.3,0.7-2.1,1.6-2.1c1,0,1.7,0.8,1.7,2.1s-0.7,2.1-1.7,2.1S106.1,184,106.1,182.7z
		 M108.9,182.7c0-1.1-0.5-1.7-1.2-1.7s-1.2,0.6-1.2,1.7s0.5,1.7,1.2,1.7S108.9,183.8,108.9,182.7z"/>
	<path class="st8" d="M111.1,180.6v4.1h-0.4V181h-1v-0.4L111.1,180.6z"/>
	<path class="st8" d="M113.2,180.6v4.1h-0.4V181h-1v-0.4L113.2,180.6z"/>
	<path class="st8" d="M114.2,182.7c0-1.3,0.7-2.1,1.7-2.1c1,0,1.7,0.8,1.7,2.1s-0.7,2.1-1.7,2.1S114.2,184,114.2,182.7z
		 M117.1,182.7c0-1.1-0.5-1.7-1.2-1.7s-1.2,0.6-1.2,1.7s0.5,1.7,1.2,1.7S117.1,183.8,117.1,182.7z"/>
	<path class="st8" d="M118.1,182.7c0-1.3,0.7-2.1,1.7-2.1s1.6,0.8,1.6,2.1s-0.7,2.1-1.6,2.1S118.1,184,118.1,182.7z M121,182.7
		c0-1.1-0.5-1.7-1.2-1.7s-1.2,0.6-1.2,1.7s0.5,1.7,1.2,1.7S121,183.8,121,182.7z"/>
	<path class="st8" d="M123.2,180.6v4.1h-0.4V181h-1v-0.4L123.2,180.6z"/>
	<path class="st8" d="M124.2,182.7c0-1.3,0.7-2.1,1.6-2.1s1.7,0.8,1.7,2.1s-0.7,2.1-1.7,2.1S124.2,184,124.2,182.7z M127.1,182.7
		c0-1.1-0.5-1.7-1.2-1.7s-1.2,0.6-1.2,1.7s0.5,1.7,1.2,1.7S127.1,183.8,127.1,182.7z"/>
	<path class="st8" d="M129.2,180.6v4.1h-0.4V181h-1v-0.4L129.2,180.6z"/>
</g>
<g id="freepik--Character--inject-2">
	<path class="st4" d="M76.2,394.9l27.5-2.7v-38.6h10.9v38.6l27.6,2.7c2.7,0.3,4.8,2.6,4.8,5.3v4.1H71.4v-4.1
		C71.4,397.4,73.5,395.1,76.2,394.9z"/>
	<path class="st5" d="M76.2,394.9l27.5-2.7v-38.6h10.9v38.6l27.6,2.7c2.7,0.3,4.8,2.6,4.8,5.3v4.1H71.4v-4.1
		C71.4,397.4,73.5,395.1,76.2,394.9z"/>
	<circle class="st4" cx="144.2" cy="409.5" r="7.1"/>
	<circle class="st4" cx="74.3" cy="409.5" r="7.1"/>
	<path class="st4" d="M112.4,361.8H106c-2.3,0-4.1-1.8-4.1-4.1l0,0v-30.3l0,0h14.7l0,0v30.3C116.5,360,114.7,361.8,112.4,361.8
		C112.4,361.8,112.4,361.8,112.4,361.8z"/>
	<path class="st10" d="M112.4,361.8H106c-2.3,0-4.1-1.8-4.1-4.1l0,0v-30.3l0,0h14.7l0,0v30.3C116.5,360,114.7,361.8,112.4,361.8
		C112.4,361.8,112.4,361.8,112.4,361.8z"/>
	<path class="st4" d="M83.1,267c0,0-2.1,51.5,12.3,60.4H79c0,0-12.7-17.6-9.1-60.4H83.1z"/>
	<path class="st10" d="M83.1,267c0,0-2.1,51.5,12.3,60.4H79c0,0-12.7-17.6-9.1-60.4H83.1z"/>
	<path class="st4" d="M78.4,320.2h63.4c2.8,0,5,2.2,5,5v6.2l0,0H73.4l0,0v-6.2C73.4,322.4,75.7,320.2,78.4,320.2z"/>
	<path class="st4" d="M72.4,325.8h75.5c1.1,0,2,0.9,2,2v1.6c0,1.1-0.9,2-2,2H72.4c-1.1,0-2-0.9-2-2v-1.6
		C70.4,326.7,71.3,325.8,72.4,325.8z"/>
	<path class="st7" d="M72.4,325.8h75.5c1.1,0,2,0.9,2,2v1.6c0,1.1-0.9,2-2,2H72.4c-1.1,0-2-0.9-2-2v-1.6
		C70.4,326.7,71.3,325.8,72.4,325.8z"/>
	<path class="st4" d="M91.5,277.4H66.5c-8.1,0-14.6-6.5-14.6-14.6v-9c0-8.1,6.5-14.6,14.6-14.6h24.9c8.1,0,14.6,6.5,14.6,14.6v9
		C106.1,270.9,99.5,277.4,91.5,277.4z"/>
	<g id="freepik--group--inject-2">
		<polygon class="st11" points="138.1,409.4 146.1,408.3 147.2,389.3 139.3,390.4 		"/>
		<polygon class="st9" points="139.3,390.4 147.2,389.3 146.6,400.2 138.6,400.9 		"/>
		<path class="st2" d="M138.4,298l-1.9-12.2l-44.7-2.7c0,0-4.8,25.3-1.1,32.1c6.5,12,41.6,6,51.9,7.2c-6.1,25.1-5.5,74.2-5.5,74.2
			l14.7,1.1c0,0,11.3-52.9,13.6-78C166.9,302.8,152.8,303.2,138.4,298z"/>
		<polygon class="st2" points="135.4,397.3 153,398.5 154.5,390.9 135.1,390 		"/>
		<polygon class="st11" points="156.5,402.3 164.5,402.9 169.6,384.6 161.5,384 		"/>
		<path class="st2" d="M165.6,403.2C165.6,403.2,165.6,403.2,165.6,403.2L165.6,403.2c0.7,0.4,1.4,0.7,2.1,0.9
			c0.5,0.2,1.1,0.2,1.6,0c0.3-0.2,0.5-0.6,0.5-1c0-0.2-0.1-0.5-0.3-0.6c-0.7-0.3-1.5-0.3-2.3-0.1c0.6-0.4,1-1,1.2-1.6
			c0-0.3-0.2-0.6-0.5-0.7c-0.3-0.1-0.6-0.1-0.8,0c-1,0.5-1.4,2.8-1.4,2.9l0,0h-0.1C165.6,403.1,165.6,403.2,165.6,403.2z
			 M166.2,402.8l-0.2,0.1c0.2-0.7,0.6-2,1.2-2.3c0.1-0.1,0.3-0.1,0.4-0.1h0.1c0.3,0.1,0.3,0.3,0.3,0.4
			C168,401.5,167,402.4,166.2,402.8z M166.2,403.2c1.1-0.3,2.5-0.6,3-0.3c0.1,0.1,0.1,0.2,0.1,0.3c0,0.2-0.1,0.5-0.3,0.6
			C168.6,404.1,167.6,403.9,166.2,403.2L166.2,403.2z"/>
		<polygon class="st9" points="161.5,384 169.6,384.6 166.7,395 158.8,394.1 		"/>
		<path class="st2" d="M172.3,393.8l-14.1-4.1c0,0,8.4-47.6,17-64.1c-0.6-0.2-1.5-0.5-2.5-0.8c-1.9-0.6-4.4-1.3-7.4-2.1
			c-20.5-5.7-62.1-16.4-62.1-16.4l19-17.7c0,0,75.7,11.5,77.3,31.5C200.1,329.6,172.3,393.8,172.3,393.8z"/>
		<polygon class="st2" points="156.3,389.9 173.3,394.7 176.4,387.6 157.6,382.7 		"/>
		<path class="st9" d="M172.6,324.7c-1.9-0.6-4.4-1.3-7.4-2.1c0.6-4.8,0.6-10.4-1.7-13.2c-4.6-5.6-16.5-9-23.3-10.1
			c-5.7-1-24.7-3-24.7-3s24.7-2.4,50,5C178,304.9,175.5,317.1,172.6,324.7z"/>
		<polygon class="st5" points="135.4,397.3 153,398.5 154.5,390.9 135.1,390 		"/>
		<polygon class="st5" points="156.3,389.9 173.3,394.7 176.4,387.6 157.6,382.7 		"/>
		<path class="st4" d="M165.3,402.1l-8.7-2.4c-0.3-0.1-0.6,0.1-0.7,0.4l0,0l-2.3,6.8c-0.2,0.8,0.2,1.5,1,1.7c0,0,0,0,0,0
			c3,0.8,4.5,1,8.4,2.1c3.4,1.1,6.8,1.9,10.3,2.5c3.4,0.4,3.6-2.9,2.3-3.4c-3.3-1.1-7.2-4.5-8.9-6.8
			C166.2,402.5,165.8,402.2,165.3,402.1z"/>
		<path class="st2" d="M146.9,408.3h0.2c0,0,0.2,0.1,0.2,0.1s0,0,0,0h0.1c0.7,0.2,1.4,0.3,2.1,0.4c0.5,0.1,1.1,0,1.5-0.3
			c0.3-0.3,0.4-0.6,0.3-1c0-0.2-0.2-0.5-0.4-0.6c-0.8-0.1-1.6,0-2.2,0.4c0.5-0.5,0.8-1.1,0.8-1.8c-0.1-0.3-0.3-0.6-0.7-0.6
			c-0.3-0.1-0.6,0-0.9,0.2C147,405.9,146.8,408.1,146.9,408.3L146.9,408.3L146.9,408.3z M147.8,407.8l-0.2,0.1
			c0-0.9,0.2-1.7,0.7-2.5c0.1-0.1,0.3-0.2,0.4-0.1h0.1c0.3,0,0.3,0.2,0.3,0.3C148.9,406.5,148.5,407.3,147.8,407.8z M147.9,408.2
			c1-0.5,2.3-1.1,2.9-0.9c0.1,0,0.2,0.2,0.2,0.3c0.1,0.2,0,0.5-0.2,0.7C150.3,408.6,149.3,408.6,147.9,408.2L147.9,408.2z"/>
		<path class="st4" d="M146.7,407.3l-9-0.6c-0.3,0-0.6,0.2-0.6,0.5l0,0l-0.9,7.1c-0.1,0.8,0.5,1.5,1.3,1.5c3.1,0.1,4.6,0,8.6,0.3
			c3.5,0.4,7,0.5,10.6,0.3c3.4-0.3,2.9-3.6,1.5-3.8c-3.4-0.4-8-2.9-10.1-4.8C147.7,407.5,147.2,407.3,146.7,407.3z"/>
		<path class="st4" d="M156.7,252.6c0,0,2.5,13.7,7.1,16.3s35.9-16.1,35.9-16.1l-2.6-5.3c0,0-26.3,7.1-26.5,7.1s-1-6-1-6
			L156.7,252.6z"/>
		<path class="st2" d="M166.5,231.1c2.1,2.6,5,21.5,5,21.5l-15.4,3.6l-3.3-9.6L166.5,231.1z"/>
		<path class="st6" d="M166.5,231.1c2.1,2.6,5,21.5,5,21.5l-15.4,3.6l-3.3-9.6L166.5,231.1z"/>
		<path class="st2" d="M87.4,298.9l51.7-8.6c0,0,3.2-30.7,27.3-59.2c0,0-8.4-18.2-38.1-15.7S87.4,298.9,87.4,298.9z"/>
		<path class="st7" d="M87.4,298.9l51.7-8.6c0,0,3.2-30.7,27.3-59.2c0,0-8.4-18.2-38.1-15.7S87.4,298.9,87.4,298.9z"/>
		<path class="st11" d="M127.7,241.5c0,0-0.5,14.2,1.1,15c1.6,0.8,31.5-10.1,36.2-10.9s15.6,3.4,15.6,3.4l1,6.5
			c0,0-9.7-0.2-15.1-2.8c0,0-34.9,20.9-42.4,19.7S113.9,243,113.9,243L127.7,241.5z"/>
		<path class="st4" d="M127.7,246.6c0,0,0.1,8.4,1.8,9c1.7,0.6,27.6-8.5,27.6-8.5l4.1,9.5c0,0-32.7,21.1-39,15.9s-7.9-23.8-7.9-23.8
			L127.7,246.6z"/>
		<path class="st2" d="M123,218.6c9.3-1,5.9,31.9,5.9,31.9l-15.6,2.2C113.3,252.7,106.6,220.3,123,218.6z"/>
		<path class="st6" d="M123,218.6c9.3-1,5.9,31.9,5.9,31.9l-15.6,2.2C113.3,252.7,106.6,220.3,123,218.6z"/>
		<path class="st4" d="M137.8,216.2c0,0-0.3,14.5,8.6,15.9s9.8-10.3,9.8-10.3S150.1,215.4,137.8,216.2z"/>
		<path class="st11" d="M160,224.2c-1.5-0.5-3.2-0.5-4.8,0c-0.7,3.1-3.5,5.3-6.6,5.3c-0.8,0-1.5,0-2.3-0.1
			c-7.7-1.1-6.9-12.6-6.9-12.6c2.8,0.2,5.6-0.5,8.1-1.9l0,0c2.1-1.2,3.9-2.8,5.3-4.7L160,224.2z"/>
		<path class="st9" d="M160,224.2c-1.5-0.5-3.2-0.5-4.8,0c-0.7,3.1-3.5,5.3-6.6,5.3c-2-4.9-1.7-10.6-1.1-14.6l0,0
			c2.1-1.2,3.9-2.8,5.3-4.7L160,224.2z"/>
		<path class="st4" d="M166,201.8c-3.4,2.3-1.9,6.3,5.9,12.5c3.2-4.1,3.7-12.1,1.2-14.1S169,199.8,166,201.8z"/>
		<path class="st11" d="M151.2,208.3c0.4,8.4,0.2,13.4,4.3,17.8c6.3,6.6,16.7,2.9,18.9-5.4c1.9-7.5,1-20-7.2-23.5
			c-5.8-2.5-12.6,0.2-15.1,6C151.4,204.7,151.1,206.5,151.2,208.3z"/>
		<path class="st4" d="M163.7,210.8c0,0.7,0.4,1.2,0.8,1.3s0.8-0.5,0.8-1.2s-0.3-1.3-0.8-1.3S163.8,210.1,163.7,210.8z"/>
		<path class="st4" d="M171.5,210.9c0,0.7,0.3,1.3,0.8,1.3s0.8-0.5,0.8-1.2s-0.4-1.2-0.8-1.3S171.5,210.2,171.5,210.9z"/>
		<path class="st12" d="M169,211.2c0.8,2.1,1.8,4.1,3.2,5.9c-1,0.7-2.2,0.9-3.3,0.6L169,211.2z"/>
		<path class="st4" d="M175,206.4c-0.1,0.1-0.2,0.2-0.4,0.2c-1-0.1-2,0.3-2.7,1.1c-0.1,0.2-0.4,0.2-0.6,0.1
			c-0.2-0.1-0.2-0.4-0.1-0.5c0,0,0,0,0,0c0.8-1,2.1-1.5,3.4-1.4c0.2,0,0.4,0.2,0.4,0.4c0,0,0,0,0,0l0,0
			C175,206.3,175,206.4,175,206.4z"/>
		<path class="st4" d="M167,207.9c-0.1,0-0.3,0-0.4-0.1c-0.7-0.8-1.7-1.1-2.7-1c-0.2,0-0.4-0.1-0.5-0.3c0-0.2,0.1-0.4,0.3-0.5
			c1.3-0.2,2.6,0.3,3.5,1.2c0.1,0.2,0.1,0.4,0,0.6l0,0L167,207.9z"/>
		<path class="st4" d="M154.7,200.9c3.9,1.4,3.4,5.6-2.7,13.6c-4.1-3.2-6.5-10.8-4.6-13.4S151.3,199.6,154.7,200.9z"/>
		<path class="st11" d="M147.1,214.9c0.5,2.1,1.9,3.8,3.7,4.9c2.4,1.4,4.3-0.6,4.2-3.3c-0.1-2.4-1.5-6-4.2-6.3
			S146.4,212.4,147.1,214.9z"/>
		<path class="st13" d="M162.5,219.1c0,0,1.5,2.8,5.5,2.6"/>
		<path class="st4" d="M155.6,203.8c0,0,3.3,0.2,4.9,2.3c0.8-1.1,1.1-2.5,0.8-3.9c0,0,4,0.5,5.8,3.3c0.5-1,0.7-2.1,0.6-3.3
			c0.8,0.9,1.2,2.1,1.2,3.3c0,0,3.1-1.9,2.7-3.8c0.8,0.9,1.3,2,1.6,3.2c0,0,2-0.7,1.6-4.3c0.7,0.7,1.2,1.6,1.4,2.6
			c0,0,2.6-7.4-7.3-11.6s-21.3,0.8-21.1,9S155.6,203.8,155.6,203.8z"/>
		<path class="st4" d="M235.9,252.6v2.6c0,0.8-1.4,1.4-2.1,1.4H172c-0.8,0-2.1-0.6-2.1-1.4v-2.6H235.9z"/>
		<path class="st7" d="M235.9,252.6v2.6c0,0.8-1.4,1.4-2.1,1.4H172c-0.8,0-2.1-0.6-2.1-1.4v-2.6H235.9z"/>
		<path class="st9" d="M235.9,252.6v2.6c0,0.8-1.4,1.4-2.1,1.4H193c-0.8,0-2.1-0.6-2.1-1.4v-2.6H235.9z"/>
		<path class="st4" d="M245.8,220.1l-7.4,33.5c-0.3,1.1-1.2,1.9-2.4,2h-40.2c-1-0.1-1.7-0.9-1.6-1.9c0-0.1,0-0.2,0.1-0.3l7.4-33.1
			c0.3-1,1.3-1.7,2.4-1.6h40.2C245.4,218.6,246,219,245.8,220.1z"/>
		<path class="st7" d="M245.8,220.1l-7.4,33.5c-0.3,1.1-1.2,1.9-2.4,2h-40.2c-1-0.1-1.7-0.9-1.6-1.9c0-0.1,0-0.2,0.1-0.3l7.4-33.1
			c0.3-1,1.3-1.7,2.4-1.6h40.2C245.4,218.6,246,219,245.8,220.1z"/>
		<path class="st6" d="M245.8,220.1l-7.4,33.5c-0.3,1.1-1.2,1.9-2.4,2h-38.8c-1-0.1-1.7-0.9-1.6-1.9c0-0.1,0-0.2,0.1-0.3l7.4-33.1
			c0.3-1,1.3-1.7,2.4-1.6h38.8C245.4,218.6,246,219,245.8,220.1z"/>
		<path class="st9" d="M222.2,241.5c1.9,0,3.8-2,4.3-4.5s-0.6-4.5-2.5-4.5c-0.3,0-0.7,0.1-1,0.2c-0.4,1.8-1.5,3.3-3.2,4.1
			c0,0.1,0,0.1-0.1,0.2C219.1,239.5,220.3,241.5,222.2,241.5z"/>
	</g>
	<polygon class="st4" points="271.3,229.1 280.7,238.4 283.9,256.6 264.6,256.6 265.4,254.6 276,252.6 276.9,241.5 269.9,239.9 	"/>
	<polygon class="st7" points="283.9,256.6 264.6,256.6 265.4,254.6 276,252.6 276.9,241.5 276,241.3 269.9,239.9 271.3,229.1 
		280.7,238.4 	"/>
	<polygon class="st9" points="279.4,237.1 276,241.3 269.9,239.9 271.3,229.1 	"/>
	<path class="st4" d="M270.3,244.8h-10.8c-0.4,0-0.7-0.3-0.7-0.7c0,0,0-0.1,0-0.1l6.2-46.1c0.1-0.5,0.5-0.9,1-0.9h10.8
		c0.4,0,0.7,0.3,0.7,0.7c0,0.1,0,0.1,0,0.2l-6.3,46.2C271.1,244.4,270.7,244.8,270.3,244.8z"/>
	<path class="st7" d="M270.3,244.8h-10.8c-0.4,0-0.7-0.3-0.7-0.7c0,0,0-0.1,0-0.1l6.2-46.1c0.1-0.5,0.5-0.9,1-0.9h10.8
		c0.4,0,0.7,0.3,0.7,0.7c0,0.1,0,0.1,0,0.2l-6.3,46.2C271.1,244.4,270.7,244.8,270.3,244.8z"/>
	<path class="st6" d="M267.3,244.8h-7.8c-0.4,0-0.7-0.3-0.7-0.7c0,0,0-0.1,0-0.1l6.2-46.1c0.1-0.5,0.5-0.9,1-0.9h7.8
		c0.4,0,0.7,0.3,0.7,0.7c0,0.1,0,0.1,0,0.2l-6.3,46.2C268.1,244.4,267.7,244.8,267.3,244.8z"/>
	<polygon class="st2" points="267.7,243.3 259.5,243.3 265.5,198.5 273.8,198.5 	"/>
	<polygon class="st4" points="196.5,416.6 190.4,416.6 179.4,263.3 187.5,263.3 	"/>
	<polygon class="st6" points="196.5,416.6 190.4,416.6 179.9,270.9 179.4,263.6 187.5,263.6 187.9,270.9 	"/>
	<polygon class="st9" points="187.9,270.6 179.9,270.6 179.4,263.6 187.5,263.6 	"/>
	<polygon class="st4" points="241.5,416.6 235.3,416.6 234.3,263.3 242.5,263.3 	"/>
	<polygon class="st3" points="242.5,263.6 242.3,288.3 241.5,416.6 235.3,416.6 234.5,288.3 234.3,263.6 	"/>
	<polygon class="st9" points="242.5,263.6 242.3,288.6 234.5,288.6 234.3,263.6 	"/>
	<polygon class="st4" points="306.5,416.6 300.4,416.6 289.4,263.3 297.5,263.3 	"/>
	<polygon class="st3" points="306.5,416.6 300.4,416.6 289.9,270.9 289.4,263.6 297.5,263.6 297.9,270.9 	"/>
	<polygon class="st9" points="297.9,270.6 289.9,270.6 289.4,263.6 297.5,263.6 	"/>
	<polygon class="st4" points="126.4,416.6 120.3,416.6 129.3,263.3 137.4,263.3 	"/>
	<polygon class="st3" points="137.4,263.6 136.9,270.9 126.4,416.6 120.3,416.6 128.9,270.9 129.3,263.6 	"/>
	<polygon class="st9" points="129.3,263.6 137.4,263.6 136.9,270.6 128.9,270.6 	"/>
	<path class="st2" d="M122.8,259.5h181.1l0,0v5.5c0,1.2-1,2.2-2.2,2.2l0,0H125c-1.2,0-2.2-1-2.2-2.2l0,0L122.8,259.5L122.8,259.5z"
		/>
	<rect x="122.8" y="259.5" class="st9" width="181.1" height="3.8"/>
	<path class="st2" d="M307.7,260.5H119.1c-1.2,0-2.2-1-2.2-2.2l0,0c0-1.2,1-2.2,2.2-2.2h0h188.7c1.2,0,2.2,1,2.2,2.2l0,0
		C309.9,259.5,308.9,260.5,307.7,260.5L307.7,260.5z"/>
</g>
</svg>
