<svg width="387" height="645" viewBox="0 0 387 645" fill="none" xmlns="http://www.w3.org/2000/svg">
<path d="M67.0312 236.5L81.9062 273.625L96.7812 236.5H104.562V282H98.5625V264.281L99.125 245.156L84.1875 282H79.5938L64.6875 245.25L65.2812 264.281V282H59.2812V236.5H67.0312ZM172.875 260.969H153.156V277.094H176.062V282H147.156V236.5H175.75V241.438H153.156V256.062H172.875V260.969ZM232.219 263.594H221.531V282H215.5V236.5H230.562C235.688 236.5 239.625 237.667 242.375 240C245.146 242.333 246.531 245.729 246.531 250.188C246.531 253.021 245.76 255.49 244.219 257.594C242.698 259.698 240.573 261.271 237.844 262.312L248.531 281.625V282H242.094L232.219 263.594ZM221.531 258.688H230.75C233.729 258.688 236.094 257.917 237.844 256.375C239.615 254.833 240.5 252.771 240.5 250.188C240.5 247.375 239.656 245.219 237.969 243.719C236.302 242.219 233.885 241.458 230.719 241.438H221.531V258.688ZM321.938 282H315.906L293 246.938V282H286.969V236.5H293L315.969 271.719V236.5H321.938V282Z" fill="black"/>
<path d="M161.654 153.184H153.428V176H150.07V153.184H141.861V150.406H161.654V153.184ZM203.121 176H199.729V164.17H186.826V176H183.451V150.406H186.826V161.41H199.729V150.406H203.121V176ZM241.582 164.17H230.49V173.24H243.375V176H227.115V150.406H243.199V153.184H230.49V161.41H241.582V164.17Z" fill="black"/>
<path d="M105.512 354.592C102.617 353.76 100.508 352.74 99.1836 351.533C97.8711 350.314 97.2148 348.814 97.2148 347.033C97.2148 345.018 98.0176 343.354 99.623 342.041C101.24 340.717 103.338 340.055 105.916 340.055C107.674 340.055 109.238 340.395 110.609 341.074C111.992 341.754 113.059 342.691 113.809 343.887C114.57 345.082 114.951 346.389 114.951 347.807H111.559C111.559 346.26 111.066 345.047 110.082 344.168C109.098 343.277 107.709 342.832 105.916 342.832C104.252 342.832 102.951 343.201 102.014 343.939C101.088 344.666 100.625 345.68 100.625 346.98C100.625 348.023 101.064 348.908 101.943 349.635C102.834 350.35 104.34 351.006 106.461 351.604C108.594 352.201 110.258 352.863 111.453 353.59C112.66 354.305 113.551 355.143 114.125 356.104C114.711 357.064 115.004 358.195 115.004 359.496C115.004 361.57 114.195 363.234 112.578 364.488C110.961 365.73 108.799 366.352 106.092 366.352C104.334 366.352 102.693 366.018 101.17 365.35C99.6465 364.67 98.4688 363.744 97.6367 362.572C96.8164 361.4 96.4062 360.07 96.4062 358.582H99.7988C99.7988 360.129 100.367 361.354 101.504 362.256C102.652 363.146 104.182 363.592 106.092 363.592C107.873 363.592 109.238 363.229 110.188 362.502C111.137 361.775 111.611 360.785 111.611 359.531C111.611 358.277 111.172 357.311 110.293 356.631C109.414 355.939 107.82 355.26 105.512 354.592ZM155.029 343.184H146.803V366H143.445V343.184H135.236V340.406H155.029V343.184ZM189.553 359.32H178.83L176.422 366H172.941L182.715 340.406H185.668L195.459 366H191.996L189.553 359.32ZM179.85 356.543H188.551L184.191 344.572L179.85 356.543ZM235.52 357.879C235.203 360.586 234.201 362.678 232.514 364.154C230.838 365.619 228.605 366.352 225.816 366.352C222.793 366.352 220.367 365.268 218.539 363.1C216.723 360.932 215.814 358.031 215.814 354.398V351.938C215.814 349.559 216.236 347.467 217.08 345.662C217.936 343.857 219.143 342.475 220.701 341.514C222.26 340.541 224.064 340.055 226.115 340.055C228.834 340.055 231.014 340.816 232.654 342.34C234.295 343.852 235.25 345.949 235.52 348.633H232.127C231.834 346.594 231.195 345.117 230.211 344.203C229.238 343.289 227.873 342.832 226.115 342.832C223.959 342.832 222.266 343.629 221.035 345.223C219.816 346.816 219.207 349.084 219.207 352.025V354.504C219.207 357.281 219.787 359.49 220.947 361.131C222.107 362.771 223.73 363.592 225.816 363.592C227.691 363.592 229.127 363.17 230.123 362.326C231.131 361.471 231.799 359.988 232.127 357.879H235.52ZM264.646 354.1L261.518 357.352V366H258.143V340.406H261.518V353.062L272.891 340.406H276.969L266.896 351.709L277.76 366H273.717L264.646 354.1Z" fill="black"/>
<path d="M62 447.652C66.5491 447.652 70.2591 451.362 70.2591 456C70.2591 460.417 66.5491 464.171 62 464.171C57.4508 464.171 53.7408 460.417 53.7408 456C53.7408 451.362 57.4508 447.652 62 447.652ZM41.5508 491.333C44.3333 493.012 50.4283 490.45 57.4508 483.825C55.1541 481.219 52.9016 478.392 50.7816 475.433C47.2225 475.093 43.6841 474.562 40.1816 473.843C37.9291 483.295 38.7683 489.787 41.5508 491.333V491.333ZM44.6866 465.982L43.4058 463.729C42.92 465.01 42.4341 466.291 42.125 467.527C43.3175 467.792 44.6425 468.013 46.0116 468.234L44.6866 465.982ZM73.5716 462.625L77.1491 456L73.5716 449.375C72.2466 447.034 70.8333 444.958 69.5525 442.882C67.1675 442.75 64.65 442.75 62 442.75C59.35 442.75 56.8325 442.75 54.4475 442.882C53.1666 444.958 51.7533 447.034 50.4283 449.375L46.8508 456L50.4283 462.625C51.7533 464.966 53.1666 467.042 54.4475 469.117C56.8325 469.25 59.35 469.25 62 469.25C64.65 469.25 67.1675 469.25 69.5525 469.117C70.8333 467.042 72.2466 464.966 73.5716 462.625V462.625ZM62 432.945C61.1608 433.917 60.2775 434.932 59.3941 436.125H64.6058C63.7225 434.932 62.8391 433.917 62 432.945ZM62 479.055C62.8391 478.083 63.7225 477.067 64.6058 475.875H59.3941C60.2775 477.067 61.1608 478.083 62 479.055ZM82.405 420.667C79.6666 418.988 73.5716 421.55 66.5491 428.175C68.8458 430.781 71.0983 433.607 73.2183 436.567C76.84 436.92 80.4175 437.45 83.8183 438.157C86.0708 428.705 85.2316 422.212 82.405 420.667ZM79.3133 446.018L80.5941 448.271C81.08 446.99 81.5658 445.709 81.875 444.472C80.6825 444.207 79.3575 443.987 77.9883 443.766L79.3133 446.018V446.018ZM85.7175 414.881C92.21 418.591 92.9166 428.352 90.1783 439.747C101.397 443.059 109.479 448.536 109.479 456C109.479 463.464 101.397 468.941 90.1783 472.253C92.9166 483.648 92.21 493.409 85.7175 497.119C79.2691 500.829 70.48 496.589 62 488.507C53.52 496.589 44.7308 500.829 38.2383 497.119C31.79 493.409 31.0833 483.648 33.8216 472.253C22.6033 468.941 14.5208 463.464 14.5208 456C14.5208 448.536 22.6033 443.059 33.8216 439.747C31.0833 428.352 31.79 418.591 38.2383 414.881C44.7308 411.171 53.52 415.411 62 423.493C70.48 415.411 79.2691 411.171 85.7175 414.881ZM84.4366 456C85.9383 459.312 87.2633 462.625 88.3675 465.982C97.6425 463.199 102.854 459.224 102.854 456C102.854 452.776 97.6425 448.801 88.3675 446.018C87.2633 449.375 85.9383 452.687 84.4366 456ZM39.5633 456C38.0616 452.687 36.7366 449.375 35.6325 446.018C26.3575 448.801 21.1458 452.776 21.1458 456C21.1458 459.224 26.3575 463.199 35.6325 465.982C36.7366 462.625 38.0616 459.312 39.5633 456ZM79.3133 465.982L77.9883 468.234C79.3575 468.013 80.6825 467.792 81.875 467.527C81.5658 466.291 81.08 465.01 80.5941 463.729L79.3133 465.982V465.982ZM66.5491 483.825C73.5716 490.45 79.6666 493.012 82.405 491.333C85.2316 489.787 86.0708 483.295 83.8183 473.843C80.4175 474.55 76.84 475.08 73.2183 475.433C71.0983 478.392 68.8458 481.219 66.5491 483.825V483.825ZM44.6866 446.018L46.0116 443.766C44.6425 443.987 43.3175 444.207 42.125 444.472C42.4341 445.709 42.92 446.99 43.4058 448.271L44.6866 446.018ZM57.4508 428.175C50.4283 421.55 44.3333 418.988 41.5508 420.667C38.7683 422.212 37.9291 428.705 40.1816 438.157C43.6841 437.438 47.2225 436.907 50.7816 436.567C52.9016 433.607 55.1541 430.781 57.4508 428.175V428.175Z" fill="#00BCD4"/>
<path d="M319.5 407.406C317.981 407.406 316.406 407.8 315.113 408.531L273.262 432.719C270.562 434.294 268.875 437.219 268.875 440.369V488.631C268.875 491.781 270.562 494.706 273.262 496.281L284.231 502.581C289.575 505.169 291.375 505.225 293.85 505.225C301.725 505.225 306.281 500.444 306.281 492.119V444.475C306.281 443.8 305.719 443.238 305.044 443.238H299.812C299.081 443.238 298.519 443.8 298.519 444.475V492.119C298.519 495.831 294.694 499.487 288.562 496.394L277.031 489.812C276.842 489.679 276.687 489.502 276.579 489.296C276.472 489.091 276.415 488.863 276.413 488.631V440.369C276.413 439.863 276.637 439.413 277.031 439.188L318.881 415.056C319.219 414.831 319.781 414.831 320.119 415.056L361.969 439.188C362.362 439.413 362.587 439.863 362.587 440.369V488.631C362.587 489.081 362.362 489.531 361.969 489.812L320.119 513.944C319.781 514.169 319.219 514.169 318.825 513.944L308.25 507.531C307.8 507.362 307.35 507.306 307.069 507.475C304.087 509.162 303.525 509.5 300.769 510.344C300.094 510.569 299.025 510.962 301.162 512.144L315.113 520.413C316.463 521.2 317.925 521.594 319.5 521.594C321.075 521.594 322.537 521.2 323.887 520.413L365.737 496.281C368.437 494.706 370.125 491.781 370.125 488.631V440.369C370.125 437.219 368.437 434.294 365.737 432.719L323.887 408.531C322.594 407.8 321.075 407.406 319.5 407.406V407.406ZM330.75 442C318.825 442 311.681 447.006 311.681 455.444C311.681 464.5 318.769 467.144 330.244 468.269C343.912 469.619 344.981 471.644 344.981 474.344C344.981 479.012 341.213 480.981 332.438 480.981C321.3 480.981 318.938 478.225 318.094 472.712C318.035 472.428 317.879 472.172 317.654 471.987C317.429 471.803 317.147 471.702 316.856 471.7H311.456C310.781 471.7 310.275 472.206 310.275 472.937C310.275 479.912 314.1 488.35 332.438 488.35C345.656 488.35 353.25 483.119 353.25 474.006C353.25 464.95 347.175 462.588 334.294 460.844C321.3 459.156 320.006 458.256 320.006 455.219C320.006 452.688 321.131 449.313 330.75 449.313C339.188 449.313 342.506 451.169 343.8 456.962C343.912 457.525 344.419 457.919 344.981 457.919H350.438C350.719 457.919 351.056 457.806 351.281 457.525C351.506 457.3 351.675 456.962 351.563 456.625C350.775 446.613 344.138 442 330.75 442Z" fill="#8BC34A"/>
<path d="M237 621.809C233.253 622.762 230.936 621.851 228.857 618.729L214.07 598.27L211.932 595.438L194.664 618.796C192.691 621.606 190.621 622.829 186.939 621.835L209.052 592.151L188.464 565.339C192.005 564.65 194.451 565.001 196.624 568.172L211.961 588.884L227.411 568.284C229.391 565.474 231.518 564.406 235.072 565.442L227.089 576.025L216.274 590.107C214.987 591.717 215.164 592.818 216.348 594.372L237 621.809ZM134.026 591.656L135.835 582.759C140.759 565.152 160.941 557.836 174.859 568.716C182.993 575.115 185.014 584.166 184.612 594.305H138.764C138.075 612.555 151.211 623.57 167.958 617.95C173.832 615.977 177.292 611.377 179.024 605.622C179.903 602.738 181.357 602.287 184.068 603.111C182.684 610.308 179.561 616.321 172.963 620.084C163.104 625.716 149.032 623.895 141.628 616.067C137.219 611.525 135.397 605.77 134.579 599.616C134.451 598.599 134.193 597.63 134 596.654C134.017 594.989 134.026 593.324 134.026 591.659V591.656ZM138.847 590.433H180.279C180.009 577.236 171.791 567.863 160.561 567.782C148.233 567.686 139.382 576.837 138.847 590.433V590.433Z" fill="black"/>
<path d="M154.875 13.875H238.125V97.125H154.875V13.875ZM176.751 83.435C178.601 87.3663 182.255 90.6038 188.499 90.6038C195.436 90.6038 200.2 86.9038 200.2 78.81V52.0775H192.338V78.625C192.338 82.6025 190.719 83.62 188.175 83.62C185.492 83.62 184.382 81.77 183.134 79.5962L176.751 83.435V83.435ZM204.409 82.6025C206.721 87.135 211.392 90.6038 218.7 90.6038C226.1 90.6038 231.65 86.765 231.65 79.6887C231.65 73.1675 227.904 70.2537 221.244 67.3862L219.301 66.5538C215.925 65.12 214.491 64.1487 214.491 61.8362C214.491 59.94 215.925 58.46 218.238 58.46C220.458 58.46 221.938 59.4312 223.279 61.8362L229.338 57.8125C226.794 53.3725 223.186 51.6613 218.238 51.6613C211.254 51.6613 206.768 56.1012 206.768 61.975C206.768 68.3575 210.514 71.3637 216.156 73.7687L218.099 74.6012C221.706 76.1737 223.834 77.145 223.834 79.8275C223.834 82.0475 221.753 83.6663 218.515 83.6663C214.676 83.6663 212.456 81.6775 210.791 78.9025L204.409 82.6025Z" fill="#FFCA28"/>
<path d="M57.5 170.142L77.0021 164.727L79.6375 135.498H44.9458L44.0833 125.771H80.5L81.4583 116.235H33.5417L36.225 145.033H69.2396L68.1375 157.396L57.5 160.271L46.8625 157.396L46.1917 149.442H36.6083L37.9979 164.727L57.5 170.142ZM19.5021 100.375H95.4979L88.6458 178L57.5 186.625L26.3542 178L19.5021 100.375Z" fill="#E44D26"/>
<path d="M301.542 111.125L299.131 123.511H349.527L347.896 131.521H297.537L295.089 143.87H345.485L342.667 157.998L322.345 164.71L304.731 157.998L305.955 151.917H293.569L290.639 166.75L319.75 177.875L353.31 166.75L357.76 144.389L358.65 139.902L364.361 111.125H301.542Z" fill="#42A5F5"/>
<g clip-path="url(#clip0_9_41)">
<path d="M185.128 407.324L188.304 413.288C189.018 414.389 189.791 415.363 190.703 416.271C193.361 418.93 195.886 421.715 198.155 424.698C203.536 431.763 207.165 439.61 209.757 448.096C211.312 453.28 212.156 458.598 212.219 463.975C212.48 480.051 206.968 493.855 195.857 505.327C194.042 507.142 192.101 508.823 190.018 510.318C188.918 510.318 188.397 509.474 187.943 508.697C187.099 507.272 186.582 505.647 186.322 504.03C185.931 502.085 185.675 500.14 185.801 498.132V497.224C185.712 497.031 184.741 407.781 185.128 407.324Z" fill="#599636"/>
<path d="M185.128 407.126C184.998 406.866 184.868 407.063 184.738 407.19C184.801 408.491 184.347 409.651 183.637 410.76C182.856 411.86 181.822 412.705 180.785 413.612C175.021 418.603 170.484 424.631 166.85 431.373C162.016 440.446 159.525 450.171 158.818 460.409C158.494 464.101 159.986 477.132 161.15 480.892C164.325 490.873 170.03 499.236 177.419 506.495C179.234 508.243 181.175 509.864 183.183 511.422C183.767 511.422 183.83 510.902 183.964 510.515C184.22 509.688 184.415 508.842 184.548 507.986L185.85 498.266L185.128 407.126Z" fill="#6CAC48"/>
<path d="M188.304 514.267C188.434 512.78 189.148 511.545 189.925 510.314C189.144 509.991 188.564 509.347 188.111 508.63C187.72 507.983 187.397 507.205 187.144 506.491C186.236 503.769 186.043 500.913 185.783 498.132V496.447C185.459 496.707 185.392 498.909 185.392 499.236C185.203 502.176 184.813 505.1 184.224 507.986C184.031 509.154 183.901 510.318 183.183 511.356C183.183 511.486 183.183 511.616 183.246 511.809C184.414 515.245 184.734 518.745 184.931 522.311V523.613C184.931 525.167 184.868 524.84 186.158 525.36C186.679 525.554 187.259 525.621 187.78 526.007C188.17 526.007 188.233 525.684 188.233 525.424L188.04 523.285V517.32C187.977 516.279 188.17 515.245 188.3 514.271L188.304 514.267Z" fill="#C2BFBF"/>
</g>
<defs>
<clipPath id="clip0_9_41">
<rect width="119" height="119" fill="white" transform="translate(126 407)"/>
</clipPath>
</defs>
</svg>
