<svg width="623" height="623" viewBox="0 0 623 623" fill="none" xmlns="http://www.w3.org/2000/svg">
<g clip-path="url(#clip0_5_25)">
<path d="M309.553 1.69385L326.179 32.9217C329.917 38.6845 333.967 43.7853 338.737 48.5357C352.657 62.4558 365.876 77.0379 377.752 92.6518C405.923 129.642 424.925 170.722 438.495 215.149C446.633 242.289 451.052 270.129 451.383 298.281C452.746 382.444 423.893 454.712 365.72 514.773C356.22 524.274 346.057 533.074 335.155 540.9C329.392 540.9 326.666 536.481 324.291 532.412C319.872 524.955 317.165 516.448 315.803 507.979C313.758 497.797 312.415 487.614 313.077 477.101V472.351C312.61 471.338 307.528 4.0885 309.553 1.69385Z" fill="#599636"/>
<path d="M309.553 0.661971C308.872 -0.700841 308.19 0.331002 307.509 0.99294C307.84 7.807 305.465 13.8813 301.746 19.6829C297.658 25.4457 292.245 29.8651 286.814 34.6155C256.637 60.7425 232.885 92.3014 213.864 127.598C188.555 175.102 175.511 226.013 171.812 279.61C170.118 298.943 177.925 367.161 184.019 386.844C200.645 439.098 230.51 482.883 269.194 520.886C278.695 530.037 288.858 538.525 299.371 546.683C302.428 546.683 302.759 543.957 303.459 541.932C304.799 537.6 305.821 533.175 306.516 528.693L313.33 477.802L309.553 0.661971Z" fill="#6CAC48"/>
<path d="M326.179 561.576C326.861 553.789 330.599 547.325 334.668 540.881C330.579 539.187 327.542 535.819 325.167 532.061C323.123 528.674 321.429 524.605 320.105 520.867C315.355 506.616 314.342 491.664 312.98 477.101V468.282C311.286 469.645 310.935 481.17 310.935 482.883C309.945 498.275 307.902 513.581 304.822 528.693C303.81 534.806 303.128 540.9 299.371 546.332C299.371 547.013 299.371 547.695 299.702 548.707C305.815 566.696 307.489 585.016 308.521 603.687V610.501C308.521 618.639 308.19 616.926 314.946 619.651C317.672 620.664 320.709 621.014 323.434 623.039C325.479 623.039 325.81 621.345 325.81 619.982L324.797 608.788V577.56C324.466 572.109 325.479 566.696 326.16 561.595L326.179 561.576Z" fill="#C2BFBF"/>
</g>
<defs>
<clipPath id="clip0_5_25">
<rect width="623" height="623" fill="white"/>
</clipPath>
</defs>
</svg>
