<?xml version="1.0" encoding="utf-8"?>
<!-- Generator: Adobe Illustrator 23.0.1, SVG Export Plug-In . SVG Version: 6.00 Build 0)  -->
<svg version="1.1" id="Layer_1" xmlns="http://www.w3.org/2000/svg" xmlns:xlink="http://www.w3.org/1999/xlink" x="0px" y="0px"
	 viewBox="0 0 500 500" style="enable-background:new 0 0 500 500;" xml:space="preserve">
<style type="text/css">
	.st0{fill:#F5F5F5;}
	.st1{fill:#407BFF;}
	.st2{opacity:0.5;enable-background:new    ;}
	.st3{opacity:0.5;fill:#FFFFFF;enable-background:new    ;}
	.st4{opacity:0.4;fill:#FFFFFF;enable-background:new    ;}
	.st5{opacity:0.4;enable-background:new    ;}
	.st6{fill:#FFFFFF;}
	.st7{fill:#263238;}
	.st8{fill:#A02724;}
	.st9{fill:#B55B52;}
	.st10{opacity:0.2;enable-background:new    ;}
	.st11{opacity:0.2;}
	.st12{opacity:0.3;enable-background:new    ;}
	.st13{opacity:0.7;fill:#FFFFFF;enable-background:new    ;}
</style>
<g id="Shadows_1_">
	<g id="Shadow--inject-214">
		<ellipse id="path--inject-214" class="st0" cx="250" cy="410.1" rx="193.9" ry="11.3"/>
	</g>
</g>
<g id="Desk">
	<g>
		<g id="Group">
			<rect x="46.6" y="273.1" class="st1" width="407.6" height="5.1"/>
			<polygon class="st1" points="70.8,276.8 70.8,399.1 74,399.1 78,276.8 			"/>
			<g>
				<polygon class="st1" points="108.4,280.8 108.4,394.1 111.6,394.1 115.6,280.8 				"/>
				<polygon class="st2" points="108.4,280.8 108.4,394.1 111.6,394.1 115.6,280.8 				"/>
			</g>
			<polygon class="st1" points="431.4,276.8 431.4,399.1 428.2,399.1 424.2,276.8 			"/>
			<g>
				<polygon class="st1" points="393.8,280.8 393.8,394.1 390.6,394.1 386.6,280.8 				"/>
				<polygon class="st2" points="393.8,280.8 393.8,394.1 390.6,394.1 386.6,280.8 				"/>
			</g>
			<g>
				<polygon class="st1" points="438.6,283.7 63.3,283.7 55,278.3 446.9,278.3 				"/>
				<polygon class="st2" points="438.6,283.7 63.3,283.7 55,278.3 446.9,278.3 				"/>
			</g>
		</g>
	</g>
</g>
<g id="Beverages">
	<g>
		<path class="st1" d="M73.3,257.4v4c0,0.7,0.3,1.3,0.7,1.8l3.2,3.2c0.3,0.3,0.6,0.5,1,0.6c1.3,2.8,4.1,4.7,7.4,4.7h1.2
			c4.5,0,8.1-3.6,8.1-8.1v-9.3H77.5v0.8h-1.7C74.5,254.9,73.3,256,73.3,257.4z M75.3,257.4c0-0.3,0.2-0.5,0.5-0.5h1.7v6.6
			c0,0.1,0,0.2,0,0.3l-2-2c-0.1-0.1-0.2-0.2-0.2-0.4V257.4L75.3,257.4z"/>
		<path class="st3" d="M73.3,257.4v4c0,0.7,0.3,1.3,0.7,1.8l3.2,3.2c0.3,0.3,0.6,0.5,1,0.6c1.3,2.8,4.1,4.7,7.4,4.7h1.2
			c4.5,0,8.1-3.6,8.1-8.1v-9.3H77.5v0.8h-1.7C74.5,254.9,73.3,256,73.3,257.4z M75.3,257.4c0-0.3,0.2-0.5,0.5-0.5h1.7v6.6
			c0,0.1,0,0.2,0,0.3l-2-2c-0.1-0.1-0.2-0.2-0.2-0.4V257.4L75.3,257.4z"/>
		<g>
			<path class="st1" d="M99.1,273H74c-1.6,0-3-1.5-3-1.5h31.1C102.1,271.5,100.8,273,99.1,273z"/>
			<path class="st3" d="M99.1,273H74c-1.6,0-3-1.5-3-1.5h31.1C102.1,271.5,100.8,273,99.1,273z"/>
		</g>
	</g>
</g>
<g id="PC">
	<g>
		<g>
			<g>
				<rect x="244.1" y="248.7" class="st1" width="11.8" height="23.9"/>
				<rect x="244.1" y="248.7" class="st3" width="11.8" height="23.9"/>
			</g>
			<g>
				<polygon class="st1" points="261.2,273.1 238.9,273.1 244.3,268.3 255.8,268.3 				"/>
				<polygon class="st3" points="261.2,273.1 238.9,273.1 244.3,268.3 255.8,268.3 				"/>
			</g>
		</g>
		<g>
			<g>
				<g>
					<polygon class="st1" points="310.3,265.4 254.5,265.4 264.6,273.1 320.4,273.1 					"/>
					<polygon class="st4" points="310.3,265.4 254.5,265.4 264.6,273.1 320.4,273.1 					"/>
				</g>
			</g>
			<g>
				<polygon class="st1" points="255.8,273.1 254.5,265.4 264.6,273.1 				"/>
				<polygon class="st2" points="255.8,273.1 254.5,265.4 264.6,273.1 				"/>
			</g>
		</g>
		<g>
			<path class="st1" d="M198.9,192h101.6c1.1,0,1.9,0.9,1.9,1.9v62.3c0,1.1-0.9,1.9-1.9,1.9H198.9c-1.1,0-1.9-0.9-1.9-1.9V194
				C197,192.9,197.8,192,198.9,192z"/>
			<rect x="200.8" y="196.2" class="st2" width="97.7" height="57.7"/>
		</g>
		<g>
			<g>
				<rect x="246.1" y="208" class="st5" width="49.3" height="33.9"/>
				<rect x="246.1" y="208" class="st1" width="49.3" height="3.1"/>
			</g>
			<g>
				<path class="st6" d="M255.1,226.8l8.1,4.5c0.4,0.2,0.7,0.4,0.8,0.6c0.1,0.2,0.2,0.4,0.2,0.7c0,0.4-0.1,0.6-0.4,0.9
					s-0.5,0.4-0.9,0.4c-0.2,0-0.5-0.1-1-0.4l-10.4-5.8c-0.7-0.4-0.7-1.4,0-1.8l10.4-5.8c0.4-0.2,0.8-0.4,1-0.4
					c0.3,0,0.6,0.1,0.9,0.4s0.4,0.6,0.4,0.9c0,0.3-0.1,0.5-0.2,0.7s-0.4,0.4-0.8,0.6L255.1,226.8z"/>
				<path class="st6" d="M275.9,218.5l-8,17.2c-0.2,0.4-0.4,0.7-0.5,0.8c-0.2,0.2-0.5,0.3-0.8,0.3s-0.6-0.1-0.9-0.4
					s-0.4-0.5-0.4-0.8c0-0.2,0.1-0.5,0.3-1l8-17.2c0.2-0.4,0.4-0.7,0.5-0.8c0.2-0.2,0.5-0.3,0.8-0.3s0.6,0.1,0.9,0.4
					s0.4,0.5,0.4,0.8C276.2,217.7,276.1,218.1,275.9,218.5z"/>
				<path class="st6" d="M285.9,226.8l-8.1-4.5c-0.4-0.2-0.7-0.4-0.8-0.6c-0.1-0.2-0.2-0.4-0.2-0.7c0-0.4,0.1-0.6,0.4-0.9
					s0.5-0.4,0.9-0.4c0.2,0,0.5,0.1,1,0.4l10.4,5.8c0.7,0.4,0.7,1.4,0,1.8l-10.4,5.8c-0.4,0.2-0.8,0.4-1,0.4c-0.3,0-0.6-0.1-0.9-0.4
					c-0.2-0.2-0.4-0.6-0.4-0.9c0-0.3,0.1-0.5,0.2-0.7s0.4-0.4,0.8-0.6L285.9,226.8z"/>
			</g>
		</g>
		<g>
			<g>
				<rect x="204.8" y="201.5" class="st6" width="3.3" height="3.3"/>
				<rect x="204.8" y="210.1" class="st6" width="3.3" height="3.3"/>
				<rect x="204.8" y="218.8" class="st6" width="3.3" height="3.3"/>
				<rect x="204.8" y="227.4" class="st6" width="3.3" height="3.3"/>
				<rect x="204.8" y="236.1" class="st6" width="3.3" height="3.3"/>
				<rect x="204.8" y="244.7" class="st6" width="3.3" height="3.3"/>
			</g>
			<g>
				<rect x="211.3" y="202.3" class="st6" width="13.3" height="1"/>
			</g>
			<g>
				<rect x="214.4" y="210.9" class="st6" width="4.7" height="1"/>
			</g>
			<g>
				<rect x="235.1" y="220.6" class="st6" width="4.7" height="1"/>
			</g>
			<g>
				<rect x="214.4" y="228.3" class="st6" width="4.7" height="1"/>
			</g>
			<g>
				<rect x="221.3" y="228.3" class="st6" width="4.7" height="1"/>
			</g>
			<g>
				<rect x="221.3" y="220.6" class="st6" width="12.1" height="1"/>
			</g>
			<g>
				<rect x="228.3" y="228.3" class="st6" width="8" height="1"/>
			</g>
			<g>
				<rect x="228.3" y="246.9" class="st6" width="4.7" height="1"/>
			</g>
			<g>
				<rect x="235.1" y="246.9" class="st6" width="4.7" height="1"/>
			</g>
			<g>
				<rect x="242.2" y="246.9" class="st6" width="2.6" height="1"/>
			</g>
			<g>
				<rect x="221.5" y="210.9" class="st6" width="14.8" height="1"/>
			</g>
			<g>
				<rect x="221.3" y="237.4" class="st6" width="4.7" height="1"/>
			</g>
			<g>
				<rect x="227.6" y="237.4" class="st6" width="2.7" height="1"/>
			</g>
			<g>
				<rect x="232.4" y="237.4" class="st6" width="7.7" height="1"/>
			</g>
		</g>
	</g>
</g>
<g id="Speech_Code">
	<g>
		<g>
			<g>
				<path class="st1" d="M241.4,164.5c-0.2,12.1-12.8,22.2-28.1,22.6c-4.7,0.2-9.3-0.7-13.7-2.5c-1.5,3.8-4.8,7.1-14.1,8.5
					c9.7-7.5,4.4-13.8,2.2-19.4l0,0c-1.1-2.3-1.7-5-1.7-7.8c0.2-12.1,12.8-22.2,28.1-22.6C229.5,142.9,241.7,152.4,241.4,164.5z"/>
			</g>
		</g>
		<g>
			<g>
				<rect x="200.8" y="151.8" class="st6" width="13.3" height="1"/>
			</g>
			<g>
				<rect x="203.9" y="160.5" class="st6" width="4.7" height="1"/>
			</g>
			<g>
				<rect x="224.5" y="170.2" class="st6" width="4.7" height="1"/>
			</g>
			<g>
				<rect x="203.9" y="177.9" class="st6" width="4.7" height="1"/>
			</g>
			<g>
				<rect x="210.7" y="177.9" class="st6" width="4.7" height="1"/>
			</g>
			<g>
				<rect x="210.7" y="170.2" class="st6" width="12.1" height="1"/>
			</g>
			<g>
				<rect x="217.8" y="177.9" class="st6" width="8" height="1"/>
			</g>
			<g>
				<rect x="211" y="160.5" class="st6" width="14.8" height="1"/>
			</g>
		</g>
	</g>
</g>
<g id="Character_1">
	<g>
		<g id="_x3C_Group_x3E_">
			<g>
				<g>
					<path class="st7" d="M164.5,196.4c-0.2,0.6-0.1,1.2,0.3,1.3s0.9-0.2,1.1-0.8c0.2-0.6,0.1-1.2-0.3-1.3
						C165.2,195.4,164.7,195.8,164.5,196.4z"/>
					<path class="st8" d="M164.4,197c0.1,2.1,0.4,4.1,1.1,6.1c-1,0.3-2.1,0.1-3-0.5L164.4,197z"/>
					<path class="st7" d="M163.5,192.4c0.1,0,0.2,0,0.2,0c0.9-0.3,1.9-0.1,2.6,0.4c0.2,0.1,0.4,0.1,0.5-0.1c0.1-0.1,0.1-0.4,0-0.5
						c-0.9-0.7-2.2-0.9-3.3-0.6c-0.2,0.1-0.3,0.3-0.2,0.5C163.4,192.2,163.4,192.3,163.5,192.4L163.5,192.4z"/>
					<path class="st9" d="M142.6,198.6c1.1,5.7,2.2,16.1-1.8,19.9c0,0,1.6,5.8,12.1,5.8c11.6,0,5.6-5.8,5.6-5.8
						c-6.4-1.5-5.3-6.2-4.2-10.6L142.6,198.6z"/>
					<path class="st9" d="M145.1,188.2c-2.1,7.4-3.7,11.7-1.3,16.7c3.6,7.6,16.1,8.5,19.4-0.1c2.6-8,5.1-16.4-1-21.7
						c-4.4-3.9-11-3.5-14.9,0.9C146.4,185.2,145.6,186.7,145.1,188.2z"/>
				</g>
				<path class="st7" d="M137.1,190.7c-0.5-2.7-0.7-5.7,0.7-8.2s4.7-3.9,7.1-2.5c2.1-4.4,7.1-7.2,11.9-6.6c4.8,0.6,9.1,4.4,10.1,9.1
					c1,4.7-1.3,10-5.4,12.5c0.6-2,1.1-4.1,1.7-6.1c-0.5,2.8-2,5.5-4.3,7.3c0.3-2,0.6-4.1,1-6.1c-0.3,2.9-2,5.6-4.5,7.1
					c0.4-1.4,0.8-2.9,1.2-4.3c-0.2,0.6-1.7,5.1-2.3,5.8c-1,1.1-1.6,8.7-5.1,8.9C137.3,209.8,138.4,197.1,137.1,190.7z"/>
				<path class="st9" d="M153,194.3c-0.2,1.9,0.2,3.8,1.2,5.5c1.3,2.1,3.3,1.3,4-0.9c0.6-2,0.7-5.4-1.1-6.8S153.3,192,153,194.3z"/>
			</g>
			<g>
				<path class="st9" d="M124.8,266.4c-1.3-0.4-7.2-3.5-8.2-2.9c2.8-7,4.5-8.1,5.7-12.5c0.7-2.5,0.2-4.4-1.3-6.5
					c-1.8-2.4-2.4-3.6-5.3-3.3c-4,6.7-9.1,15-11.1,22.6c-0.7,2.5-1.2,4.5,0.4,6.6c1.3,1.9,3.8,2.7,6.1,2.9
					c5.6,0.5,13.8-0.5,13.7-3.8C124.8,267.3,124.8,266.4,124.8,266.4z"/>
				<g>
					<path class="st9" d="M123.9,266.1l4.7-1.5l-0.4,8.5c0,0-3.8,0.1-5.8-2.4L123.9,266.1z"/>
					<polygon class="st9" points="134.5,264.5 133.8,271.5 128.2,273.1 128.6,264.6 					"/>
				</g>
			</g>
			<g>
				<path class="st9" d="M188.6,272.2c0,0-6.6-5.2-15.2-22.2c-1.3-2.4-2.5-4.8-3.7-7.2s-2.3-4.8-3.4-7.4l10.2-4.4
					c2.1,4.6,5.4,9.3,7.7,13.9c2.3,4.6,7.8,15.3,8.5,16.3c0.3,0.5,0.7,1,1.1,1.4l0.5,0.7l-6.6,7.6L188.6,272.2z"/>
				<g>
					<g>
						<path class="st9" d="M197.3,239l-2.1-2.4l-0.9-3.6l6.2-5.7c0,0,1.5,1.8,2.5,3.8c0.2,0.3,0.2,0.6,0.2,1l-0.3,6.4L197.3,239z"/>
						<polygon class="st9" points="194.4,229 199,224.8 200.4,227.2 194.3,232.9 						"/>
					</g>
					<path class="st9" d="M197.4,237.2c0.2-0.7,0.3,0.7,0.8,0.1c1.4-1.6,3.4-1.8,4.5,0c1.2,1.8,0.2,19.6-1.7,25.2
						c-1.3,3.7-1.9,6.7-5.1,8.9c-1.3,0.9-2.9,1.6-4.5,1.6s-3.3-0.9-3.9-2.4c-0.9-2.3,2.6-10.7,3.8-13.4
						C195.2,248.7,195.5,245.3,197.4,237.2z"/>
				</g>
				<g>
					<g>
						<path class="st1" d="M184.1,236.5c2.7,0,5.4-0.1,8.2-0.1c1.2,0,2.4,0,3.4-0.5c1.4-0.7,2.2-2.1,2.8-3.5c1.2-3,1.3-6.2,1.7-9.4
							c0.5-3.1,1.4-6.4,3.8-8.5c-4.3,0.6-12-0.8-15.4,2.8C186.9,219.1,183.8,236.5,184.1,236.5z"/>
						<path class="st3" d="M184.1,236.5c2.7,0,5.4-0.1,8.2-0.1c1.2,0,2.4,0,3.4-0.5c1.4-0.7,2.2-2.1,2.8-3.5c1.2-3,1.3-6.2,1.7-9.4
							c0.5-3.1,1.4-6.4,3.8-8.5c-4.3,0.6-12-0.8-15.4,2.8C186.9,219.1,183.8,236.5,184.1,236.5z"/>
					</g>
					<path class="st9" d="M198.1,224.3L198.1,224.3c-0.5,0.1-0.8,1.8-0.7,2.3l0.5,0.8l0.9,4.1l3.1-1.7l-2.8-5
						C198.9,224.4,198.5,224.2,198.1,224.3z"/>
				</g>
			</g>
			<path class="st1" d="M127.6,219.9c-7.3,1.7-18.1,24.4-18.1,24.4l14.7,10c3.6-5.2,8.6-13.1,11.4-18.9
				C139.9,226.4,135.1,218.2,127.6,219.9z"/>
			<g>
				<path class="st7" d="M138.3,220.5c-0.8-1.8-1.8-3.9,0.1-4.6c2.1-0.7,13.5-1.5,17.5-0.1c2.2,0.6,3.4,2.8,2.9,5v0.1L138.3,220.5z"
					/>
				<path class="st10" d="M132.1,233.1l-10.4,19.6l2.5,1.7c0,0,4.7-6.6,8-12.3L132.1,233.1L132.1,233.1z"/>
				<path class="st1" d="M172,229.9c1.6,8-2.1,27-2.1,58h-41.6c-0.3-6.3,4.3-21.1-1.4-50.7c-0.2-1-0.3-17.1,0.7-17.3
					c4-0.7,8.1-1.2,12.2-1.4c5.9-0.4,11.8-0.4,17.7,0c2.4,0.2,6.2,1.7,8.6,2.6C169.8,222.4,171.2,226,172,229.9z"/>
				<path class="st10" d="M161,237.9c1.1,6.6,5.4,15.3,9.7,20.4c0.2-3.7,0.5-7.6,0.5-10.6L161,237.9z"/>
			</g>
			<path class="st1" d="M158,228c-1,7.4,13.5,26.2,13.5,26.2l14.6-10c0,0-4.1-10.4-10.9-17.2C167.5,219.2,159.2,220,158,228z"/>
			<g>
				<polygon class="st9" points="205.7,391.1 213.5,391.1 215.3,373.1 207.5,373.1 				"/>
				<polygon class="st10" points="215.1,374.2 214.3,383.5 206.5,383.5 207.4,374.2 				"/>
			</g>
			<g>
				<polygon class="st9" points="175,391.1 182.8,391.1 186.7,373.1 178.9,373.1 				"/>
				<g class="st11">
					<polygon points="178.8,374.1 186.6,374.1 184.5,383.4 176.8,383.4 					"/>
				</g>
			</g>
			<path class="st7" d="M213.9,387.6h-8.5c-0.3,0-0.6,0.3-0.7,0.7l-1.5,8.9c-0.1,0.8,0.2,1.6,0.8,1.8c0.1,0,0.2,0,0.3,0
				c3.1-0.1,7.5-0.3,11.3-0.3c4.5,0,8.4,0.3,13.7,0.3c3.2,0,4.1-4.2,2.8-4.6c-6.1-1.7-11.1-1.9-16.3-6.1
				C215.3,387.9,214.6,387.6,213.9,387.6z"/>
			<g>
				<path class="st1" d="M220.1,390.5c1,0,2-0.1,2.3-0.6c0.2-0.2,0.2-0.6,0-0.8c-0.1-0.2-0.3-0.4-0.6-0.4c-1.3-0.4-4,1.2-4.1,1.3
					c-0.1,0-0.1,0.1-0.1,0.2s0.1,0.1,0.1,0.1C218.5,390.5,219.3,390.5,220.1,390.5z M221.4,389c0.1,0,0.2,0,0.4,0
					c0.1,0,0.3,0.1,0.4,0.3c0.1,0.2,0.1,0.3,0,0.4c-0.4,0.5-2.3,0.5-3.8,0.3C219.2,389.5,220.3,389.1,221.4,389z"/>
				<path class="st1" d="M217.8,390.3L217.8,390.3c1-0.4,2.9-2.1,2.7-3c0-0.2-0.2-0.5-0.7-0.5c-0.4,0-0.7,0.1-1,0.3
					c-1,0.8-1.2,2.9-1.2,3C217.6,390.2,217.6,390.2,217.8,390.3C217.7,390.3,217.7,390.3,217.8,390.3z M219.7,387.1h0.1
					c0.3,0,0.4,0.2,0.4,0.2c0.1,0.5-1.2,1.9-2.1,2.4c0.1-0.9,0.4-1.7,1-2.4C219.2,387.2,219.4,387.1,219.7,387.1z"/>
			</g>
			<path class="st7" d="M183.4,387.6h-8.7c-0.3,0-0.6,0.3-0.7,0.7l-1.5,8.9c-0.1,0.8,0.3,1.6,0.9,1.8c0.1,0,0.2,0,0.3,0
				c3.1-0.1,4.5-0.3,8.4-0.3c2.4,0,5.4,0.3,8.7,0.3s3.7-4.2,2.4-4.6c-6-1.7-6.4-4-8.3-6.3C184.3,387.8,183.8,387.6,183.4,387.6z"/>
			<g>
				<path class="st1" d="M187.9,391.5c0.7,0.1,1.3-0.1,1.9-0.5c0.2-0.3,0.2-0.6,0-0.9c-0.1-0.2-0.3-0.4-0.6-0.4
					c-1.1-0.3-3.3,1.2-3.4,1.3c-0.1,0-0.1,0.1-0.1,0.2s0.1,0.1,0.1,0.1C186.6,391.4,187.3,391.5,187.9,391.5z M188.9,390
					c0.1,0,0.1,0,0.2,0c0.1,0,0.3,0.1,0.3,0.2c0.2,0.3,0.1,0.4,0,0.5c-0.3,0.4-1.9,0.4-3.1,0.3C187.1,390.5,188,390.2,188.9,390
					L188.9,390z"/>
				<path class="st1" d="M185.9,391.3L185.9,391.3c0.9-0.4,2.4-2.1,2.3-3c-0.1-0.3-0.3-0.5-0.6-0.5s-0.6,0-0.8,0.2
					c-0.9,0.7-1.1,3-1.1,3.1s0,0.1,0.1,0.2C185.9,391.3,185.9,391.3,185.9,391.3z M187.5,388.1L187.5,388.1c0.3,0,0.3,0.1,0.4,0.2
					c0.1,0.5-0.9,1.8-1.7,2.4c0.1-0.9,0.4-1.7,0.9-2.4C187.2,388.2,187.4,388.1,187.5,388.1L187.5,388.1z"/>
			</g>
			<g>
				<g>
					<path class="st7" d="M157.5,287.9c0,0,36.8,15.2,44.5,26.9c-4.5,29.7-12.7,63.6-12.7,63.6h-13.9c0,0-0.4-18.8,3.6-43.8
						c2-36.4-63.4,1.3-50.7-46.8L157.5,287.9L157.5,287.9z"/>
					<path class="st12" d="M182.9,313c-2.6,0.1-5.1,0.5-7.7,0.9c-2.7,0.4-5.4,0.8-8.1,1.2c4.2,3.5,8.6,6.7,13.2,9.6
						c2.8,1.8,5.8,3.5,9.1,3.5c3.7,0,13.7-4.8,12.1-9.7C199.8,313.5,187.1,312.8,182.9,313z"/>
				</g>
				<path class="st7" d="M169.9,287.9c0,0,34.1,4.4,52.8,15.1c5.8,3.3,5,13.9,4.8,20.8c-0.4,18.7-4,37.1-10.6,54.6h-11.6
					c0,0,0.6-18.9,0.2-49.3c-0.1-9.1-18.6-12.1-36.6-13.2c-15.6-1-29.2-10.7-35.2-25.1l-1.2-2.9H169.9L169.9,287.9z"/>
				<path class="st1" d="M219.8,375.3c0.1,0-0.8,5.5-0.8,5.5h-16l-0.4-4.9L219.8,375.3z"/>
				<path class="st1" d="M190.6,375.3c0.1,0-1.5,5.5-1.5,5.5h-16l0.3-4.9L190.6,375.3z"/>
			</g>
			<g>
				<g>
					<polygon class="st1" points="147.6,315.5 136.1,400 134.1,399.7 142.9,314.9 					"/>
					<polygon class="st5" points="147.2,318.5 136.1,400 134.1,399.7 142.6,318.5 					"/>
				</g>
				<g>
					<path class="st1" d="M187.9,318.5h-65c0-4.1,3.3-7.4,7.4-7.4l0,0h50.2C184.6,311.1,187.9,314.4,187.9,318.5L187.9,318.5z"/>
					<path class="st13" d="M187.9,318.5h-65c0-4.1,3.3-7.4,7.4-7.4l0,0h50.2C184.6,311.1,187.9,314.4,187.9,318.5L187.9,318.5z"/>
				</g>
				<polygon class="st1" points="125.9,318.5 116.2,400.7 118.3,400.7 130.7,318.5 				"/>
				<g>
					<polygon class="st1" points="184.9,318.5 194.7,400.7 192.6,400.7 180.2,318.5 					"/>
					<polygon class="st5" points="184.9,318.5 194.7,400.7 192.6,400.7 180.2,318.5 					"/>
				</g>
				<polygon class="st1" points="171.8,318.5 172,400.7 169.9,400.7 167.1,318.5 				"/>
			</g>
		</g>
	</g>
</g>
</svg>
