<?xml version="1.0" encoding="utf-8"?>
<!-- Generator: Adobe Illustrator 23.0.1, SVG Export Plug-In . SVG Version: 6.00 Build 0)  -->
<svg version="1.1" id="Layer_1" xmlns="http://www.w3.org/2000/svg" xmlns:xlink="http://www.w3.org/1999/xlink" x="0px" y="0px"
	 viewBox="0 0 1366 768" style="enable-background:new 0 0 1366 768;" xml:space="preserve">
<style type="text/css">
	.st0{fill:#F5F5F5;}
	.st1{fill:#407BFF;}
	.st2{fill:#FFFFFF;}
	.st3{fill:#263238;}
	.st4{opacity:0.2;fill:#FFFFFF;enable-background:new    ;}
	.st5{opacity:0.3;fill:#FFFFFF;enable-background:new    ;}
	.st6{opacity:0.6;fill:#FFFFFF;enable-background:new    ;}
	.st7{fill:#EBB376;}
	.st8{opacity:0.2;enable-background:new    ;}
	.st9{opacity:0.4;fill:#FFFFFF;enable-background:new    ;}
	.st10{fill:#D58745;}
	.st11{fill:none;stroke:#263238;stroke-width:0.9772;stroke-linecap:round;stroke-linejoin:round;}
	.st12{opacity:0.5;fill:#FFFFFF;enable-background:new    ;}
</style>
<g id="freepik--Shadow--inject-2">
	<ellipse id="freepik--path--inject-2" class="st0" cx="775.9" cy="739.2" rx="289" ry="16.8"/>
</g>
<g id="freepik--speech-bubble--inject-2">
	<path class="st1" d="M1247.4,259.7h-64.1c-3.7,0-6.6,2.9-6.6,6.6V301c0,3.7,2.9,6.6,6.6,6.6h64.1c3.7,0,6.6-2.9,6.6-6.6v-34.7
		C1254,262.8,1251.1,259.7,1247.4,259.7z"/>
	<path class="st1" d="M1203.6,305.2c0,0-2.9,13.4-20,18.6c0,0,8.9-7.9,7-18.6H1203.6z"/>
	<path class="st2" d="M1243.9,267.2v7.9h0.8V268h1.9v-0.8H1243.9z"/>
	<path class="st2" d="M1242,271.3c0-2.5-1.4-4.1-3.3-4.1s-3.1,1.6-3.1,4.1s1.4,4.1,3.1,4.1C1240.6,275.4,1242,273.8,1242,271.3z
		 M1236.4,271.3c0-2.1,1-3.3,2.3-3.3s2.3,1.2,2.3,3.3c0,2.1-1,3.3-2.3,3.3S1236.4,273.4,1236.4,271.3z"/>
	<path class="st2" d="M1234.4,271.3c0-2.5-1.4-4.1-3.1-4.1c-1.9,0-3.3,1.6-3.3,4.1s1.4,4.1,3.3,4.1S1234.4,273.8,1234.4,271.3z
		 M1228.8,271.3c0-2.1,1-3.3,2.3-3.3c1.4,0,2.3,1.2,2.3,3.3c0,2.1-1,3.3-2.3,3.3C1229.8,274.6,1228.8,273.4,1228.8,271.3z"/>
	<path class="st2" d="M1224.5,267.2v7.9h0.8V268h1.9v-0.8H1224.5z"/>
	<path class="st2" d="M1220.5,267.2v7.9h0.8V268h1.9v-0.8H1220.5z"/>
	<path class="st2" d="M1218.5,271.3c0-2.5-1.4-4.1-3.3-4.1s-3.3,1.6-3.3,4.1s1.4,4.1,3.3,4.1
		C1217.2,275.4,1218.5,273.8,1218.5,271.3z M1212.9,271.3c0-2.1,1-3.3,2.3-3.3c1.4,0,2.3,1.2,2.3,3.3c0,2.1-1,3.3-2.3,3.3
		C1213.9,274.6,1212.9,273.4,1212.9,271.3z"/>
	<path class="st2" d="M1208.7,267.2v7.9h0.8V268h1.9v-0.8H1208.7z"/>
	<path class="st2" d="M1206.9,271.3c0-2.5-1.4-4.1-3.1-4.1s-3.3,1.6-3.3,4.1s1.4,4.1,3.3,4.1
		C1205.7,275.4,1206.9,273.8,1206.9,271.3z M1201.3,271.3c0-2.1,1-3.3,2.3-3.3s2.3,1.2,2.3,3.3c0,2.1-1,3.3-2.3,3.3
		S1201.3,273.4,1201.3,271.3z"/>
	<path class="st2" d="M1199.2,271.3c0-2.5-1.4-4.1-3.1-4.1s-3.3,1.6-3.3,4.1s1.4,4.1,3.3,4.1S1199.2,273.8,1199.2,271.3z
		 M1193.7,271.3c0-2.1,1-3.3,2.3-3.3c1.4,0,2.3,1.2,2.3,3.3c0,2.1-1,3.3-2.3,3.3C1194.7,274.6,1193.7,273.4,1193.7,271.3z"/>
	<path class="st2" d="M1189.5,267.2v7.9h0.8V268h1.9v-0.8H1189.5z"/>
	<path class="st2" d="M1185.4,267.2v7.9h0.8V268h1.9v-0.8H1185.4z"/>
	<path class="st2" d="M1246,282.9c0-2.5-1.4-4.1-3.3-4.1s-3.3,1.6-3.3,4.1s1.4,4.1,3.3,4.1S1246,285.4,1246,282.9z M1240.6,282.9
		c0-2.1,1-3.3,2.3-3.3s2.3,1.2,2.3,3.3c0,2.1-1,3.3-2.3,3.3S1240.6,285,1240.6,282.9z"/>
	<path class="st2" d="M1238.5,282.9c0-2.5-1.4-4.1-3.3-4.1s-3.1,1.6-3.1,4.1s1.4,4.1,3.1,4.1C1237.1,287,1238.5,285.4,1238.5,282.9z
		 M1232.9,282.9c0-2.1,1-3.3,2.3-3.3c1.4,0,2.3,1.2,2.3,3.3c0,2.1-1,3.3-2.3,3.3C1233.8,286.2,1232.9,285,1232.9,282.9L1232.9,282.9
		z"/>
	<path class="st2" d="M1228.8,278.8v7.9h0.8v-7.2h1.9v-0.8h-2.7V278.8z"/>
	<path class="st2" d="M1224.5,278.8v7.9h0.8v-7.2h1.9v-0.8h-2.7V278.8z"/>
	<path class="st2" d="M1222.6,282.9c0-2.5-1.4-4.1-3.3-4.1s-3.3,1.6-3.3,4.1s1.4,4.1,3.3,4.1S1222.6,285.4,1222.6,282.9z
		 M1217.2,282.9c0-2.1,1-3.3,2.3-3.3c1.4,0,2.3,1.2,2.3,3.3c0,2.1-1,3.3-2.3,3.3C1218.1,286.2,1217.2,285,1217.2,282.9z"/>
	<path class="st2" d="M1212.9,278.8v7.9h0.8v-7.2h1.9v-0.8h-2.7V278.8z"/>
	<path class="st2" d="M1211,282.9c0-2.5-1.4-4.1-3.3-4.1s-3.3,1.6-3.3,4.1s1.4,4.1,3.3,4.1S1211,285.4,1211,282.9z M1205.4,282.9
		c0-2.1,1-3.3,2.3-3.3s2.3,1.2,2.3,3.3c0,2.1-1,3.3-2.3,3.3S1205.4,285,1205.4,282.9z"/>
	<path class="st2" d="M1203.4,282.9c0-2.5-1.4-4.1-3.3-4.1s-3.1,1.6-3.1,4.1s1.4,4.1,3.1,4.1S1203.4,285.4,1203.4,282.9z
		 M1197.8,282.9c0-2.1,1-3.3,2.3-3.3s2.3,1.2,2.3,3.3c0,2.1-1,3.3-2.3,3.3S1197.8,285,1197.8,282.9L1197.8,282.9z"/>
	<path class="st2" d="M1193.5,278.8v7.9h0.8v-7.2h1.9v-0.8h-2.7V278.8z"/>
	<path class="st2" d="M1189.5,278.8v7.9h0.8v-7.2h1.9v-0.8h-2.7V278.8z"/>
	<path class="st2" d="M1185.4,278.8v7.9h0.8v-7.2h1.9v-0.8h-2.7V278.8z"/>
	<path class="st2" d="M1243.9,290.5v7.9h0.8v-7.2h1.9v-0.8h-2.7V290.5z"/>
	<path class="st2" d="M1239.8,290.5v7.9h0.8v-7.2h1.9v-0.8h-2.7V290.5z"/>
	<path class="st2" d="M1237.9,294.5c0-2.5-1.4-4.1-3.1-4.1c-1.9,0-3.3,1.6-3.3,4.1s1.4,4.1,3.3,4.1S1237.9,297.1,1237.9,294.5z
		 M1232.3,294.5c0-2.1,1-3.3,2.3-3.3c1.4,0,2.3,1.2,2.3,3.3c0,2.1-1,3.3-2.3,3.3S1232.3,296.7,1232.3,294.5z"/>
	<path class="st2" d="M1230.2,294.5c0-2.5-1.4-4.1-3.1-4.1c-1.9,0-3.3,1.6-3.3,4.1s1.4,4.1,3.3,4.1S1230.2,297.1,1230.2,294.5z
		 M1224.7,294.5c0-2.1,1-3.3,2.3-3.3s2.3,1.2,2.3,3.3c0,2.1-1,3.3-2.3,3.3S1224.7,296.7,1224.7,294.5z"/>
	<path class="st2" d="M1220.5,290.5v7.9h0.8v-7.2h1.9v-0.8h-2.7V290.5z"/>
	<path class="st2" d="M1216.4,290.5v7.9h0.8v-7.2h1.9v-0.8h-2.7V290.5z"/>
	<path class="st2" d="M1214.5,294.5c0-2.5-1.4-4.1-3.3-4.1s-3.3,1.6-3.3,4.1s1.4,4.1,3.3,4.1S1214.5,297.1,1214.5,294.5z
		 M1208.8,294.5c0-2.1,1-3.3,2.3-3.3c1.4,0,2.3,1.2,2.3,3.3c0,2.1-1,3.3-2.3,3.3S1208.8,296.7,1208.8,294.5z"/>
	<path class="st2" d="M1206.9,294.5c0-2.5-1.4-4.1-3.3-4.1s-3.1,1.6-3.1,4.1s1.4,4.1,3.1,4.1S1206.9,297.1,1206.9,294.5z
		 M1201.3,294.5c0-2.1,1-3.3,2.3-3.3s2.3,1.2,2.3,3.3c0,2.1-1,3.3-2.3,3.3S1201.3,296.7,1201.3,294.5z"/>
	<path class="st2" d="M1197,290.5v7.9h0.8v-7.2h1.9v-0.8h-2.7V290.5z"/>
	<path class="st2" d="M1195.1,294.5c0-2.5-1.4-4.1-3.1-4.1s-3.3,1.6-3.3,4.1s1.4,4.1,3.3,4.1S1195.1,297.1,1195.1,294.5z
		 M1189.5,294.5c0-2.1,1-3.3,2.3-3.3c1.4,0,2.3,1.2,2.3,3.3c0,2.1-1,3.3-2.3,3.3C1190.4,297.8,1189.5,296.7,1189.5,294.5z"/>
	<path class="st2" d="M1185.4,290.5v7.9h0.8v-7.2h1.9v-0.8h-2.7V290.5z"/>
</g>
<g id="freepik--Character--inject-2">
	<path class="st3" d="M1290.1,707.5l-51.1-5v-71.7h-20.2v71.7l-51.3,5c-5,0.6-8.9,4.8-8.9,9.9v7.6H1299v-7.6
		C1299,712.2,1295,707.8,1290.1,707.5z"/>
	<path class="st4" d="M1290.1,707.5l-51.1-5v-71.7h-20.2v71.7l-51.3,5c-5,0.6-8.9,4.8-8.9,9.9v7.6H1299v-7.6
		C1299,712.2,1295,707.8,1290.1,707.5z"/>
	<circle class="st3" cx="1163.8" cy="734.6" r="13.2"/>
	<circle class="st3" cx="1293.6" cy="734.6" r="13.2"/>
	<path class="st3" d="M1222.9,646h11.9c4.3,0,7.6-3.4,7.6-7.6l0,0v-56.2l0,0H1215l0,0v56.2C1215.2,642.7,1218.6,646,1222.9,646
		L1222.9,646z"/>
	<path class="st5" d="M1222.9,646h11.9c4.3,0,7.6-3.4,7.6-7.6l0,0v-56.2l0,0H1215l0,0v56.2C1215.2,642.7,1218.6,646,1222.9,646
		L1222.9,646z"/>
	<path class="st3" d="M1277.2,470c0,0,3.9,95.6-22.8,112.1h30.5c0,0,23.6-32.7,16.9-112.1L1277.2,470L1277.2,470z"/>
	<path class="st5" d="M1277.2,470c0,0,3.9,95.6-22.8,112.1h30.5c0,0,23.6-32.7,16.9-112.1L1277.2,470L1277.2,470z"/>
	<path class="st3" d="M1285.9,568.8h-117.7c-5.2,0-9.3,4.1-9.3,9.3v11.5l0,0h136.3l0,0v-11.5C1295.2,572.8,1291,568.8,1285.9,568.8z
		"/>
	<path class="st3" d="M1297.2,579.1H1157c-2,0-3.7,1.6-3.7,3.7v3c0,2,1.6,3.7,3.7,3.7h140.2c2,0,3.7-1.6,3.7-3.7v-3
		C1300.8,580.9,1299.2,579.1,1297.2,579.1z"/>
	<path class="st6" d="M1297.2,579.1H1157c-2,0-3.7,1.6-3.7,3.7v3c0,2,1.6,3.7,3.7,3.7h140.2c2,0,3.7-1.6,3.7-3.7v-3
		C1300.8,580.9,1299.2,579.1,1297.2,579.1z"/>
	<path class="st3" d="M1261.6,489.3h46.4c15,0,27.1-12.1,27.1-27.1v-16.7c0-15-12.1-27.1-27.1-27.1h-46.2c-15,0-27.1,12.1-27.1,27.1
		v16.7C1234.6,477.2,1246.8,489.3,1261.6,489.3z"/>
	<g id="freepik--group--inject-2">
		<polygon class="st7" points="1175.2,734.4 1160.3,732.4 1158.2,697.1 1172.9,699.1 		"/>
		<polygon class="st8" points="1172.9,699.1 1158.2,697.1 1159.4,717.3 1174.2,718.6 		"/>
		<path class="st1" d="M1174.6,527.5l3.5-22.6l83-5c0,0,8.9,47,2,59.6c-12.1,22.3-77.2,11.1-96.4,13.4
			c11.3,46.6,10.3,137.8,10.3,137.8l-27.3,2c0,0-21-98.2-25.3-144.8C1121.7,536.4,1147.9,537.2,1174.6,527.5z"/>
		<polygon class="st1" points="1180.2,712 1147.5,714.2 1144.7,700.1 1180.7,698.4 		"/>
		<polygon class="st7" points="1141,721.2 1126.1,722.3 1116.6,688.3 1131.7,687.2 		"/>
		<path class="st1" d="M1124.1,722.9L1124.1,722.9L1124.1,722.9c-1.3,0.8-2.6,1.3-3.9,1.6c-1,0.4-2,0.4-3,0c-0.6-0.4-1-1.1-1-1.8
			c0-0.4,0.2-1,0.6-1.1c1.3-0.6,2.8-0.6,4.3-0.2c-1.1-0.8-1.8-1.8-2.2-3c0-0.6,0.4-1.1,1-1.3c0.6-0.2,1.1-0.2,1.5,0
			c1.8,1,2.6,5.2,2.6,5.4l0,0h0.2C1124.1,722.7,1124.1,722.9,1124.1,722.9z M1122.9,722.1l0.4,0.2c-0.4-1.3-1.1-3.7-2.2-4.3
			c-0.2-0.2-0.6-0.2-0.8-0.2h-0.2c-0.6,0.2-0.6,0.6-0.6,0.8C1119.6,719.7,1121.5,721.4,1122.9,722.1z M1122.9,722.9
			c-2-0.6-4.6-1.1-5.6-0.6c-0.2,0.2-0.2,0.4-0.2,0.6c0,0.4,0.2,1,0.6,1.1C1118.5,724.5,1120.4,724.1,1122.9,722.9L1122.9,722.9z"/>
		<polygon class="st8" points="1131.7,687.2 1116.6,688.3 1122,707.6 1136.6,706 		"/>
		<path class="st1" d="M1111.6,705.4l26.2-7.6c0,0-15.6-88.4-31.5-119c1.1-0.4,2.8-1,4.6-1.5c3.5-1.1,8.1-2.4,13.7-3.9
			c38-10.5,115.3-30.5,115.3-30.5l-35.3-32.9c0,0-140.6,21.4-143.5,58.5C1060,586.2,1111.6,705.4,1111.6,705.4z"/>
		<polygon class="st1" points="1141.3,698.2 1109.7,707.1 1104,693.9 1138.9,684.8 		"/>
		<path class="st8" d="M1111.1,577.1c3.5-1.1,8.1-2.4,13.7-3.9c-1.1-8.9-1.1-19.4,3.2-24.5c8.5-10.4,30.7-16.7,43.2-18.8
			c10.5-1.8,45.9-5.6,45.9-5.6s-45.9-4.5-92.9,9.3C1101,540.3,1105.7,563.1,1111.1,577.1z"/>
		<polygon class="st4" points="1180.2,712 1147.5,714.2 1144.7,700.1 1180.7,698.4 		"/>
		<polygon class="st4" points="1141.3,698.2 1109.7,707.1 1104,693.9 1138.9,684.8 		"/>
		<path class="st3" d="M1124.7,720.9l16.2-4.5c0.6-0.2,1.1,0.2,1.3,0.8l0,0l4.3,12.6c0.4,1.5-0.4,2.8-1.8,3.2l0,0
			c-5.6,1.5-8.3,1.8-15.6,3.9c-6.3,2-12.6,3.5-19.2,4.6c-6.3,0.8-6.7-5.4-4.3-6.3c6.1-2,13.4-8.3,16.5-12.6
			C1122.9,721.5,1123.7,721.1,1124.7,720.9z"/>
		<path class="st1" d="M1158.8,732.4h-0.4l-0.4,0.2l0,0h-0.2c-1.3,0.4-2.6,0.6-3.9,0.8c-1,0.2-2,0-2.8-0.6c-0.6-0.6-0.8-1.1-0.6-1.8
			c0-0.4,0.4-1,0.8-1.1c1.5-0.2,3,0,4.1,0.8c-1-1-1.5-2-1.5-3.4c0.2-0.6,0.6-1.1,1.3-1.1c0.6-0.2,1.1,0,1.6,0.4
			C1158.6,727.9,1159,732,1158.8,732.4L1158.8,732.4L1158.8,732.4z M1157.2,731.4l0.4,0.2c0-1.6-0.4-3.2-1.3-4.6
			c-0.2-0.2-0.6-0.4-0.8-0.2h-0.2c-0.6,0-0.6,0.4-0.6,0.6C1155,729,1155.8,730.5,1157.2,731.4z M1157,732.2c-1.8-1-4.3-2-5.4-1.6
			c-0.2,0-0.4,0.4-0.4,0.6c-0.2,0.4,0,1,0.4,1.3C1152.5,732.9,1154.4,732.9,1157,732.2L1157,732.2z"/>
		<path class="st3" d="M1159.2,730.5l16.7-1.1c0.6,0,1.1,0.4,1.1,1l0,0l1.6,13.2c0.2,1.5-1,2.8-2.4,2.8c-5.7,0.2-8.5,0-16,0.6
			c-6.5,0.8-13,1-19.6,0.6c-6.3-0.6-5.4-6.7-2.8-7.1c6.3-0.8,14.9-5.4,18.8-8.9C1157.3,730.8,1158.2,730.5,1159.2,730.5z"/>
		<path class="st3" d="M1140.6,443.3c0,0-4.6,25.4-13.2,30.3c-8.5,4.8-66.7-29.9-66.7-29.9l4.8-9.9c0,0,48.9,13.2,49.2,13.2
			c0.4,0,1.8-11.1,1.8-11.1L1140.6,443.3z"/>
		<path class="st1" d="M1122.4,403.3c-3.9,4.8-9.3,40-9.3,40l28.6,6.7l6.1-17.8L1122.4,403.3z"/>
		<path class="st9" d="M1122.4,403.3c-3.9,4.8-9.3,40-9.3,40l28.6,6.7l6.1-17.8L1122.4,403.3z"/>
		<path class="st1" d="M1269.3,529.2l-96-16c0,0-5.9-57-50.7-109.9c0,0,15.6-33.8,70.7-29.1C1248.5,378.8,1269.3,529.2,1269.3,529.2
			z"/>
		<path class="st6" d="M1269.3,529.2l-96-16c0,0-5.9-57-50.7-109.9c0,0,15.6-33.8,70.7-29.1C1248.5,378.8,1269.3,529.2,1269.3,529.2
			z"/>
		<path class="st7" d="M1194.4,422.7c0,0,1,26.4-2,27.9s-58.5-18.8-67.2-20.2c-8.7-1.5-28.9,6.3-28.9,6.3l-1.8,12.1
			c0,0,18-0.4,28.1-5.2c0,0,64.8,38.8,78.8,36.6c13.9-2.2,19-54.6,19-54.6L1194.4,422.7z"/>
		<path class="st3" d="M1194.4,432.2c0,0-0.2,15.6-3.4,16.7c-3.2,1.1-51.3-15.8-51.3-15.8l-7.6,17.6c0,0,60.8,39.2,72.4,29.5
			c11.7-9.7,14.7-44.2,14.7-44.2L1194.4,432.2z"/>
		<path class="st1" d="M1203.1,380.1c-17.2-1.8-10.9,59.2-10.9,59.2l28.9,4.1C1221.2,443.5,1233.6,383.3,1203.1,380.1z"/>
		<path class="st9" d="M1203.1,380.1c-17.2-1.8-10.9,59.2-10.9,59.2l28.9,4.1C1221.2,443.5,1233.6,383.3,1203.1,380.1z"/>
		<path class="st3" d="M1175.6,375.6c0,0,0.6,26.9-16,29.5c-16.5,2.6-18.2-19.2-18.2-19.2S1152.8,374.2,1175.6,375.6z"/>
		<path class="st7" d="M1134.4,390.6c2.8-1,5.9-1,8.9,0c1.3,5.7,6.5,9.9,12.3,9.9c1.5,0,2.8,0,4.3-0.2c14.3-2,12.8-23.4,12.8-23.4
			c-5.2,0.4-10.4-1-15-3.5l0,0c-3.9-2.2-7.3-5.2-9.9-8.7L1134.4,390.6z"/>
		<path class="st8" d="M1134.4,390.6c2.8-1,5.9-1,8.9,0c1.3,5.7,6.5,9.9,12.3,9.9c3.7-9.1,3.2-19.6,2-27.1l0,0
			c-3.9-2.2-7.3-5.2-9.9-8.7L1134.4,390.6z"/>
		<path class="st3" d="M1123.3,348.9c6.3,4.3,3.5,11.7-10.9,23.2c-5.9-7.6-6.9-22.4-2.2-26.2
			C1114.8,342.3,1117.8,345.2,1123.3,348.9z"/>
		<path class="st7" d="M1150.8,361c-0.8,15.6-0.4,24.9-8,33.1c-11.7,12.3-31,5.4-35.1-10.1c-3.5-13.9-1.8-37.2,13.4-43.6
			c10.7-4.6,23.4,0.4,28.1,11.1C1150.4,354.3,1151,357.7,1150.8,361z"/>
		<path class="st3" d="M1127.6,365.7c0,1.3-0.8,2.2-1.5,2.4c-0.8,0.2-1.5-1-1.5-2.2c0-1.2,0.6-2.4,1.5-2.4
			S1127.4,364.3,1127.6,365.7z"/>
		<path class="st3" d="M1113.1,365.8c0,1.3-0.6,2.4-1.5,2.4c-1,0-1.5-1-1.5-2.2c0-1.3,0.8-2.2,1.5-2.4
			C1112.4,363.4,1113.1,364.5,1113.1,365.8z"/>
		<path class="st10" d="M1117.8,366.4c-1.5,3.9-3.4,7.6-5.9,10.9c1.8,1.3,4.1,1.6,6.1,1.1L1117.8,366.4z"/>
		<path class="st3" d="M1106.7,357.5c0.2,0.2,0.4,0.4,0.8,0.4c1.8-0.2,3.7,0.6,5,2c0.2,0.4,0.8,0.4,1.1,0.2c0.4-0.2,0.4-0.8,0.2-1
			l0,0c-1.5-1.8-3.9-2.8-6.3-2.6c-0.4,0-0.8,0.4-0.8,0.8l0,0l0,0C1106.7,357.3,1106.7,357.5,1106.7,357.5z"/>
		<path class="st3" d="M1121.5,360.3c0.2,0,0.6,0,0.8-0.2c1.3-1.5,3.2-2,5-1.8c0.4,0,0.8-0.2,1-0.6c0-0.4-0.2-0.8-0.6-1
			c-2.4-0.4-4.8,0.6-6.5,2.2c-0.2,0.4-0.2,0.8,0,1.1l0,0L1121.5,360.3z"/>
		<path class="st3" d="M1144.3,347.3c-7.3,2.6-6.3,10.4,5,25.3c7.6-5.9,12.1-20,8.5-24.9C1154.3,342.8,1150.6,344.9,1144.3,347.3z"
			/>
		<path class="st7" d="M1158.4,373.2c-1,3.9-3.5,7.1-6.9,9.1c-4.5,2.6-8-1.1-7.8-6.1c0.2-4.5,2.8-11.1,7.8-11.7
			C1156.6,363.9,1159.7,368.6,1158.4,373.2z"/>
		<path class="st11" d="M1129.8,381.1c0,0-2.8,5.2-10.3,4.8"/>
		<path class="st3" d="M1142.6,352.6c0,0-6.1,0.4-9.1,4.3c-1.5-2-2-4.6-1.5-7.3c0,0-7.5,1-10.7,6.1c-1-1.8-1.3-3.9-1.1-6.1
			c-1.5,1.6-2.2,3.9-2.2,6.1c0,0-5.7-3.5-5-7.1c-1.5,1.6-2.4,3.7-3,5.9c0,0-3.7-1.3-3-8c-1.3,1.3-2.2,3-2.6,4.8
			c0,0-4.8-13.7,13.5-21.6c18.4-7.8,39.6,1.5,39.2,16.7C1156.8,361.9,1142.6,352.6,1142.6,352.6z"/>
		<path class="st3" d="M993.6,443.3v4.8c0,1.5,2.6,2.6,3.9,2.6h114.7c1.5,0,3.9-1.1,3.9-2.6v-4.8H993.6z"/>
		<path class="st6" d="M993.6,443.3v4.8c0,1.5,2.6,2.6,3.9,2.6h114.7c1.5,0,3.9-1.1,3.9-2.6v-4.8H993.6z"/>
		<path class="st8" d="M993.6,443.3v4.8c0,1.5,2.6,2.6,3.9,2.6h75.8c1.5,0,3.9-1.1,3.9-2.6v-4.8H993.6z"/>
		<path class="st3" d="M975.2,382.9l13.7,62.2c0.6,2,2.2,3.5,4.5,3.7h74.6c1.8-0.2,3.2-1.6,3-3.5c0-0.2,0-0.4-0.2-0.6l-13.7-61.4
			c-0.6-1.8-2.4-3.2-4.5-3H978C975.9,380.1,974.8,380.9,975.2,382.9z"/>
		<path class="st6" d="M975.2,382.9l13.7,62.2c0.6,2,2.2,3.5,4.5,3.7h74.6c1.8-0.2,3.2-1.6,3-3.5c0-0.2,0-0.4-0.2-0.6l-13.7-61.4
			c-0.6-1.8-2.4-3.2-4.5-3H978C975.9,380.1,974.8,380.9,975.2,382.9z"/>
		<path class="st9" d="M975.2,382.9l13.7,62.2c0.6,2,2.2,3.5,4.5,3.7h72.1c1.8-0.2,3.2-1.6,3-3.5c0-0.2,0-0.4-0.2-0.6l-13.7-61.4
			c-0.6-1.8-2.4-3.2-4.5-3H978C975.9,380.1,974.8,380.9,975.2,382.9z"/>
		<path class="st8" d="M1019,422.7c-3.5,0-7.1-3.7-8-8.3s1.1-8.3,4.6-8.3c0.6,0,1.3,0.2,1.8,0.4c0.8,3.4,2.8,6.1,5.9,7.6
			c0,0.2,0,0.2,0.2,0.4C1024.7,418.9,1022.5,422.7,1019,422.7z"/>
	</g>
	<polygon class="st3" points="927.8,399.6 910.3,416.9 904.4,450.6 940.2,450.6 938.8,447 919.1,443.3 917.4,422.7 930.4,419.7 	"/>
	<polygon class="st6" points="904.4,450.6 940.2,450.6 938.8,447 919.1,443.3 917.4,422.7 919.1,422.3 930.4,419.7 927.8,399.6 
		910.3,416.9 	"/>
	<polygon class="st8" points="912.8,414.4 919.1,422.3 930.4,419.7 927.8,399.6 	"/>
	<path class="st3" d="M929.7,428.8h20c0.8,0,1.3-0.6,1.3-1.3v-0.2l-11.5-85.6c-0.2-1-1-1.6-1.8-1.6h-20c-0.8,0-1.3,0.6-1.3,1.3
		c0,0.2,0,0.2,0,0.4l11.7,85.8C928.1,428,928.9,428.8,929.7,428.8z"/>
	<path class="st6" d="M929.7,428.8h20c0.8,0,1.3-0.6,1.3-1.3v-0.2l-11.5-85.6c-0.2-1-1-1.6-1.8-1.6h-20c-0.8,0-1.3,0.6-1.3,1.3
		c0,0.2,0,0.2,0,0.4l11.7,85.8C928.1,428,928.9,428.8,929.7,428.8z"/>
	<path class="st9" d="M935.2,428.8h14.5c0.8,0,1.3-0.6,1.3-1.3v-0.2l-11.5-85.6c-0.2-1-1-1.6-1.8-1.6h-14.5c-0.8,0-1.3,0.6-1.3,1.3
		c0,0.2,0,0.2,0,0.4l11.7,85.8C933.8,428,934.5,428.8,935.2,428.8z"/>
	<polygon class="st1" points="934.5,426 949.7,426 938.6,342.8 923.2,342.8 	"/>
	<polygon class="st3" points="1066.7,747.8 1078,747.8 1098.4,463.1 1083.4,463.1 	"/>
	<polygon class="st9" points="1066.7,747.8 1078,747.8 1097.6,477.2 1098.4,463.7 1083.4,463.7 1082.7,477.2 	"/>
	<polygon class="st8" points="1082.7,476.7 1097.6,476.7 1098.4,463.7 1083.4,463.7 	"/>
	<polygon class="st3" points="983.1,747.8 994.6,747.8 996.6,463.1 981.3,463.1 	"/>
	<polygon class="st12" points="981.3,463.7 981.7,509.6 983.1,747.8 994.6,747.8 996.2,509.6 996.6,463.7 	"/>
	<polygon class="st8" points="981.3,463.7 981.7,510.1 996.2,510.1 996.6,463.7 	"/>
	<polygon class="st3" points="862.5,747.8 873.8,747.8 894.2,463.1 879.2,463.1 	"/>
	<polygon class="st12" points="862.5,747.8 873.8,747.8 893.3,477.2 894.2,463.7 879.2,463.7 878.4,477.2 	"/>
	<polygon class="st8" points="878.4,476.7 893.3,476.7 894.2,463.7 879.2,463.7 	"/>
	<polygon class="st3" points="1196.8,747.8 1208.1,747.8 1191.5,463.1 1176.4,463.1 	"/>
	<polygon class="st12" points="1176.4,463.7 1177.4,477.2 1196.8,747.8 1208.1,747.8 1192.2,477.2 1191.5,463.7 	"/>
	<polygon class="st8" points="1191.5,463.7 1176.4,463.7 1177.4,476.7 1192.2,476.7 	"/>
	<path class="st1" d="M1203.5,456H867.3l0,0v10.3c0,2.2,1.8,4.1,4.1,4.1l0,0h328.1c2.2,0,4.1-1.8,4.1-4.1l0,0L1203.5,456L1203.5,456
		z"/>
	<rect x="867.3" y="456" class="st8" width="336.2" height="7.1"/>
	<path class="st1" d="M860.2,457.9h350.2c2.2,0,4.1-1.8,4.1-4.1l0,0c0-2.2-1.8-4.1-4.1-4.1l0,0H860c-2.2,0-4.1,1.8-4.1,4.1l0,0
		C856.2,456,858,457.9,860.2,457.9L860.2,457.9z"/>
</g>
</svg>
